<svg width="48" height="48" viewBox="0 0 48 48" fill="none" xmlns="http://www.w3.org/2000/svg">
<path d="M23.3502 28.1543L20.0029 27.0394C19.9013 27.0042 19.8113 26.9422 19.7422 26.86C19.6731 26.7777 19.6276 26.6782 19.6106 26.5721C19.5936 26.466 19.6057 26.3573 19.6456 26.2576C19.6855 26.1578 19.7517 26.0708 19.8371 26.0057C20.6662 25.2782 21.3258 24.3779 21.7697 23.3682C22.2135 22.3584 22.4307 21.2637 22.4062 20.161C22.4062 16.2467 19.7619 13.0736 16.5 13.0736C13.2381 13.0736 10.5938 16.2467 10.5938 20.161C10.5693 21.2637 10.7865 22.3584 11.2303 23.3682C11.6742 24.3779 12.3338 25.2782 13.1629 26.0057C13.2483 26.0708 13.3145 26.1578 13.3544 26.2576C13.3943 26.3573 13.4064 26.466 13.3894 26.5721C13.3724 26.6782 13.3269 26.7777 13.2578 26.86C13.1887 26.9422 13.0987 27.0042 12.9971 27.0394L9.64978 28.1543C8.83523 28.4256 8.08963 28.8713 7.4649 29.4602C6.84018 30.0491 6.35136 30.7672 6.0325 31.5643L5.33565 33.3065C5.26394 33.4857 5.23726 33.6798 5.25793 33.8717C5.2786 34.0636 5.34599 34.2476 5.45422 34.4074C5.56244 34.5673 5.70819 34.6982 5.87872 34.7887C6.04924 34.8792 6.23934 34.9265 6.43239 34.9265H26.5676C26.7607 34.9265 26.9508 34.8792 27.1213 34.7887C27.2918 34.6982 27.4376 34.5673 27.5458 34.4074C27.654 34.2476 27.7214 34.0636 27.7421 33.8717C27.7627 33.6798 27.7361 33.4857 27.6644 33.3065L26.9675 31.5643C26.6486 30.7672 26.1598 30.0491 25.5351 29.4602C24.9104 28.8713 24.1648 28.4256 23.3502 28.1543Z" fill="white"/>
<path d="M42 3.375H31.5C31.2017 3.37508 30.9156 3.49363 30.7046 3.70459C30.4936 3.91555 30.3751 4.20166 30.375 4.5V15C30.3751 15.2983 30.4936 15.5844 30.7046 15.7954C30.9156 16.0064 31.2017 16.1249 31.5 16.125H42C42.2983 16.1249 42.5844 16.0064 42.7954 15.7954C43.0064 15.5844 43.1249 15.2983 43.125 15V4.5C43.1249 4.20166 43.0064 3.91555 42.7954 3.70459C42.5844 3.49363 42.2983 3.37508 42 3.375ZM39.7954 9.04541L36.7954 12.0454C36.691 12.1499 36.567 12.2328 36.4305 12.2893C36.294 12.3459 36.1477 12.375 36 12.375C35.8523 12.375 35.706 12.3459 35.5695 12.2893C35.433 12.2328 35.309 12.1499 35.2046 12.0454L33.7046 10.5454C33.4949 10.3342 33.3775 10.0485 33.378 9.75085C33.3786 9.45322 33.497 9.16794 33.7075 8.95749C33.9179 8.74703 34.2032 8.62856 34.5008 8.62802C34.7985 8.62748 35.0842 8.74491 35.2954 8.95459L36 9.65917L38.2046 7.45459C38.4158 7.24491 38.7015 7.12748 38.9992 7.12802C39.2968 7.12856 39.5821 7.24703 39.7925 7.45749C40.003 7.66794 40.1214 7.95322 40.122 8.25085C40.1225 8.54847 40.0051 8.83419 39.7954 9.04541Z" fill="white"/>
<path d="M42 17.625H31.5C31.2017 17.6251 30.9156 17.7436 30.7046 17.9546C30.4936 18.1656 30.3751 18.4517 30.375 18.75V29.25C30.3751 29.5483 30.4936 29.8344 30.7046 30.0454C30.9156 30.2564 31.2017 30.3749 31.5 30.375H42C42.2983 30.3749 42.5844 30.2564 42.7954 30.0454C43.0064 29.8344 43.1249 29.5483 43.125 29.25V18.75C43.1249 18.4517 43.0064 18.1656 42.7954 17.9546C42.5844 17.7436 42.2983 17.6251 42 17.625ZM39.7954 23.2954L36.7954 26.2954C36.691 26.3999 36.567 26.4828 36.4305 26.5393C36.294 26.5959 36.1477 26.625 36 26.625C35.8523 26.625 35.706 26.5959 35.5695 26.5393C35.433 26.4828 35.309 26.3999 35.2046 26.2954L33.7046 24.7954C33.5995 24.6911 33.5161 24.5671 33.459 24.4304C33.402 24.2938 33.3725 24.1472 33.3722 23.9992C33.372 23.8511 33.4009 23.7044 33.4575 23.5676C33.514 23.4307 33.597 23.3064 33.7017 23.2017C33.8064 23.097 33.9307 23.014 34.0676 22.9575C34.2044 22.9009 34.3511 22.872 34.4992 22.8722C34.6472 22.8725 34.7938 22.902 34.9304 22.959C35.0671 23.0161 35.1911 23.0995 35.2954 23.2046L36 23.9092L38.2046 21.7046C38.4158 21.4949 38.7015 21.3775 38.9992 21.378C39.2968 21.3786 39.5821 21.497 39.7925 21.7075C40.003 21.9179 40.1214 22.2032 40.122 22.5008C40.1225 22.7985 40.0051 23.0842 39.7954 23.2954Z" fill="white"/>
<path d="M42 31.875H31.5C31.2017 31.8751 30.9156 31.9936 30.7046 32.2046C30.4936 32.4156 30.3751 32.7017 30.375 33V43.5C30.3751 43.7983 30.4936 44.0844 30.7046 44.2954C30.9156 44.5064 31.2017 44.6249 31.5 44.625H42C42.2983 44.6249 42.5844 44.5064 42.7954 44.2954C43.0064 44.0844 43.1249 43.7983 43.125 43.5V33C43.1249 32.7017 43.0064 32.4156 42.7954 32.2046C42.5844 31.9936 42.2983 31.8751 42 31.875ZM39.7954 37.5454L36.7954 40.5454C36.691 40.6499 36.567 40.7328 36.4305 40.7893C36.294 40.8459 36.1477 40.875 36 40.875C35.8523 40.875 35.706 40.8459 35.5695 40.7893C35.433 40.7328 35.309 40.6499 35.2046 40.5454L33.7046 39.0454C33.4949 38.8342 33.3775 38.5485 33.378 38.2508C33.3786 37.9532 33.497 37.6679 33.7075 37.4575C33.9179 37.247 34.2032 37.1286 34.5008 37.128C34.7985 37.1275 35.0842 37.2449 35.2954 37.4546L36 38.1592L38.2046 35.9546C38.4158 35.7449 38.7015 35.6275 38.9992 35.628C39.2968 35.6286 39.5821 35.747 39.7925 35.9575C40.003 36.1679 40.1214 36.4532 40.122 36.7508C40.1225 37.0485 40.0051 37.3342 39.7954 37.5454Z" fill="white"/>
</svg>
