<svg width="48" height="48" viewBox="0 0 48 48" fill="none" xmlns="http://www.w3.org/2000/svg">
<path fill-rule="evenodd" clip-rule="evenodd" d="M16.8685 32.6511C17.0275 32.8101 17.0275 33.0696 16.8685 33.2287L13.4 36.6972L14.1748 37.472C14.2691 37.5663 14.2974 37.6993 14.2496 37.8238C14.2019 37.9483 14.0919 38.0283 13.9587 38.0353L10.1089 38.2384C10.012 38.2435 9.92661 38.2108 9.85796 38.1422C9.78931 38.0736 9.75657 37.9882 9.76171 37.8913L9.96482 34.0415C9.97184 33.9083 10.0518 33.7983 10.1763 33.7505C10.3008 33.7028 10.4338 33.731 10.5282 33.8253L11.3029 34.6001L14.7714 31.1316C14.9304 30.9726 15.19 30.9726 15.349 31.1316L16.8686 32.6512L16.8685 32.6511ZM10.1762 14.2496C10.3007 14.2973 10.4337 14.2691 10.5281 14.1748L11.3029 13.4L14.7713 16.8686C14.9304 17.0276 15.1899 17.0276 15.3489 16.8686L16.8685 15.349C17.0275 15.19 17.0275 14.9305 16.8685 14.7714L13.4 11.3029L14.1748 10.5282C14.2691 10.4338 14.2974 10.3009 14.2496 10.1763C14.2019 10.0518 14.0919 9.97184 13.9587 9.96482L10.1089 9.76171C10.012 9.75657 9.92661 9.78939 9.85796 9.85796C9.78931 9.92661 9.75665 10.0119 9.76171 10.1089L9.96482 13.9587C9.97184 14.0918 10.0518 14.2019 10.1763 14.2496L10.1762 14.2496ZM12.84 25.0745V22.9256C12.84 22.7007 12.6566 22.5171 12.4316 22.5171H7.52637V21.4214C7.52637 21.288 7.45233 21.174 7.33053 21.1198C7.20873 21.0655 7.07437 21.0867 6.97527 21.1759L4.10939 23.7545C4.03722 23.8194 4 23.9029 4 24C4 24.0971 4.03722 24.1806 4.10939 24.2455L6.97527 26.8241C7.07437 26.9133 7.20873 26.9345 7.33053 26.8802C7.45233 26.826 7.52637 26.7119 7.52637 26.5786V25.4829H12.4316C12.6565 25.4829 12.84 25.2994 12.84 25.0745ZM32.6512 16.8685C32.8102 17.0275 33.0697 17.0275 33.2287 16.8685L36.6972 13.3999L37.472 14.1747C37.5663 14.269 37.6993 14.2973 37.8238 14.2495C37.9483 14.2017 38.0283 14.0918 38.0353 13.9585L38.2384 10.1087C38.2436 10.0118 38.2109 9.92645 38.1422 9.8578C38.0736 9.78914 37.9882 9.75641 37.8913 9.76155L34.0415 9.96465C33.9083 9.97167 33.7983 10.0516 33.7505 10.1762C33.7028 10.3007 33.731 10.4336 33.8254 10.528L34.6002 11.3028L31.1317 14.7713C30.9727 14.9303 30.9727 15.1897 31.1317 15.3488L32.6513 16.8684L32.6512 16.8685ZM21.4214 7.52637H22.5171V12.4316C22.5171 12.6565 22.7006 12.84 22.9256 12.84H25.0745C25.2994 12.84 25.4829 12.6566 25.4829 12.4316V7.52637H26.5787C26.7121 7.52637 26.8261 7.45233 26.8804 7.33053C26.9347 7.20873 26.9135 7.07437 26.8242 6.97527L24.2456 4.10939C24.1807 4.03722 24.0972 4 24.0002 4C23.9031 4 23.8196 4.03722 23.7547 4.10939L21.1761 6.97527C21.0869 7.07437 21.0656 7.20873 21.1199 7.33053C21.1742 7.45233 21.2882 7.52637 21.4216 7.52637H21.4214ZM37.8238 33.7504C37.6993 33.7027 37.5663 33.7309 37.4719 33.8252L36.6971 34.6L33.2287 31.1315C33.0696 30.9725 32.8102 30.9725 32.6511 31.1315L31.1315 32.6511C30.9725 32.8101 30.9725 33.0696 31.1315 33.2287L34.6 36.6972L33.8252 37.472C33.7309 37.5663 33.7026 37.6993 33.7504 37.8238C33.7981 37.9483 33.9081 38.0283 34.0413 38.0353L37.8911 38.2384C37.9881 38.2436 38.0734 38.2108 38.142 38.1422C38.2107 38.0736 38.2434 37.9882 38.2383 37.8913L38.0352 34.0415C38.0282 33.9083 37.9482 33.7983 37.8237 33.7505L37.8238 33.7504ZM26.5785 40.4736H25.4828V35.5684C25.4828 35.3435 25.2993 35.16 25.0744 35.16H22.9254C22.7005 35.16 22.517 35.3434 22.517 35.5684V40.4736H21.4212C21.2878 40.4736 21.1738 40.5477 21.1196 40.6695C21.0653 40.7913 21.0865 40.9256 21.1758 41.0247L23.7544 43.8906C23.8193 43.9628 23.9028 44 23.9998 44C24.0969 44 24.1804 43.9628 24.2453 43.8906L26.8239 41.0247C26.9131 40.9256 26.9344 40.7913 26.8801 40.6695C26.8258 40.5477 26.7118 40.4736 26.5784 40.4736H26.5785ZM43.8905 23.7545L41.0247 21.1759C40.9256 21.0867 40.7912 21.0655 40.6694 21.1198C40.5476 21.174 40.4735 21.2881 40.4735 21.4214V22.5171H35.5683C35.3434 22.5171 35.1599 22.7006 35.1599 22.9256V25.0745C35.1599 25.2994 35.3433 25.4829 35.5683 25.4829H40.4735V26.5786C40.4735 26.712 40.5476 26.826 40.6694 26.8802C40.7912 26.9345 40.9256 26.9133 41.0247 26.8241L43.8905 24.2455C43.9627 24.1806 43.9999 24.0971 43.9999 24C43.9999 23.9029 43.9627 23.8194 43.8905 23.7545ZM31.878 29.6291L29.6291 31.878L28.2069 30.9243L25.9213 31.8712L25.5901 33.551H22.4096L22.0784 31.8712L19.7929 30.9243L18.3708 31.878L16.1218 29.6291L17.0755 28.207L16.1286 25.9215L14.4488 25.5903V22.4098L16.1286 22.0786L17.0755 19.7931L16.1218 18.3709L18.3708 16.122L19.7929 17.0757L22.0784 16.1288L22.4096 14.4491H25.5901L25.9213 16.1288L28.2069 17.0757L29.629 16.122L31.8779 18.3709L30.9242 19.7931L31.871 22.0786L33.5508 22.4098V25.5903L31.871 25.9215L30.9242 28.207L31.8779 29.6291H31.878ZM29.4717 24.0002C29.4717 20.9831 27.0172 18.5287 24.0001 18.5287C20.9829 18.5287 18.5281 20.9831 18.5281 24.0002C18.5281 27.0174 20.9829 29.4715 24.0001 29.4715C27.0172 29.4715 29.4717 27.0171 29.4717 24.0002ZM28.3291 24.0002C28.3291 26.3871 26.3869 28.3288 24.0001 28.3288C21.6133 28.3288 19.6711 26.387 19.6711 24.0002C19.6711 21.6135 21.6133 19.6717 24.0001 19.6717C26.3869 19.6717 28.3291 21.6135 28.3291 24.0002ZM25.0681 23.7247C24.7511 23.5674 24.4516 23.4918 24.114 23.4121C23.8069 23.3394 23.4806 23.2623 23.3224 23.1395C23.2629 23.0934 23.1951 23.0206 23.1897 22.9429C23.1814 22.8236 23.2925 22.7302 23.3866 22.6795C23.5816 22.5744 23.858 22.534 24.1335 22.5578C24.3927 22.5802 24.6293 22.6564 24.7636 22.7854C24.7883 22.8091 24.8085 22.8345 24.8229 22.8611C24.972 23.1385 25.3178 23.2424 25.5952 23.0933C25.8726 22.9442 25.9765 22.5984 25.8273 22.321C25.7555 22.1877 25.6629 22.0687 25.5538 21.964C25.2966 21.7171 24.9463 21.553 24.5713 21.4709V21.1477C24.5713 20.8321 24.3155 20.5762 23.9999 20.5762C23.6843 20.5762 23.4285 20.8321 23.4285 21.1477V21.4674C23.2198 21.5116 23.0215 21.5808 22.8464 21.6751C22.3537 21.9407 22.011 22.4398 22.0513 23.0188C22.074 23.3436 22.2162 23.6614 22.4901 23.9244C22.5313 23.9638 22.5766 24.0029 22.626 24.0413C22.9813 24.317 23.4315 24.4235 23.855 24.5237C24.0943 24.5802 24.3422 24.6371 24.5636 24.7469C24.7038 24.8165 24.8677 24.9102 24.8385 25.092C24.8211 25.2012 24.7438 25.2857 24.6472 25.3337C24.3961 25.4587 24.0228 25.4829 23.6784 25.4107C23.4056 25.3534 23.1736 25.2431 23.0881 25.0869C22.9377 24.8108 22.5919 24.7089 22.3158 24.8593C22.0396 25.0096 21.9377 25.3554 22.0881 25.6316C22.3464 26.1035 22.862 26.4001 23.4284 26.5229V26.8524C23.4284 27.168 23.6842 27.4238 23.9998 27.4238C24.3154 27.4238 24.5713 27.168 24.5713 26.8524V26.5435C24.7823 26.5053 24.9816 26.4429 25.1562 26.356C25.5833 26.1435 25.8875 25.7443 25.9635 25.2705C26.0781 24.5555 25.6781 24.0273 25.0681 23.7247Z" fill="white"/>
</svg>
