<svg width="48" height="48" viewBox="0 0 48 48" fill="none" xmlns="http://www.w3.org/2000/svg">
<path fill-rule="evenodd" clip-rule="evenodd" d="M28.1723 21.5965C28.307 21.6313 28.4417 21.5839 28.5254 21.4725C28.6091 21.361 28.6172 21.2179 28.5465 21.0978C27.8049 19.836 26.9092 18.4207 25.684 16.7993C26.2489 17.2327 27.9912 18.5971 29.8397 21.0994V24.7054C26.9822 24.9943 24.7388 27.4255 24.7388 30.3657C24.7388 33.4991 27.2869 36.0549 30.411 36.0549C33.5351 36.0549 36.0832 33.4991 36.0832 30.3657C36.0832 27.4255 33.8399 24.9943 30.9822 24.7054V21.0442C32.8155 18.5769 34.5363 17.2295 35.0972 16.7993C33.8721 18.4207 32.9762 19.836 32.2346 21.0978C32.1639 21.218 32.172 21.3611 32.2558 21.4725C32.3394 21.5839 32.4742 21.6313 32.6088 21.5965C36.0334 20.7108 38.6336 17.7728 38.6336 13.6078C34.5489 12.7311 32.0433 14.8348 30.9822 17.9935V14.7381C32.4098 13.4858 33.3122 11.646 33.3122 9.5944C33.3122 7.28074 32.1653 5.23599 30.4109 4C28.6565 5.23599 27.5096 7.28074 27.5096 9.5944C27.5096 11.6461 28.412 13.4859 29.8396 14.7382V18.1171C28.8028 14.8898 26.2852 12.7197 22.1475 13.6078C22.1475 17.7728 24.7477 20.7108 28.1723 21.5965ZM32.4944 28.4083C32.6439 28.6869 32.5417 29.0345 32.2623 29.1844C31.9869 29.3344 31.6408 29.2306 31.4874 28.9521C31.3811 28.7524 31.0704 28.595 30.6809 28.5413C30.1892 28.4738 29.6739 28.5887 29.4614 28.8127C29.371 28.9047 29.3277 29.0085 29.3356 29.1074C29.3474 29.2459 29.4497 29.3556 29.5362 29.4227C29.7447 29.5848 30.1578 29.6831 30.5236 29.7699C30.6731 29.805 30.8304 29.8417 30.976 29.8835C31.4913 30.0307 31.8965 30.2371 32.1758 30.4959C32.5495 30.8419 32.7226 31.3324 32.6517 31.8426C32.577 32.3744 32.2348 32.8396 31.7391 33.0858C31.5151 33.1991 31.2572 33.2768 30.9838 33.3191V33.7783C30.9838 34.0952 30.7281 34.3512 30.4134 34.3512C30.0948 34.3512 29.8391 34.0952 29.8391 33.7783V33.2965C29.1554 33.1657 28.5299 32.8229 28.2262 32.2671C28.0728 31.9898 28.175 31.6417 28.4544 31.4894C28.7298 31.3375 29.0759 31.4397 29.2294 31.7171C29.4772 32.1708 30.6181 32.3665 31.2317 32.0599C31.393 31.9806 31.4953 31.8425 31.5189 31.6811C31.5308 31.6042 31.5308 31.4574 31.4009 31.3391C31.2987 31.2448 31.0901 31.1082 30.6613 30.9863C30.5394 30.9512 30.4056 30.9193 30.26 30.8849C29.7841 30.7717 29.2412 30.643 28.836 30.3282C28.4544 30.0314 28.2302 29.6275 28.1948 29.191C28.1634 28.7645 28.3206 28.3479 28.6354 28.0188C28.9219 27.7211 29.3519 27.5154 29.8391 27.4262V26.9531C29.8391 26.637 30.0948 26.3797 30.4135 26.3797C30.7282 26.3797 30.9839 26.637 30.9839 26.9531V27.4298C31.6835 27.56 32.2298 27.9112 32.4945 28.4083L32.4944 28.4083ZM41.2674 33.1802L40.0674 36.0818L41.6197 38.4034L38.42 41.6127L36.1053 40.0557L33.2124 41.2593L32.6736 44H28.1487L27.6098 41.2593L24.7169 40.0557L22.4022 41.6127L19.2026 38.4034L20.7548 36.0818L19.5548 33.1802L16.8223 32.6398V30.3705H22.7273C22.7273 34.6268 26.1675 38.0773 30.4111 38.0773C34.6547 38.0773 38.0949 34.6268 38.0949 30.3705H44V32.6398L41.2675 33.1802H41.2674ZM7.93267 27.8515V21.9596C7.93267 21.6416 7.67567 21.3838 7.3586 21.3838C7.04153 21.3838 6.78452 21.6416 6.78452 21.9596V27.8515H6.26047C5.09779 27.8515 4.14217 26.9327 4.09312 25.7675C3.99428 23.4186 3.94948 21.1331 4.08455 18.6741C4.19122 17.2823 4.50168 16.7593 5.37283 16.247C6.25558 15.7279 8.01119 15.3531 9.2514 15.0165L9.42908 14.9668C9.90987 14.8325 10.3835 14.9336 10.7682 15.2524C11.0574 15.4921 11.3758 15.6624 11.7067 15.7638L11.0406 22.4447L12.4472 24.4641L13.8538 22.4447L13.1877 15.7638C13.5185 15.6624 13.837 15.4921 14.1262 15.2524C14.5108 14.9336 14.9845 14.8325 15.4652 14.9668L15.6429 15.0165C16.8831 15.3531 18.6387 15.7278 19.5214 16.247C20.3926 16.7593 20.7031 17.2823 20.8097 18.6741C20.9447 21.1331 20.8999 23.4186 20.8011 25.7675C20.752 26.9327 19.7964 27.8515 18.6337 27.8515H18.1098V21.9596C18.1098 21.6416 17.8528 21.3838 17.5357 21.3838C17.2186 21.3838 16.9616 21.6416 16.9616 21.9596V27.8515H7.93267ZM12.4471 5.06417C17.8528 5.06417 16.7235 13.5731 12.4471 13.8514C8.17074 13.5732 7.04144 5.06417 12.4471 5.06417Z" fill="white"/>
</svg>
