<svg width="48" height="48" viewBox="0 0 48 48" fill="none" xmlns="http://www.w3.org/2000/svg">
<path d="M7.06404 30.9889L16.2312 41.2643L13.1671 44L4 33.7221L7.06404 30.9889ZM37.9411 25.9599L32.6663 30.1506L32.1797 30.5406C32.203 30.7181 32.2172 30.9022 32.2172 31.0889C32.2172 31.6438 32.0988 32.2272 31.7588 32.7355C31.4139 33.2504 30.8589 33.6638 29.9989 33.8529C29.6756 33.9238 29.3089 33.9613 28.8956 33.9613H21.0535C20.716 33.9613 20.4443 33.6896 20.4443 33.3521C20.4443 33.0146 20.716 32.743 21.0535 32.743H28.8956C29.2215 32.743 29.5031 32.7146 29.7414 32.663C30.2539 32.5496 30.5681 32.3297 30.7481 32.0605C30.9322 31.7838 30.9964 31.4347 30.9964 31.0897C30.9964 30.8414 30.963 30.5981 30.918 30.3814C30.6631 29.6706 30.0772 28.8815 28.6973 29.0515H23.3259C20.0452 25.8533 15.4079 27.1807 9.89475 32.5921L15.2687 38.6177L30.7431 38.6269C39.5794 30.3356 43.9967 26.1907 43.9967 26.1907C42.6976 24.575 40.1418 24.0833 37.9403 25.9616L37.9411 25.9599ZM7.1182 17.2203L4.57664 16.2378V13.5188L7.1182 12.5363C7.30486 11.868 7.57152 11.2322 7.90484 10.6422L6.80155 8.14816L8.72397 6.22574L11.218 7.32903C11.8088 6.99571 12.4438 6.73155 13.1105 6.54489L14.0954 4.00083H16.812L17.7969 6.54489C18.4652 6.73155 19.0985 6.99571 19.691 7.32903L22.1851 6.22574L24.1058 8.14816L23.005 10.6422C23.3359 11.233 23.6025 11.868 23.7892 12.5363L26.3307 13.5188V16.2378L23.7892 17.2203C23.6025 17.8886 23.3384 18.5244 23.005 19.1144L24.1058 21.6084L22.1851 23.5309L19.691 22.4276C19.0985 22.7609 18.4627 23.025 17.7969 23.2117L16.812 25.7558H14.0954L13.1105 23.2142C12.4446 23.025 11.8088 22.7609 11.218 22.4276L8.72397 23.5309L6.80155 21.6084L7.90484 19.1144C7.57152 18.5236 7.30736 17.8886 7.1182 17.2203ZM10.4464 14.8795C10.4464 17.6436 12.688 19.8868 15.4537 19.8868C18.2194 19.8868 20.461 17.6428 20.461 14.8795C20.461 12.1163 18.2194 9.87226 15.4537 9.87226C12.688 9.87226 10.4464 12.1138 10.4464 14.8795ZM32.0597 12.1705L30.4889 11.5614V9.88392L32.0597 9.27478C32.1755 8.86396 32.338 8.46898 32.5438 8.10566L31.8638 6.56323L33.0521 5.37744L34.5921 6.05741C34.9579 5.85159 35.3504 5.6866 35.7637 5.57077L36.3712 4H38.0502L38.6577 5.57077C39.071 5.6866 39.4635 5.85159 39.8293 6.05741L41.3693 5.37744L42.5576 6.56323L41.8776 8.10566C42.0834 8.47148 42.2459 8.86396 42.3617 9.27478L43.9325 9.88392V11.5614L42.3617 12.1705C42.2459 12.5813 42.0834 12.9763 41.8776 13.3396L42.5576 14.882L41.3693 16.0678L39.8293 15.3879C39.4635 15.5937 39.071 15.7587 38.6577 15.8745L38.0502 17.4453H36.3712L35.7637 15.8745C35.3504 15.7587 34.9579 15.5937 34.5921 15.3879L33.0521 16.0678L31.8638 14.882L32.5438 13.3396C32.338 12.9738 32.1755 12.5813 32.0597 12.1705ZM34.1146 10.7222C34.1146 12.4321 35.5012 13.8163 37.2086 13.8163C38.916 13.8163 40.3027 12.4321 40.3027 10.7222C40.3027 9.01229 38.9185 7.62818 37.2086 7.62818C35.4987 7.62818 34.1146 9.01229 34.1146 10.7222ZM27.5974 23.6217L26.4682 23.185V21.9784L27.5974 21.5418C27.6798 21.2468 27.7982 20.9635 27.9473 20.701L27.4557 19.5935L28.3107 18.7411L29.4181 19.2302C29.6806 19.081 29.9614 18.966 30.2589 18.8802L30.6956 17.7511H31.9022L32.3388 18.8802C32.6338 18.9652 32.9171 19.081 33.1796 19.2302L34.2871 18.7411L35.1395 19.5935L34.6504 20.701C34.7971 20.9635 34.9145 21.2468 34.9979 21.5418L36.127 21.9784V23.185L34.9979 23.6217C34.9154 23.9167 34.7971 24.2 34.6504 24.4625L35.1395 25.5699L34.2871 26.4224L33.1796 25.9333C32.9155 26.0824 32.6338 26.1999 32.3388 26.2832L31.9022 27.4124H30.6956L30.2589 26.2832C29.9614 26.2007 29.6806 26.0824 29.4181 25.9333L28.3107 26.4224L27.4557 25.5699L27.9473 24.4625C27.7982 24.2 27.6807 23.9167 27.5974 23.6217ZM29.4964 22.5826C29.4964 23.5767 30.3039 24.385 31.2989 24.385C32.2938 24.385 33.1038 23.5775 33.1038 22.5826C33.1038 21.5876 32.2963 20.7776 31.2989 20.7776C30.3014 20.7776 29.4964 21.5851 29.4964 22.5826ZM14.1571 16.9795C14.3862 17.2061 14.7546 17.2061 14.9812 16.9795L18.3594 13.6013C18.5861 13.3746 18.5861 13.0063 18.3594 12.7771C18.1302 12.5505 17.7619 12.5505 17.5353 12.7771L14.5712 15.7412L13.3763 14.5462C13.1471 14.3196 12.7788 14.3196 12.5521 14.5462C12.323 14.7729 12.323 15.1437 12.5521 15.3704L14.1587 16.9786L14.1571 16.9795Z" fill="white"/>
</svg>
