<svg width="48" height="48" viewBox="0 0 48 48" fill="none" xmlns="http://www.w3.org/2000/svg">
<path d="M15.7578 25.959V28.3223H18.1211C18.1221 28.3223 18.1226 28.3222 18.1226 28.3222L18.1216 25.959H15.7578Z" fill="white"/>
<path d="M16.9395 14.1915C14.9902 14.1915 13.4043 15.7773 13.4043 17.7266C13.4043 18.9837 14.082 20.1568 15.1729 20.7882C15.5349 20.9977 15.7578 21.3842 15.7578 21.8024V23.6153H18.1211V21.8024C18.1211 21.3841 18.344 20.9977 18.706 20.7882C19.797 20.1569 20.4746 18.9837 20.4746 17.7266C20.4746 15.7773 18.8888 14.1915 16.9395 14.1915Z" fill="white"/>
<path d="M41.6465 11.7842C41.6465 9.69758 39.9489 8 37.8623 8H10.1376C8.05108 8 6.35342 9.69758 6.35342 11.7842V33.8887H41.6464V11.7842H41.6465ZM20.4648 22.4296V24.7872V28.3223C20.4648 29.6147 19.4134 30.6661 18.1211 30.6661H15.7578C14.4655 30.6661 13.414 29.6147 13.414 28.3223V24.7872V22.4296C11.9475 21.3273 11.0605 19.5822 11.0605 17.7266C11.0605 14.485 13.6978 11.8477 16.9394 11.8477C20.1811 11.8477 22.8183 14.485 22.8183 17.7266C22.8183 19.5821 21.9314 21.3272 20.4648 22.4296ZM33.414 30.666H26.3535C25.7063 30.666 25.1816 30.1413 25.1816 29.4941C25.1816 28.847 25.7063 28.3223 26.3535 28.3223H33.414C34.0612 28.3223 34.5859 28.847 34.5859 29.4941C34.5859 30.1413 34.0612 30.666 33.414 30.666ZM35.7676 25.959H26.3535C25.7063 25.959 25.1816 25.4343 25.1816 24.7871C25.1816 24.1399 25.7063 23.6152 26.3535 23.6152H35.7676C36.4148 23.6152 36.9394 24.1399 36.9394 24.7871C36.9394 25.4343 36.4148 25.959 35.7676 25.959ZM25.1816 20.0801C25.1816 19.4329 25.7063 18.9082 26.3535 18.9082H33.414C34.0612 18.9082 34.5859 19.4329 34.5859 20.0801C34.5859 20.7273 34.0612 21.252 33.414 21.252H26.3535C25.7063 21.252 25.1816 20.7273 25.1816 20.0801ZM35.7676 16.5449H26.3535C25.7063 16.5449 25.1816 16.0202 25.1816 15.373C25.1816 14.7259 25.7063 14.2012 26.3535 14.2012H35.7676C36.4148 14.2012 36.9394 14.7259 36.9394 15.373C36.9394 16.0202 36.4148 16.5449 35.7676 16.5449Z" fill="white"/>
<path d="M19.6299 39.5503C19.6299 40.2592 20.1586 40.8455 20.8421 40.9395H27.1579C27.8414 40.8455 28.37 40.2592 28.37 39.5503V36.2324H19.6299V39.5503Z" fill="white"/>
<path d="M17.2861 36.2324H5.20602C4.54 36.2324 4 36.7724 4 37.4385C4 39.372 5.56742 40.9395 7.50094 40.9395H17.5541C17.3819 40.5095 17.2861 40.041 17.2861 39.5503V36.2324Z" fill="white"/>
<path d="M42.794 36.2324H30.7139V39.5503C30.7139 40.041 30.6181 40.5095 30.4458 40.9395H40.499C42.4326 40.9395 44 39.372 44 37.4385C44 36.7724 43.46 36.2324 42.794 36.2324Z" fill="white"/>
</svg>
