<svg width="48" height="48" viewBox="0 0 48 48" fill="none" xmlns="http://www.w3.org/2000/svg">
<path d="M30.2524 14.6417H33.1249C33.1769 14.6417 33.2217 14.6866 33.2217 14.7386V27.9126C33.2217 27.9646 33.1768 28.0094 33.1249 28.0094H30.2524C30.2004 28.0094 30.1555 27.9645 30.1555 27.9126V14.7386C30.1555 14.6866 30.2004 14.6418 30.2524 14.6418V14.6417ZM22.9319 7.53863L25.4216 9.33863C25.4901 9.39063 25.5184 9.47563 25.4901 9.55596L24.5358 12.478C24.4768 12.6551 24.6822 12.804 24.8334 12.693L27.3161 10.8835C27.387 10.8315 27.4768 10.8315 27.5453 10.8835L30.0279 12.693C30.1791 12.804 30.3846 12.6551 30.3255 12.478L29.3712 9.55596C29.3429 9.47563 29.3712 9.39063 29.442 9.33863L31.9318 7.53863C32.0829 7.42763 32.0049 7.18663 31.816 7.18663L28.7428 7.19371C28.6577 7.19371 28.5845 7.13938 28.5585 7.05904L27.616 4.13463C27.557 3.95512 27.3042 3.95512 27.2475 4.13463L26.3027 7.05904C26.2767 7.13938 26.2035 7.19371 26.1184 7.19371L23.0452 7.18663C22.8562 7.18663 22.7783 7.42754 22.9319 7.53863ZM34.1382 28.0095H37.0106C37.0626 28.0095 37.1074 27.9646 37.1074 27.9126V11.6275C37.1074 11.5755 37.0625 11.533 37.0106 11.533H34.1382C34.0862 11.533 34.0413 11.5755 34.0413 11.6275V27.9126C34.0413 27.9646 34.0862 28.0095 34.1382 28.0095ZM26.3641 18.5205C26.3121 18.5205 26.2696 18.5654 26.2696 18.6173V27.9126C26.2696 27.9646 26.3121 28.0094 26.3641 28.0094H29.2389C29.2909 28.0094 29.3358 27.9645 29.3358 27.9126V18.6173C29.3358 18.5653 29.2909 18.5205 29.2389 18.5205H26.3641ZM17.1704 40.8717C17.4492 41.3559 17.2838 41.9795 16.7996 42.2582L13.9957 43.8763C13.5138 44.1551 12.9658 43.933 12.6114 43.5055L6.16734 35.7078C5.81534 35.2802 6.05625 34.6 6.54059 34.3212L10.7973 31.8646C11.2816 31.5835 11.9052 31.7512 12.1839 32.2354L17.1704 40.8717ZM10.8752 36.1378L9.97992 34.5882C9.72009 34.1394 9.04217 34.5339 9.29959 34.9803L10.1925 36.5299C10.4523 36.9787 11.1327 36.5842 10.8752 36.1377V36.1378ZM41.1209 31.8386C40.9271 30.5181 39.4697 29.8968 38.3901 30.5205C35.6523 32.1008 32.9074 33.6717 30.1744 35.2614C29.8979 35.4244 29.5365 35.6299 29.2247 35.7126C28.9436 35.7835 28.7452 35.7598 28.4688 35.6866L21.7672 33.9126C21.4719 33.8346 21.5924 33.3882 21.8853 33.4637L27.6774 34.9992C29.038 35.3582 30.1104 33.9126 29.4159 32.7102C29.2104 32.3511 28.8537 32.0724 28.4522 31.9708L20.7821 29.9157C20.2246 29.7763 19.7097 29.7692 19.1994 30.0621L13.6223 33.2842L16.9695 39.0835L17.9711 38.5047C18.5073 38.1953 18.9514 38.1882 19.5396 38.3442L27.2049 40.3992C27.8309 40.5669 28.4947 40.4772 29.0545 40.1536L40.2278 33.7024C40.8869 33.3221 41.2294 32.5875 41.1207 31.8386L41.1209 31.8386ZM11.1492 22.4158L11.9145 22.4914C12.0515 22.9473 12.231 23.3843 12.4602 23.8024L11.9807 24.3835C11.8248 24.5606 11.8012 24.8276 11.9429 25.0307C12.4744 25.8031 13.1217 26.4528 13.887 26.9914C14.1019 27.1426 14.35 27.1851 14.572 27.0009L15.1697 26.5096C15.5854 26.7387 16.0224 26.9206 16.4783 27.0552L16.5539 27.823C16.5752 28.0521 16.7476 28.2481 16.9838 28.2907C17.9854 28.4702 18.7909 28.4537 19.7878 28.2931C20.0217 28.26 20.213 28.0686 20.2366 27.823L20.3098 27.0552C20.7421 26.9276 21.1578 26.7576 21.557 26.545V23.3158C20.7609 24.2914 19.5491 24.9126 18.1932 24.9126C15.7956 24.9126 13.8538 22.9709 13.8538 20.5756C13.8538 18.1804 15.7956 16.2363 18.1932 16.2363C20.8247 16.2363 22.8468 18.5607 22.49 21.1686H25.3507C25.3814 21.1686 25.4121 21.1709 25.4428 21.1733V18.7142L24.8734 18.6599C24.7388 18.204 24.5569 17.767 24.3301 17.3489L24.8073 16.7678C24.9655 16.5906 24.9868 16.3237 24.8474 16.1206C24.3041 15.3363 23.6451 14.6749 22.8632 14.1316C22.6648 13.9922 22.4073 13.9922 22.2183 14.1505L21.6207 14.6395C21.2025 14.4127 20.7656 14.2308 20.3097 14.0961L20.2365 13.3521C20.2128 13.1041 20.057 12.908 19.8042 12.8607C18.8049 12.6812 17.9994 12.6977 17.0026 12.8584C16.7664 12.8915 16.5774 13.0828 16.5538 13.3285L16.4782 14.0961C16.0223 14.2308 15.5853 14.4127 15.1695 14.6395L14.5861 14.1623C14.4089 14.0041 14.1419 13.9827 13.9388 14.1221C13.1546 14.6655 12.4932 15.3269 11.9475 16.1111C11.8104 16.3096 11.8128 16.5646 11.9688 16.7536L12.4601 17.3489C12.2309 17.767 12.0514 18.204 11.9144 18.6599L11.1491 18.7355C10.9199 18.7567 10.7238 18.9268 10.6813 19.1654C10.4994 20.167 10.516 20.9701 10.6766 21.9693C10.712 22.2031 10.901 22.3921 11.149 22.4157L11.1492 22.4158ZM18.1933 17.1221C16.2846 17.1221 14.7398 18.6694 14.7398 20.5756C14.7398 22.4819 16.2847 24.0292 18.1933 24.0292C20.1018 24.0292 21.6445 22.482 21.6445 20.5756C21.6445 18.6693 20.0996 17.1221 18.1933 17.1221ZM25.3508 21.9954H22.4783C22.4263 21.9954 22.3814 22.0403 22.3814 22.0922V27.8938C22.3814 27.9458 22.4264 27.9906 22.4783 27.9906H25.3508C25.4051 27.9906 25.4476 27.9457 25.4476 27.8938V22.0922C25.4476 22.0402 25.4051 21.9954 25.3508 21.9954Z" fill="white"/>
</svg>
