<svg width="48" height="48" viewBox="0 0 48 48" fill="none" xmlns="http://www.w3.org/2000/svg">
<path d="M35.1428 34.7143C37.1153 34.7143 38.7143 33.1153 38.7143 31.1428C38.7143 29.1704 37.1153 27.5714 35.1428 27.5714C33.1704 27.5714 31.5714 29.1704 31.5714 31.1428C31.5714 33.1153 33.1704 34.7143 35.1428 34.7143Z" fill="white"/>
<path d="M40.8571 44H29.4286C29.4286 40.4286 30.97 36.8571 35.1429 36.8571C39.3157 36.8571 40.8571 40.4286 40.8571 44Z" fill="white"/>
<path d="M30.3836 35.4493C29.5014 34.4743 28.9121 33.2314 28.7586 31.8571H25.8571V29H29.0893C29.4907 27.87 30.195 26.8829 31.1107 26.1429H25.8571V23.2857H33V25.0893C33.6707 24.8507 34.3907 24.7143 35.1429 24.7143C35.6343 24.7143 36.1107 24.775 36.5714 24.8793V9.71429C36.5714 8.92571 35.9314 8.28571 35.1429 8.28571H31.5714V5.42857C31.5714 4.64 30.9314 4 30.1429 4H17.2857C16.4971 4 15.8571 4.64 15.8571 5.42857V8.28571H12.2857C11.4971 8.28571 10.8571 8.92571 10.8571 9.71429V38.2857H9.42857C8.64 38.2857 8 38.9257 8 39.7143V41.1429H26.8664C27.3971 38.6557 28.63 36.6836 30.3836 35.4493ZM25.8571 11.8571H33V14.7143H25.8571V11.8571ZM25.8571 17.5714H33V20.4286H25.8571V17.5714ZM21.5714 31.8571H14.4286V29H21.5714V31.8571ZM21.5714 26.1429H14.4286V23.2857H21.5714V26.1429ZM21.5714 20.4286H14.4286V17.5714H21.5714V20.4286ZM21.5714 14.7143H14.4286V11.8571H21.5714V14.7143Z" fill="white"/>
</svg>
