<svg width="48" height="48" viewBox="0 0 48 48" fill="none" xmlns="http://www.w3.org/2000/svg">
<path d="M17.0322 19.2489C17.3358 19.0284 17.5154 18.676 17.5154 18.3008V14.1951L19.929 10.8734C20.1496 10.5699 20.2114 10.1792 20.0955 9.82241C19.9795 9.46558 19.6998 9.18587 19.3431 9.06992L15.4383 7.80105L13.0247 4.47925C12.5769 3.84021 11.5761 3.84029 11.1284 4.47925L8.71473 7.80105L4.80999 9.06992C4.45324 9.18587 4.17352 9.46558 4.05757 9.82241C3.9417 10.1792 4.00358 10.5699 4.22407 10.8734L6.63766 14.1951V18.3008C6.63766 18.676 6.81729 19.0284 7.12083 19.2489C7.42438 19.4695 7.81511 19.5314 8.17187 19.4153L12.0765 18.1466L15.9812 19.4153C16.3379 19.5315 16.7287 19.4695 17.0322 19.2489Z" fill="#40D9C7"/>
<path d="M42.8317 22.8261H32.7057V20.2309C32.7057 15.416 28.8096 11.5282 24.0018 11.5282C23.3545 11.5282 22.8298 12.0529 22.8298 12.7002V18.7001L19.5114 25.3368H16.3866V40.234H17.9487C18.4757 42.3929 20.4263 44 22.7452 44H40.321C40.9084 44 41.405 43.5652 41.4826 42.9829L43.9933 24.153C44.0869 23.4512 43.5406 22.8261 42.8317 22.8261Z" fill="#40D9C7"/>
<path d="M12.8706 22.8261H5.17199C4.52474 22.8261 4 23.3509 4 23.9981V42.828C4 43.4753 4.52474 44 5.17199 44H12.8706C13.5178 44 14.0426 43.4753 14.0426 42.828V23.9981C14.0426 23.3508 13.5178 22.8261 12.8706 22.8261Z" fill="#40D9C7"/>
</svg>
