<svg width="48" height="48" viewBox="0 0 48 48" fill="none" xmlns="http://www.w3.org/2000/svg">
<path d="M25.9735 25.4892C26.2063 25.6416 26.5218 25.5091 26.5709 25.2352C26.8065 23.922 27.6156 22.7592 28.7987 22.0894C29.4777 21.7049 30.2497 21.5017 31.0312 21.5017C31.8529 21.5017 32.659 21.7248 33.3633 22.1474C33.4061 22.1731 33.4485 22.1997 33.487 22.225L37.7983 25.0473C38.0662 25.2227 38.4197 25.019 38.4023 24.6993L37.83 14.1563C37.7472 12.6668 36.5137 11.5 35.0219 11.5H27.9781C26.4863 11.5 25.2528 12.6668 25.1699 14.1564L24.6027 24.3587C24.595 24.498 24.6621 24.6308 24.7788 24.7072L25.9735 25.4892Z" fill="#40D9C7"/>
<path d="M16.5 15.875H7.75C5.68227 15.875 4 14.1927 4 12.125C4 10.0573 5.68227 8.375 7.75 8.375H8.375V7.75C8.375 5.68227 10.0573 4 12.125 4C14.1927 4 15.875 5.68227 15.875 7.75V8.375H16.5C18.5677 8.375 20.25 10.0573 20.25 12.125C20.25 14.1927 18.5677 15.875 16.5 15.875Z" fill="#40D9C7"/>
<path d="M43.0399 31.4665L32.1178 24.3167C32.1041 24.3077 32.0903 24.2991 32.0763 24.2907C31.4498 23.9148 30.666 23.9051 30.0304 24.2649C29.3948 24.6248 29 25.3021 29 26.0325V30.4584L19.6178 24.3167C19.6041 24.3077 19.5903 24.2991 19.5763 24.2907C18.9498 23.9148 18.166 23.9051 17.5304 24.2649C16.8948 24.6248 16.5 25.3021 16.5 26.0325V30.4584L7.11781 24.3167C7.10414 24.3077 7.09031 24.2991 7.07625 24.2907C6.44984 23.9148 5.66594 23.9051 5.03039 24.2649C4.39484 24.6248 4 25.3021 4 26.0325V42.75C4 43.4403 4.55969 44 5.25 44H17.75H30.25H42.75C43.4403 44 44 43.4403 44 42.75V33.1923C44 32.4931 43.6329 31.8347 43.0399 31.4665ZM13.375 37.125C13.375 37.8153 12.8153 38.375 12.125 38.375H10.875C10.1847 38.375 9.625 37.8153 9.625 37.125V35.875C9.625 35.1847 10.1847 34.625 10.875 34.625H12.125C12.8153 34.625 13.375 35.1847 13.375 35.875V37.125ZM25.875 37.125C25.875 37.8153 25.3153 38.375 24.625 38.375H23.375C22.6847 38.375 22.125 37.8153 22.125 37.125V35.875C22.125 35.1847 22.6847 34.625 23.375 34.625H24.625C25.3153 34.625 25.875 35.1847 25.875 35.875V37.125ZM38.375 37.125C38.375 37.8153 37.8153 38.375 37.125 38.375H35.875C35.1847 38.375 34.625 37.8153 34.625 37.125V35.875C34.625 35.1847 35.1847 34.625 35.875 34.625H37.125C37.8153 34.625 38.375 35.1847 38.375 35.875V37.125Z" fill="#40D9C7"/>
</svg>
