<svg width="48" height="48" viewBox="0 0 48 48" fill="none" xmlns="http://www.w3.org/2000/svg">
<path d="M20.7969 23.5312C26.1817 23.5312 30.5625 19.1505 30.5625 13.7656C30.5625 8.3808 26.1817 4 20.7969 4C15.412 4 11.0312 8.3808 11.0312 13.7656C11.0312 19.1505 15.412 23.5312 20.7969 23.5312Z" fill="#40D9C7"/>
<path d="M19.9375 33.1406C19.9375 30.4246 20.7624 27.8977 22.1741 25.7963C21.7219 25.8478 21.2626 25.875 20.7969 25.875C17.3481 25.875 14.2313 24.4257 12.0237 22.1039C7.33435 24.0839 4 29.0546 4 34.8594V42.8281C4 43.4754 4.5246 44 5.17187 44H25.64C22.1973 41.6147 19.9375 37.6368 19.9375 33.1406Z" fill="#40D9C7"/>
<path d="M33.1406 22.2812C27.1528 22.2812 22.2812 27.1528 22.2812 33.1406C22.2812 39.1285 27.1528 44 33.1406 44C39.1285 44 44 39.1285 44 33.1406C44 27.1528 39.1285 22.2812 33.1406 22.2812ZM33.1406 31.9687C35.0791 31.9687 36.6562 33.5459 36.6562 35.4844C36.6562 37.0121 35.6766 38.3146 34.3125 38.7986V39.3906C34.3125 40.0379 33.7879 40.5625 33.1406 40.5625C32.4933 40.5625 31.9687 40.0379 31.9687 39.3906V39H30.7969C30.1496 39 29.625 38.4754 29.625 37.8281C29.625 37.1808 30.1496 36.6562 30.7969 36.6562H33.1406C33.7867 36.6562 34.3125 36.1304 34.3125 35.4844C34.3125 34.8383 33.7867 34.3125 33.1406 34.3125C31.2021 34.3125 29.625 32.7354 29.625 30.7969C29.625 29.2692 30.6046 27.9667 31.9687 27.4827V26.8906C31.9687 26.2433 32.4933 25.7187 33.1406 25.7187C33.7879 25.7187 34.3125 26.2433 34.3125 26.8906V27.2812H35.4844C36.1317 27.2812 36.6562 27.8058 36.6562 28.4531C36.6562 29.1004 36.1317 29.625 35.4844 29.625H33.1406C32.4946 29.625 31.9687 30.1508 31.9687 30.7969C31.9687 31.4429 32.4946 31.9687 33.1406 31.9687Z" fill="#40D9C7"/>
</svg>
