<svg width="48" height="48" viewBox="0 0 48 48" fill="none" xmlns="http://www.w3.org/2000/svg">
<path fill-rule="evenodd" clip-rule="evenodd" d="M13.6274 32.4048C14.3737 27.5683 18.5527 23.8648 23.5964 23.8648C28.6428 23.8648 32.8219 27.5684 33.5669 32.4048C33.5838 32.5208 33.5494 32.6383 33.4728 32.727C33.3961 32.8156 33.2847 32.8666 33.1675 32.8665C30.473 32.8665 16.7207 32.8665 14.0255 32.8654C13.9087 32.8654 13.7976 32.8146 13.7212 32.7261C13.6447 32.6377 13.6105 32.5205 13.6274 32.4048ZM23.5964 23.0576C20.7877 23.0576 18.4983 20.7655 18.4983 17.9568C18.4983 15.1482 20.7877 12.856 23.5964 12.856C26.4078 12.856 28.6972 15.1482 28.6972 17.9568C28.6972 20.7655 26.4078 23.0576 23.5964 23.0576ZM9.32091 4C12.2576 4 14.6418 6.38416 14.6418 9.32091C14.6418 12.2576 12.2576 14.6418 9.32091 14.6418C6.38424 14.6418 4 12.2576 4 9.32091C4 6.38416 6.38424 4 9.32091 4ZM9.01684 33.446L13.0651 35.7832C13.2649 35.8987 13.3879 36.1118 13.3879 36.3425V41.017C13.3879 41.2477 13.2649 41.4609 13.0651 41.5763L9.01684 43.9134C8.81707 44.0289 8.57088 44.0289 8.3711 43.9134L4.32287 41.5763C4.12309 41.4609 4 41.2477 4 41.017V36.3425C4 36.1118 4.12309 35.8987 4.32287 35.7832L8.3711 33.446C8.57088 33.3307 8.81707 33.3307 9.01684 33.446ZM18.1068 8.04823H31.5291C31.8855 8.04823 32.1748 8.33753 32.1748 8.69397C32.1748 9.05034 31.8855 9.33972 31.5291 9.33972H18.1068C18.3003 9.63442 18.2212 10.0315 17.9281 10.2292C17.6326 10.4286 17.2309 10.3506 17.0316 10.0552L16.3568 9.05519C16.2095 8.83684 16.2095 8.55102 16.3568 8.33276L17.0316 7.33275C17.2309 7.03733 17.6326 6.95927 17.9281 7.15864C18.2212 7.35648 18.3003 7.75345 18.1068 8.04823ZM39.1446 18.9139V31.1079C39.1446 31.4643 38.8553 31.7536 38.4988 31.7536C38.1424 31.7536 37.8531 31.4643 37.8531 31.1079V18.9139C37.5584 19.1074 37.1613 19.0283 36.9636 18.7353C36.7642 18.4398 36.8422 18.0381 37.1377 17.8387L38.1377 17.1639C38.3559 17.0167 38.6418 17.0167 38.86 17.1639L39.86 17.8387C40.1555 18.0381 40.2335 18.4398 40.0341 18.7353C39.8363 19.0283 39.4393 19.1074 39.1446 18.9139ZM29.4235 38.6602C29.2299 38.3655 29.309 37.9685 29.6021 37.7707C29.8975 37.5714 30.2993 37.6493 30.4986 37.9448L31.1734 38.9448C31.3207 39.1631 31.3207 39.4489 31.1734 39.6672L30.4986 40.6672C30.2993 40.9626 29.8975 41.0407 29.6021 40.8413C29.309 40.6435 29.2299 40.2465 29.4235 39.9517H15.6638C15.3073 39.9517 15.018 39.6624 15.018 39.306C15.018 38.9496 15.3073 38.6602 15.6638 38.6602H29.4235ZM8.04823 29.869V17.6992C8.04823 17.3429 8.33761 17.0535 8.69397 17.0535C9.05034 17.0535 9.33972 17.3429 9.33972 17.6992V29.869C9.6345 29.6755 10.0315 29.7546 10.2292 30.0477C10.4286 30.3431 10.3506 30.7448 10.0552 30.9442L9.05519 31.6189C8.83692 31.7662 8.55102 31.7662 8.33276 31.6189L7.33275 30.9442C7.03732 30.7448 6.95935 30.3431 7.15864 30.0477C7.35648 29.7546 7.75345 29.6755 8.04823 29.869ZM43.1928 5.66593V12.9759C43.1928 13.2515 43.0833 13.5157 42.8885 13.7106C42.6936 13.9054 42.4294 14.0149 42.1539 14.0149H34.8438C34.5683 14.0149 34.304 13.9054 34.1091 13.7106C33.9144 13.5157 33.8048 13.2515 33.8048 12.9759V5.66593C33.8048 5.39036 33.9144 5.12609 34.1091 4.93124C34.304 4.73639 34.5683 4.62693 34.8438 4.62693H42.1538C42.4294 4.62693 42.6936 4.73639 42.8885 4.93124C43.0833 5.12609 43.1928 5.39036 43.1928 5.66593ZM37.7217 34.1602C37.882 33.8826 38.1783 33.7115 38.4988 33.7115C38.8194 33.7115 39.1157 33.8826 39.276 34.1602L43.7316 41.8776C43.8919 42.1552 43.8919 42.4972 43.7316 42.7749C43.5713 43.0525 43.275 43.2235 42.9544 43.2235H34.0433C33.7227 43.2235 33.4264 43.0525 33.2661 42.7749C33.1058 42.4972 33.1058 42.1552 33.2661 41.8776L37.7217 34.1602Z" fill="#40D9C7"/>
</svg>
