<svg width="48" height="48" viewBox="0 0 48 48" fill="none" xmlns="http://www.w3.org/2000/svg">
<path d="M6.65364 4.0002C6.6197 4.00151 6.58582 4.00411 6.55208 4.00801C5.98523 4.05631 5.51146 4.45896 5.3724 5.01061C5.19551 5.72541 5.63156 6.44827 6.34635 6.62518L11.6718 7.96372C12.3892 8.14558 13.1175 7.70841 13.2942 6.98976C13.4711 6.27496 13.0351 5.5521 12.3203 5.37519L6.98697 4.03665C6.87784 4.01052 6.76584 3.99827 6.65364 4.0002ZM23.9895 4.0002C23.4467 4.00702 22.9002 4.26385 22.401 4.80748C21.9343 5.25019 20.9615 6.85371 20.6275 7.24497C20.1872 7.41444 18.4129 7.8033 17.7604 8.1434C16.2109 8.89376 16.1211 10.0992 16.7369 11.2241C16.963 11.6374 18.4981 13.7537 18.4843 13.6382C18.4866 13.6949 18.4155 16.2004 18.4713 16.6746C18.6655 18.3288 19.8056 18.8443 21.0911 18.6017C21.5603 18.5131 23.236 17.9067 23.5468 17.7996C23.845 17.6969 23.9895 17.6747 24.427 17.8256C24.8159 18.0005 26.4083 18.5652 26.8775 18.6538C28.163 18.8964 29.2718 18.3132 29.466 16.659C29.5218 16.1848 29.4378 14.372 29.4348 13.7319C29.5564 13.5871 31.0446 11.6427 31.2707 11.2293C31.8866 10.1045 31.7706 8.89376 30.2212 8.1434C29.5687 7.8033 27.7943 7.41444 27.3541 7.24497C27.0201 6.85372 26.0473 5.25019 25.5806 4.80748C25.0814 4.26385 24.5349 4.00702 23.9921 4.0002H23.9895ZM41.3332 4.0002C41.221 3.99827 41.109 4.01052 40.9998 4.03665L35.6639 5.37519C34.9491 5.5521 34.5131 6.27496 34.69 6.98976C34.8667 7.7097 35.5967 8.14725 36.315 7.96372L41.6378 6.62518C42.3537 6.44945 42.7911 5.72621 42.6144 5.01061C42.475 4.45811 42 4.05525 41.4321 4.00801C41.3992 4.00418 41.3662 4.00157 41.3332 4.0002ZM24.0025 7.24497C24.0939 7.24096 24.1874 7.28769 24.2499 7.39601C24.4718 7.72241 25.1746 8.96214 25.7968 9.40902C26.475 9.89618 27.8411 10.1936 28.2212 10.2996C28.3823 10.3445 28.474 10.6364 28.3697 10.771C28.1278 11.0829 27.1394 12.169 26.9192 12.8595C26.6788 13.6131 26.8088 15.0147 26.8254 15.409C26.8365 15.6817 26.6638 15.8156 26.453 15.7397C26.0817 15.6061 24.7366 15.0027 23.9921 15.0027C23.2465 14.9856 21.8869 15.5488 21.5155 15.6824C21.3529 15.7409 21.1009 15.6661 21.1119 15.4038C21.1285 15.0095 21.233 13.4081 21.0546 12.8491C20.8763 12.2901 19.8668 11.0464 19.6249 10.7345C19.5206 10.5999 19.4954 10.3408 19.7734 10.2632C20.1535 10.1572 21.7109 9.75133 22.1874 9.40902C22.664 9.0667 23.5437 7.72762 23.7655 7.40122C23.8217 7.30394 23.9111 7.24899 24.0025 7.24497ZM5.33334 10.6616C4.5967 10.6641 4.00232 11.2635 4.00522 12.0002C4.00774 12.7329 4.60055 13.3258 5.33334 13.3283H9.32811C10.0647 13.3312 10.6641 12.7368 10.6666 12.0002C10.6696 11.2597 10.0686 10.6587 9.32811 10.6616H5.33334ZM38.6717 10.6616C37.9312 10.6587 37.3303 11.2597 37.3332 12.0002C37.3357 12.7368 37.9351 13.3312 38.6717 13.3283H42.6535C43.3863 13.3258 43.9791 12.7329 43.9816 12.0002C43.9845 11.2635 43.3901 10.6641 42.6535 10.6616H38.6717ZM11.9869 16.7137C11.7188 16.7154 11.4574 16.798 11.237 16.9506L7.24218 19.7058C6.63844 20.1226 6.48483 20.9489 6.89843 21.5548C7.31491 22.1659 8.14921 22.3213 8.7578 21.9011L12.7552 19.146C13.3605 18.729 13.5143 17.9008 13.0989 17.2944C12.8482 16.9277 12.4312 16.7099 11.9869 16.7137ZM35.9269 16.7137C35.5086 16.7333 35.1238 16.9484 34.8879 17.2944C34.4725 17.9008 34.6263 18.729 35.2316 19.146L39.229 21.9011C39.8376 22.3213 40.6719 22.1659 41.0884 21.5548C41.502 20.9489 41.3484 20.1226 40.7446 19.7058L36.7472 16.9506C36.5275 16.7985 36.2671 16.716 35.9998 16.7137C35.9755 16.713 35.9512 16.713 35.9269 16.7137ZM20.2603 20.8413C18.0674 20.8413 16.2656 22.6535 16.2656 24.8464V25.1329H10.6614C8.46851 25.1329 6.66666 26.9452 6.66666 29.1381V41.3333H5.32813C4.59175 41.3362 3.99713 41.9355 4.00001 42.6719C4.00287 43.4042 4.59581 43.9971 5.32813 44H42.6613C43.3977 44.0029 43.9969 43.4082 43.9998 42.6719C44.0027 41.9314 43.4017 41.3304 42.6613 41.3333H41.4113V32.8516C41.4113 30.6587 39.6094 28.8464 37.4165 28.8464H31.7342V24.8464C31.7342 22.6535 29.922 20.8413 27.7291 20.8413H20.2603ZM23.914 27.6433C24.6811 27.595 25.332 28.2054 25.3332 28.974V35.3282C25.3361 36.0648 24.7418 36.6642 24.0051 36.6667C23.2646 36.6696 22.6611 36.0686 22.664 35.3282V31.6511C22.6065 31.6287 22.5512 31.6006 22.4973 31.5704C21.862 31.2002 21.6467 30.3862 22.0155 29.7501L22.8437 28.3048C23.0684 27.9193 23.4685 27.67 23.914 27.6433ZM10.6614 27.7996H16.2656V41.3333H9.33332V29.1381C9.33332 28.3764 9.89969 27.7996 10.6614 27.7996ZM31.7342 31.5131H37.4165C38.1783 31.5131 38.7446 32.0899 38.7446 32.8516V41.3333H31.7342V31.5131Z" fill="#40D9C7"/>
</svg>
