<svg width="48" height="48" viewBox="0 0 48 48" fill="none" xmlns="http://www.w3.org/2000/svg">
<path d="M22.8281 18.3565C22.8281 18.135 22.8281 14.8363 22.8281 14.625C18.2098 15.2077 14.625 19.2237 14.625 24C14.625 28.7762 18.2098 32.7923 22.8281 33.375C22.8281 33.1535 22.8281 29.8548 22.8281 29.6435C21.467 29.1581 20.4844 27.8695 20.4844 26.3438H22.8281C22.8281 26.9903 23.3534 27.5156 24 27.5156C24.6466 27.5156 25.1719 26.9903 25.1719 26.3438C25.1719 25.6972 24.6466 25.1719 24 25.1719C22.0614 25.1719 20.4844 23.5948 20.4844 21.6562C20.4844 20.1305 21.467 18.8419 22.8281 18.3565Z" fill="#40D9C7"/>
<path d="M25.1719 14.625V18.3565C26.533 18.8419 27.5156 20.1305 27.5156 21.6562H25.1719C25.1719 21.0097 24.6466 20.4844 24 20.4844C23.3534 20.4844 22.8281 21.0097 22.8281 21.6562C22.8281 22.3028 23.3534 22.8281 24 22.8281C25.9386 22.8281 27.5156 24.4052 27.5156 26.3438C27.5156 27.8695 26.533 29.1581 25.1719 29.6435V33.375C29.7902 32.7923 33.375 28.7762 33.375 24C33.375 19.2237 29.7902 15.2077 25.1719 14.625Z" fill="#40D9C7"/>
<path d="M18.1406 9.9375H21.6562V12.5174C22.4137 12.3637 23.1972 12.2812 24 12.2812C24.8028 12.2812 25.5863 12.3637 26.3438 12.5174V9.9375H29.8594L24 4L18.1406 9.9375Z" fill="#40D9C7"/>
<path d="M38.1406 11.1094C35.2364 11.1094 32.5908 12.4648 30.8699 14.5449C32.1664 15.4889 33.242 16.6928 34.0601 18.0795C34.881 16.7181 36.4379 15.7969 38.1406 15.7969V19.3125L44 13.4531L38.1406 7.59375V11.1094Z" fill="#40D9C7"/>
<path d="M38.1406 32.2031C36.4379 32.2031 34.881 31.2819 34.0601 29.9206C33.242 31.3073 32.1663 32.5112 30.8699 33.4552C32.5908 35.5352 35.2364 36.8906 38.1406 36.8906V40.4062L44 34.5469L38.1406 28.6875V32.2031Z" fill="#40D9C7"/>
<path d="M24 35.7187C23.1972 35.7187 22.4137 35.6363 21.6562 35.4826V38.0625H18.1406L24 44L29.8594 38.0625H26.3438V35.4826C25.5863 35.6363 24.8028 35.7187 24 35.7187Z" fill="#40D9C7"/>
<path d="M9.85938 36.8906C12.7636 36.8906 15.4092 35.5352 17.1301 33.4551C15.8336 32.5111 14.758 31.3072 13.9399 29.9205C13.119 31.2819 11.5621 32.2031 9.85938 32.2031V28.6875L4 34.5469L9.85938 40.4062V36.8906Z" fill="#40D9C7"/>
<path d="M9.85938 15.7969C11.5621 15.7969 13.119 16.7181 13.9399 18.0794C14.758 16.6927 15.8337 15.4888 17.1301 14.5448C15.4092 12.4648 12.7636 11.1094 9.85938 11.1094V7.59375L4 13.4531L9.85938 19.3125V15.7969Z" fill="#40D9C7"/>
</svg>
