<svg width="48" height="48" viewBox="0 0 48 48" fill="none" xmlns="http://www.w3.org/2000/svg">
<path fill-rule="evenodd" clip-rule="evenodd" d="M10.5986 36.8623L8.0191 34.8054C7.30197 34.232 6.94262 33.4149 7.00746 32.5001L7.86911 20.4807C7.92458 19.5793 8.70811 18.8863 9.6096 18.9418C10.5111 18.9973 11.204 19.7785 11.1485 20.6823L10.7767 26.7693C10.447 26.8732 10.1369 27.0435 9.86427 27.2833C8.81904 28.209 8.71905 29.8214 9.64476 30.8659L13.3874 35.0976C13.5312 35.2593 13.7796 35.2749 13.9413 35.1327L14.0257 35.0577C14.1874 34.9163 14.2007 34.6679 14.0593 34.5062L10.315 30.2722C9.71741 29.5964 9.78146 28.5535 10.4588 27.9536C10.5384 27.8825 10.6251 27.8208 10.7158 27.7677C11.3782 27.3802 12.25 27.4997 12.7773 28.0958L18.7073 34.8007C19.1612 35.3147 19.3846 35.9038 19.3846 36.5896V38.4567V39.2871H11.6165V38.9746C11.6157 38.1247 11.2634 37.3935 10.5986 36.8623ZM20.9736 40.1815H10.0275C9.65569 40.1815 9.35415 40.4846 9.35415 40.8573V43.3266C9.35415 43.6961 9.65569 44 10.0275 44H20.9736C21.3431 44 21.6469 43.6969 21.6469 43.3266V40.8573C21.6469 40.4854 21.3431 40.1815 20.9736 40.1815ZM25.0568 29.1254L24.5545 29.9183C24.3374 30.2597 23.9921 30.4495 23.589 30.4471C23.1859 30.4471 22.8383 30.2565 22.6234 29.9159L22.1274 29.1301C21.8087 28.6254 21.1618 28.4504 20.633 28.727L19.8026 29.1629C19.4463 29.3488 19.0495 29.3402 18.6995 29.1387C18.3519 28.9371 18.148 28.5981 18.1324 28.195L18.0949 27.2669C18.0707 26.6693 17.5965 26.1951 17.0012 26.1709L16.0646 26.1311C15.6615 26.1155 15.3224 25.91 15.1209 25.56C14.9217 25.2124 14.9131 24.8163 15.1006 24.4593L15.5326 23.636C15.8115 23.1087 15.6388 22.4603 15.1342 22.1416L14.3413 21.6392C14.0022 21.4244 13.8124 21.0768 13.8124 20.6737C13.8124 20.2706 14.003 19.9253 14.3436 19.7105L15.1295 19.2144C15.6341 18.8957 15.8091 18.2465 15.5326 17.7177L15.0982 16.8873C14.91 16.5311 14.9186 16.1342 15.1201 15.7866C15.3217 15.4366 15.6607 15.2327 16.0638 15.2171L16.9942 15.1796C17.5902 15.1577 18.066 14.6835 18.0902 14.0859L18.1277 13.1493C18.1433 12.7462 18.3488 12.4095 18.6987 12.208C19.0487 12.0064 19.4424 11.9978 19.7994 12.1861L20.6228 12.6204C21.1501 12.897 21.7985 12.7243 22.1172 12.2197L22.6195 11.4291C22.8344 11.0877 23.182 10.8979 23.5851 10.8979C23.9882 10.8979 24.3335 11.0909 24.5506 11.4314L25.0467 12.2173C25.3654 12.722 26.0122 12.8946 26.5411 12.6181L27.3715 12.1837C27.7277 11.9955 28.1246 12.0041 28.4722 12.2056C28.8222 12.4072 29.0261 12.7462 29.0409 13.1493L29.0784 14.0797C29.1026 14.6749 29.5768 15.1515 30.1721 15.1757L31.1087 15.2132C31.5118 15.2312 31.8508 15.4343 32.0524 15.7842C32.2516 16.1342 32.2602 16.5279 32.0727 16.8849L31.6384 17.7083C31.3618 18.2372 31.5345 18.8863 32.0391 19.2051L32.832 19.7058C33.171 19.923 33.3609 20.2683 33.3609 20.6714C33.3609 21.0744 33.1703 21.4221 32.8297 21.6369L32.0438 22.133C31.5391 22.4517 31.3642 23.1008 31.6407 23.6274L32.075 24.4578C32.2633 24.8163 32.2547 25.2108 32.0532 25.5608C31.8516 25.9084 31.5126 26.1147 31.1095 26.1295L30.1791 26.1647C29.583 26.1889 29.1073 26.6631 29.0831 27.2583L29.0456 28.195C29.0276 28.5981 28.8245 28.9371 28.4745 29.1387C28.1246 29.3402 27.7308 29.3465 27.3738 29.159L26.5505 28.727C26.0247 28.4473 25.3756 28.6223 25.0568 29.1254ZM26.3325 25.4296C28.9612 23.9125 29.8604 20.5534 28.3433 17.927C26.8262 15.3007 23.4695 14.3992 20.8408 15.9163C18.2144 17.4333 17.3153 20.7924 18.8323 23.4188C20.3486 26.0452 23.7062 26.9443 26.3325 25.4296ZM23.5866 8.87696C23.939 8.87696 24.2225 8.59339 24.2225 8.24342V4.63589C24.2225 4.28592 23.939 4 23.5866 4C23.2367 4 22.9531 4.28592 22.9531 4.63589V8.24342C22.9531 8.59339 23.2367 8.87696 23.5866 8.87696ZM16.8239 10.2253C17.0012 10.5284 17.3887 10.6307 17.6894 10.4557C17.9925 10.2808 18.0972 9.89329 17.9199 9.59019L16.1177 6.46778C15.9427 6.16467 15.5552 6.06234 15.2521 6.23733C14.9514 6.41231 14.8467 6.79978 15.0217 7.10288L16.8239 10.2253ZM9.3854 13.2016L12.5078 15.0062C12.8109 15.1788 13.1968 15.0749 13.371 14.7718C13.546 14.4703 13.4398 14.0828 13.1382 13.9102L10.0135 12.1056C9.71194 11.933 9.32447 12.0369 9.15183 12.34C8.9784 12.6415 9.0823 13.029 9.3854 13.2016ZM29.4877 10.4557C29.7885 10.6307 30.1767 10.5268 30.351 10.223L32.1532 7.10054C32.3258 6.79744 32.2219 6.40997 31.9204 6.23654C31.6173 6.06156 31.2298 6.16546 31.0571 6.46934L29.2549 9.59175C29.08 9.89563 29.1846 10.2831 29.4877 10.4557ZM34.667 15.0062L37.7894 13.2016C38.0925 13.029 38.1972 12.6415 38.0222 12.34C37.8496 12.0369 37.4621 11.9322 37.1606 12.1056L34.0358 13.9102C33.7343 14.0828 33.628 14.4703 33.803 14.7718C33.9788 15.0749 34.3639 15.1788 34.667 15.0062ZM25.2162 17.8497C24.9131 17.6747 24.5272 17.7786 24.3522 18.0825L21.7258 22.6329C21.5509 22.936 21.6548 23.3219 21.9586 23.4969C22.2617 23.6719 22.6476 23.5657 22.8219 23.2641L25.4482 18.7114C25.624 18.4098 25.5193 18.0223 25.2162 17.8497ZM22.5656 20.1698C22.2641 20.4714 21.8501 20.6573 21.3899 20.6573C20.9314 20.6573 20.5173 20.4714 20.2166 20.1698C19.9158 19.8691 19.7291 19.4543 19.7291 18.9941C19.7291 18.5356 19.915 18.1216 20.2166 17.8208C20.5181 17.52 20.9322 17.3333 21.3899 17.3333C21.8508 17.3333 22.2649 17.5193 22.5656 17.8208C22.8664 18.1223 23.0531 18.5364 23.0531 18.9941C23.0531 19.455 22.8664 19.8691 22.5656 20.1698ZM21.7813 18.9941C21.7813 18.8879 21.7368 18.7879 21.6665 18.7176C21.5977 18.6489 21.4985 18.6043 21.3899 18.6043C21.2837 18.6043 21.1837 18.6489 21.1134 18.7176C21.0446 18.7887 21.0001 18.8879 21.0001 18.9941C21.0001 19.1027 21.0446 19.2019 21.1134 19.2707C21.1845 19.3418 21.2837 19.3855 21.3899 19.3855C21.4985 19.3855 21.5977 19.341 21.6665 19.2707C21.7376 19.2027 21.7813 19.1027 21.7813 18.9941ZM26.959 23.5227C26.6583 23.8242 26.2435 24.0102 25.7833 24.0102C25.3248 24.0102 24.9108 23.8242 24.61 23.5227C24.3085 23.2235 24.1225 22.8071 24.1225 22.3493C24.1225 21.8916 24.3085 21.4744 24.61 21.176C24.9108 20.8745 25.3256 20.6885 25.7833 20.6885C26.2442 20.6885 26.6583 20.8745 26.959 21.176C27.2606 21.4752 27.4465 21.8916 27.4465 22.3493C27.4465 22.8071 27.2598 23.2235 26.959 23.5227ZM26.1747 22.3493C26.1747 22.2408 26.1302 22.1431 26.0599 22.0728C25.9911 22.0017 25.8919 21.958 25.7833 21.958C25.6771 21.958 25.5771 22.0025 25.5068 22.0728C25.4381 22.1439 25.3935 22.2408 25.3935 22.3493C25.3935 22.4579 25.4381 22.5556 25.5068 22.6259C25.5779 22.697 25.6771 22.7407 25.7833 22.7407C25.8919 22.7407 25.9911 22.6962 26.0599 22.6259C26.131 22.5548 26.1747 22.4579 26.1747 22.3493ZM40.1658 32.5001L39.3065 20.4807C39.251 19.5793 38.4675 18.8863 37.566 18.9418C36.6645 18.9973 35.9716 19.7785 36.0271 20.6823L36.3989 26.7693C36.7286 26.8732 37.0387 27.0435 37.3113 27.2833C38.3566 28.209 38.4566 29.8214 37.5309 30.8659L33.7882 35.0976C33.6444 35.2593 33.396 35.2749 33.2343 35.1327L33.15 35.0577C32.9882 34.9163 32.9726 34.6679 33.1164 34.5062L36.8606 30.2722C37.4582 29.5964 37.3942 28.5535 36.7169 27.9536C36.6372 27.8825 36.5505 27.8208 36.4599 27.7677C35.7974 27.3802 34.9256 27.4997 34.3983 28.0958L28.4683 34.8007C28.0144 35.3147 27.791 35.9038 27.791 36.5896V38.4567V39.2871H35.5591V38.9746C35.5591 38.1239 35.9115 37.3935 36.5755 36.8623L39.155 34.8054C39.8736 34.2312 40.2322 33.4149 40.1658 32.5001ZM37.1473 40.1815H26.2013C25.8318 40.1815 25.5279 40.4846 25.5279 40.8573V43.3266C25.5279 43.6961 25.831 44 26.2013 44H37.1473C37.5168 44 37.8207 43.6969 37.8207 43.3266V40.8573C37.8207 40.4854 37.5168 40.1815 37.1473 40.1815Z" fill="#40D9C7"/>
</svg>
