<svg width="48" height="48" viewBox="0 0 48 48" fill="none" xmlns="http://www.w3.org/2000/svg">
<path d="M20.4026 15.8076C21.4961 16.5394 22.1492 17.7714 22.1492 19.1038V19.4651H25.8505V19.1028C25.8505 17.7784 26.5127 16.54 27.6213 15.7917C29.404 14.5884 30.4684 12.5904 30.4684 10.4481C30.4684 6.94098 27.6069 4.04852 24.0895 4.00092C24.0592 4.00092 24.028 4 23.9977 4C20.4571 4 17.5281 6.82227 17.5315 10.4545C17.533 12.6063 18.6064 14.6076 20.4026 15.8076Z" fill="#40D9C7"/>
<path d="M25.8505 23.5489V21.8589H22.1492V23.5489C22.1492 24.21 22.6868 24.7458 23.3499 24.7458H24.6498C25.3104 24.7458 25.8505 24.2072 25.8505 23.5489Z" fill="#40D9C7"/>
<path d="M34.4392 8.15863L36.3095 6.29431C36.7785 5.82678 36.7785 5.06903 36.3095 4.60181C35.8407 4.13428 35.0803 4.13428 34.6116 4.60181L32.7413 6.46613C32.2723 6.93335 32.2723 7.6911 32.7413 8.15863C33.21 8.62585 33.9705 8.62616 34.4392 8.15863Z" fill="#40D9C7"/>
<path d="M34.7704 18.9051C35.2392 19.3723 35.9993 19.3723 36.4683 18.9051C36.9374 18.4376 36.9374 17.6798 36.4683 17.2123L34.4392 15.1899C33.9705 14.7224 33.21 14.7224 32.7413 15.1899C32.2723 15.6571 32.2723 16.4149 32.7413 16.8824L34.7704 18.9051Z" fill="#40D9C7"/>
<path d="M34.4187 11.8418C34.4187 12.5028 34.9563 13.0387 35.6194 13.0387H37.8405C38.5036 13.0387 39.0412 12.5028 39.0412 11.8418C39.0412 11.1808 38.5036 10.6449 37.8405 10.6449H35.6194C34.9563 10.6449 34.4187 11.1808 34.4187 11.8418Z" fill="#40D9C7"/>
<path d="M13.5608 15.348L11.6905 17.2123C11.2215 17.6798 11.2215 18.4376 11.6905 18.9051C12.1592 19.3723 12.9197 19.3723 13.3884 18.9051L15.2587 17.0408C15.7277 16.5732 15.7277 15.8155 15.2587 15.348C14.79 14.8807 14.0298 14.8807 13.5608 15.348Z" fill="#40D9C7"/>
<path d="M13.5608 8.31702C14.0295 8.78424 14.79 8.78424 15.2587 8.31702C15.7277 7.84949 15.7277 7.09174 15.2587 6.62421L13.2295 4.60181C12.7608 4.13428 12.0003 4.13428 11.5316 4.60181C11.0626 5.06903 11.0626 5.82678 11.5316 6.29431L13.5608 8.31702Z" fill="#40D9C7"/>
<path d="M10.1595 12.8617H12.3806C13.0437 12.8617 13.5813 12.3258 13.5813 11.6648C13.5813 11.0038 13.0437 10.4679 12.3806 10.4679H10.1595C9.49634 10.4679 8.95874 11.0038 8.95874 11.6648C8.95874 12.3258 9.49634 12.8617 10.1595 12.8617Z" fill="#40D9C7"/>
<path d="M42.5778 20.7816C41.6964 20.6797 40.8992 21.3093 40.7973 22.1879L39.8966 26.0773C39.8149 26.4298 39.6137 26.7432 39.3269 26.9648L33.4871 31.4728C32.8543 31.9727 32.2692 31.5714 31.8731 30.9931C31.3997 30.3977 31.5005 29.5325 32.0978 29.0607L33.9536 27.566C34.5534 27.0829 34.6697 26.2171 34.2185 25.5939C33.7344 24.9253 32.7884 24.7947 32.1403 25.3065C30.7902 26.3727 30.1816 26.8531 27.4057 29.0458C26.0048 30.152 25.1708 31.8226 25.1304 33.6036V44H32.2083V38.6887C32.2591 37.8718 32.4391 37.1149 33.0652 36.6202C33.6371 36.1689 37.7637 32.9899 41.0523 30.4169C42.1241 29.5783 42.8567 28.3829 43.1158 27.0496L43.9889 22.5568C44.1117 21.5003 43.1898 20.7816 42.5778 20.7816Z" fill="#40D9C7"/>
<path d="M20.5942 29.0458C17.6828 26.7463 18.0685 27.0511 15.8596 25.3068C15.2112 24.7947 14.2655 24.9253 13.7815 25.5939C13.3302 26.2171 13.4466 27.0832 14.046 27.566L15.9022 29.061C16.4995 29.5325 16.6002 30.3977 16.1269 30.9931C15.6704 31.6129 15.1457 31.973 14.5129 31.4731L8.6731 26.9648C8.38624 26.7432 8.1851 26.4298 8.10336 26.0773L7.20267 22.1882C7.10072 21.3096 6.3032 20.6797 5.42211 20.7816C4.79083 20.7816 3.88983 21.5153 4.01107 22.5568L4.88421 27.0496C5.14321 28.3829 5.87552 29.5783 6.94765 30.4169C10.2363 32.9899 14.3629 36.1689 14.9348 36.6205C15.5608 37.1149 15.7408 37.8721 15.7917 38.6887V44H22.8695V33.6036C22.8288 31.8226 21.9952 30.152 20.5942 29.0458Z" fill="#40D9C7"/>
</svg>
