<svg width="48" height="48" viewBox="0 0 48 48" fill="none" xmlns="http://www.w3.org/2000/svg">
<path d="M36.1569 4.68617V11.8125H43.3107L36.1569 4.68617Z" fill="#40D9C7"/>
<path d="M34.9804 14.1562C34.3307 14.1562 33.8039 13.6316 33.8039 12.9844V4H16.9412C14.9951 4 13.4118 5.57711 13.4118 7.51562V20.6163C13.7994 20.5813 14.1916 20.5625 14.5882 20.5625C18.5983 20.5625 22.188 22.3887 24.5636 25.25H37.3333C37.9831 25.25 38.5098 25.7747 38.5098 26.4219C38.5098 27.0691 37.9831 27.5937 37.3333 27.5937H26.1136C26.8489 29.0231 27.3231 30.6066 27.4754 32.2812H37.3333C37.9831 32.2812 38.5098 32.8059 38.5098 33.4531C38.5098 34.1003 37.9831 34.625 37.3333 34.625H27.4754C27.1235 38.4952 25.0476 41.877 22.0202 44H40.4706C42.4167 44 44 42.4229 44 40.4844V14.1562H34.9804ZM37.3333 20.5625H20.0784C19.4287 20.5625 18.902 20.0378 18.902 19.3906C18.902 18.7434 19.4287 18.2187 20.0784 18.2187H37.3333C37.9831 18.2187 38.5098 18.7434 38.5098 19.3906C38.5098 20.0378 37.9831 20.5625 37.3333 20.5625Z" fill="#40D9C7"/>
<path d="M14.5882 22.9062C8.74988 22.9062 4 27.6376 4 33.4531C4 39.2687 8.74988 44 14.5882 44C20.4266 44 25.1765 39.2687 25.1765 33.4531C25.1765 27.6376 20.4266 22.9062 14.5882 22.9062ZM13.9347 32.2812H15.2419C16.6113 32.2812 17.7255 33.3911 17.7255 34.7552V36.0573C17.7255 37.2427 16.8839 38.2357 15.7647 38.4756V38.9219C15.7647 39.5691 15.238 40.0937 14.5882 40.0937C13.9385 40.0937 13.4118 39.5691 13.4118 38.9219V38.4756C12.2925 38.2357 11.451 37.2427 11.451 36.0573C11.451 35.4101 11.9777 34.8854 12.6275 34.8854C13.2772 34.8854 13.8039 35.4101 13.8039 36.0573C13.8039 36.1291 13.8626 36.1875 13.9347 36.1875H15.2419C15.314 36.1875 15.3726 36.1291 15.3726 36.0573V34.7552C15.3726 34.6834 15.314 34.625 15.2419 34.625H13.9347C12.5652 34.625 11.451 33.5152 11.451 32.151V30.849C11.451 29.6635 12.2925 28.6705 13.4118 28.4306V27.9844C13.4118 27.3372 13.9385 26.8125 14.5882 26.8125C15.238 26.8125 15.7647 27.3372 15.7647 27.9844V28.4306C16.8839 28.6705 17.7255 29.6635 17.7255 30.849C17.7255 31.4962 17.1987 32.0209 16.549 32.0209C15.8993 32.0209 15.3725 31.4962 15.3725 30.849C15.3725 30.7772 15.3139 30.7187 15.2418 30.7187H13.9346C13.8625 30.7187 13.8038 30.7772 13.8038 30.849V32.151C13.8039 32.2228 13.8626 32.2812 13.9347 32.2812Z" fill="#40D9C7"/>
</svg>
