<svg width="48" height="48" viewBox="0 0 48 48" fill="none" xmlns="http://www.w3.org/2000/svg">
<path d="M38.2938 4.00003H18.0647V11.8928C18.0647 12.5399 17.54 13.0646 16.8928 13.0646H9V42.8281C9 43.4753 9.52469 44 10.1719 44H38.2938C38.941 44 39.4657 43.4753 39.4657 42.8281V5.1719C39.4657 4.52472 38.941 4.00003 38.2938 4.00003ZM33.1783 35.8464C33.1783 36.4936 32.6537 37.0183 32.0065 37.0183H27.7878C27.1406 37.0183 26.6159 36.4936 26.6159 35.8464C26.6159 35.1992 27.1406 34.6745 27.7878 34.6745H32.0065C32.6537 34.6745 33.1783 35.1992 33.1783 35.8464ZM27.7878 21.2751C27.1406 21.2751 26.6159 20.7504 26.6159 20.1032C26.6159 19.456 27.1406 18.9313 27.7878 18.9313H32.0065C32.6537 18.9313 33.1783 19.456 33.1783 20.1032C33.1783 20.7504 32.6537 21.2751 32.0065 21.2751H27.7878ZM20.7558 16.5876C21.2277 16.5876 21.678 16.6817 22.0895 16.8511L24.706 13.9221C24.4295 13.4202 24.2719 12.8441 24.2719 12.2317C24.2719 10.2932 25.849 8.71604 27.7875 8.71604C29.726 8.71604 31.3031 10.2932 31.3031 12.2317C31.3031 14.1702 29.726 15.7473 27.7875 15.7473C27.3155 15.7473 26.8653 15.6531 26.4537 15.4838L23.8373 18.4128C24.1137 18.9147 24.2714 19.4908 24.2714 20.1032C24.2714 20.7156 24.1137 21.2917 23.8372 21.7937L26.4537 24.7228C26.8652 24.5534 27.3155 24.4592 27.7874 24.4592C29.7259 24.4592 31.303 26.0363 31.303 27.9749C31.303 29.9134 29.7259 31.4905 27.7874 31.4905C27.3155 31.4905 26.8652 31.3963 26.4537 31.227L23.8372 34.1559C24.1137 34.6579 24.2713 35.234 24.2713 35.8464C24.2713 37.7849 22.6942 39.362 20.7557 39.362C18.8172 39.362 17.2401 37.7849 17.2401 35.8464C17.2401 33.9079 18.8172 32.3308 20.7557 32.3308C21.2276 32.3308 21.6779 32.4249 22.0894 32.5943L24.7059 29.6653C24.4294 29.1634 24.2718 28.5873 24.2718 27.9749C24.2718 27.3624 24.4295 26.7863 24.706 26.2844L22.0895 23.3553C21.678 23.5247 21.2277 23.6188 20.7558 23.6188C18.8173 23.6188 17.2402 22.0417 17.2402 20.1032C17.2402 18.1647 18.8173 16.5876 20.7558 16.5876ZM16.5373 26.803H20.7559C21.4031 26.803 21.9278 27.3277 21.9278 27.9749C21.9278 28.622 21.4031 29.1467 20.7559 29.1467H16.5373C15.8901 29.1467 15.3654 28.622 15.3654 27.9749C15.3654 27.3277 15.8901 26.803 16.5373 26.803Z" fill="#40D9C7"/>
<path d="M14.5875 10.721C15.2339 10.721 15.7582 10.1977 15.7594 9.55135C15.763 7.62307 15.7682 3.98893 15.7571 4.00003L9.03613 10.721H14.5875Z" fill="#40D9C7"/>
<path d="M27.7875 13.4036C28.4347 13.4036 28.9593 12.8789 28.9593 12.2317C28.9593 11.5845 28.4347 11.0599 27.7875 11.0599C27.1403 11.0599 26.6156 11.5845 26.6156 12.2317C26.6156 12.8789 27.1403 13.4036 27.7875 13.4036Z" fill="#40D9C7"/>
<path d="M27.7875 29.1467C28.4347 29.1467 28.9593 28.6221 28.9593 27.9749C28.9593 27.3276 28.4347 26.803 27.7875 26.803C27.1403 26.803 26.6156 27.3276 26.6156 27.9749C26.6156 28.6221 27.1403 29.1467 27.7875 29.1467Z" fill="#40D9C7"/>
<path d="M20.7557 21.2751C21.4029 21.2751 21.9276 20.7504 21.9276 20.1032C21.9276 19.456 21.4029 18.9314 20.7557 18.9314C20.1085 18.9314 19.5839 19.456 19.5839 20.1032C19.5839 20.7504 20.1085 21.2751 20.7557 21.2751Z" fill="#40D9C7"/>
<path d="M20.7557 37.0183C21.4029 37.0183 21.9276 36.4936 21.9276 35.8464C21.9276 35.1992 21.4029 34.6745 20.7557 34.6745C20.1085 34.6745 19.5839 35.1992 19.5839 35.8464C19.5839 36.4936 20.1085 37.0183 20.7557 37.0183Z" fill="#40D9C7"/>
</svg>
