<svg width="48" height="48" viewBox="0 0 48 48" fill="none" xmlns="http://www.w3.org/2000/svg">
<path d="M9.9375 34.1562H12.2812V36.5H9.9375V34.1562Z" fill="#40D9C7"/>
<path d="M12.2812 26.4891L4.80156 28.982C4.32266 29.1414 4 29.5891 4 30.0937V42.8281C4 43.475 4.525 44 5.17188 44H18.2188V24.5094L12.2812 26.4891ZM14.625 37.6719C14.625 38.3187 14.1 38.8437 13.4531 38.8437H8.76562C8.11875 38.8437 7.59375 38.3187 7.59375 37.6719V32.9844C7.59375 32.3375 8.11875 31.8125 8.76562 31.8125H13.4531C14.1 31.8125 14.625 32.3375 14.625 32.9844V37.6719Z" fill="#40D9C7"/>
<path d="M12.4375 4C7.78516 4 4 7.78516 4 12.4375C4 17.0898 7.78516 20.875 12.4375 20.875C17.0898 20.875 20.875 17.0898 20.875 12.4375C20.875 7.78516 17.0898 4 12.4375 4ZM15.532 12.1687L12.5695 15.1305C12.3515 15.3518 12.0414 15.4762 11.7414 15.4742C11.4414 15.4742 11.1414 15.3594 10.9125 15.1305L9.18203 13.4C8.72422 12.9422 8.72422 12.2 9.18203 11.743C9.63906 11.2852 10.3813 11.2852 10.8391 11.743L11.7414 12.6445L13.8742 10.5109C14.332 10.0539 15.0742 10.0539 15.532 10.5109C15.9891 10.9687 15.9891 11.7109 15.532 12.1687Z" fill="#40D9C7"/>
<path d="M31.1094 34.1562H33.4531V44H31.1094V34.1562Z" fill="#40D9C7"/>
<path d="M44 27.9063V42.8281C44 43.475 43.475 44 42.8281 44H35.7969V32.9844C35.7969 32.3375 35.2719 31.8125 34.625 31.8125H29.9375C29.2906 31.8125 28.7656 32.3375 28.7656 32.9844V44H20.5625V20.9031C20.526 20.113 21.3733 19.4919 22.1047 19.7633L43.1984 26.7945C43.6773 26.9539 44 27.4016 44 27.9063Z" fill="#40D9C7"/>
<path d="M41.7523 14.0781H34.4562L34.5898 10.5188C34.6133 9.88906 35.1305 9.39062 35.7609 9.39062H40.4484C41.0789 9.39062 41.5961 9.88906 41.6195 10.5188L41.7523 14.0781Z" fill="#40D9C7"/>
<path d="M42.1211 23.9648L34.1852 21.3195L34.3688 16.4219H41.8399L42.1211 23.9648Z" fill="#40D9C7"/>
</svg>
