<svg width="48" height="48" viewBox="0 0 48 48" fill="none" xmlns="http://www.w3.org/2000/svg">
<path fill-rule="evenodd" clip-rule="evenodd" d="M31.3228 44H16.6538C16.2789 44 15.9508 43.6719 15.9508 43.297V39.7118C15.9508 37.3451 17.8723 35.4236 20.239 35.4236H27.761C30.1043 35.4236 32.0258 37.3451 32.0258 39.7118V43.297C32.0258 43.6719 31.7212 44 31.3228 44Z" fill="#40D9C7"/>
<path fill-rule="evenodd" clip-rule="evenodd" d="M36.853 34.908C34.9081 34.908 33.3146 33.3146 33.3146 31.3697C33.3146 29.4013 34.9081 27.8079 36.853 27.8079C38.8214 27.8079 40.4148 29.4013 40.4148 31.3697C40.4148 33.3146 38.8214 34.908 36.853 34.908ZM23.9883 33.6426C21.8091 33.6426 20.0516 31.8617 20.0516 29.6825C20.0516 27.5032 21.8091 25.7223 23.9883 25.7223C26.1676 25.7223 27.9485 27.5032 27.9485 29.6825C27.9485 31.8617 26.1676 33.6426 23.9883 33.6426ZM11.1471 34.908C9.1787 34.908 7.58527 33.3146 7.58527 31.3697C7.58527 29.4013 9.1787 27.8079 11.1471 27.8079C13.092 27.8079 14.6854 29.4013 14.6854 31.3697C14.6854 33.3146 13.092 34.908 11.1471 34.908Z" fill="#40D9C7"/>
<path fill-rule="evenodd" clip-rule="evenodd" d="M43.297 44H32.5413C32.6585 43.7891 32.7288 43.5313 32.7288 43.297V39.7118C32.7288 38.6104 32.3773 37.5794 31.768 36.7592C32.307 36.478 32.9397 36.314 33.5489 36.314H40.157C42.266 36.314 43.9766 38.048 43.9766 40.157V43.297C44 43.6719 43.6719 44 43.297 44Z" fill="#40D9C7"/>
<path fill-rule="evenodd" clip-rule="evenodd" d="M15.4353 44H4.70299C4.32806 44 4 43.6719 4 43.297V40.157C4 38.048 5.73404 36.314 7.843 36.314H14.4277C15.0603 36.314 15.6696 36.478 16.232 36.7592C15.6227 37.5794 15.2478 38.6104 15.2478 39.7118V43.297C15.2478 43.5313 15.3181 43.7891 15.4353 44Z" fill="#40D9C7"/>
<path fill-rule="evenodd" clip-rule="evenodd" d="M14.3105 25.2537H11.5454C11.1705 25.2537 10.8424 24.949 10.8424 24.5507V23.0744C10.4206 22.9338 10.0223 22.7698 9.6239 22.5589L8.59285 23.6133C8.31166 23.8945 7.86643 23.8945 7.58524 23.6133L5.6403 21.6684C5.38254 21.3872 5.35911 20.942 5.6403 20.6842L6.69479 19.6298C6.48389 19.2314 6.31986 18.833 6.17926 18.4112H4.70299C4.32806 18.4112 4 18.0832 4 17.7083V14.9666C4 14.5682 4.32806 14.2636 4.70299 14.2636H6.17926C6.31986 13.8418 6.48389 13.42 6.69479 13.0451L5.6403 11.9906C5.38254 11.7094 5.38254 11.2642 5.6403 10.983L7.58524 9.0615C7.72583 8.92091 7.88987 8.85061 8.07733 8.85061C8.26479 8.85061 8.45226 8.92091 8.59285 9.0615L9.6239 10.0926C10.0223 9.88166 10.4206 9.71763 10.8424 9.60046V8.10075C10.8424 7.72583 11.1705 7.39777 11.5454 7.39777H14.3105C14.6854 7.39777 15.0135 7.72583 15.0135 8.10075V9.60046C15.4353 9.71763 15.8336 9.88166 16.232 10.0926L17.263 9.0615C17.5442 8.78031 17.9895 8.78031 18.2707 9.0615L20.2156 10.983C20.4733 11.2642 20.4733 11.7094 20.2156 11.9906L19.1611 13.0451C19.372 13.42 19.536 13.8418 19.6766 14.2636H21.1529C21.5278 14.2636 21.8559 14.5682 21.8559 14.9666V17.7083C21.8559 18.0832 21.5278 18.4112 21.1529 18.4112H19.6766C19.536 18.833 19.372 19.2314 19.1611 19.6298L20.2156 20.6842C20.3327 20.8014 20.403 20.9889 20.403 21.1763C20.403 21.3638 20.3327 21.5278 20.2156 21.6684L18.2707 23.6133C17.9895 23.8711 17.5442 23.8711 17.263 23.6133L16.232 22.5589C15.8336 22.7698 15.4353 22.9338 15.0135 23.0744V24.5507C15.0135 24.949 14.6854 25.2537 14.3105 25.2537ZM12.9279 19.7938C14.8494 19.7938 16.396 18.2472 16.396 16.3257C16.396 14.4276 14.8494 12.8576 12.9279 12.8576C11.0064 12.8576 9.45987 14.4276 9.45987 16.3257C9.45987 18.2472 11.0064 19.7938 12.9279 19.7938ZM12.9279 13.6544C14.4042 13.6544 15.6227 14.8494 15.6227 16.3257C15.6227 17.8254 14.4042 19.0205 12.9279 19.0205C11.4517 19.0205 10.2332 17.8254 10.2332 16.3257C10.2332 14.8494 11.4517 13.6544 12.9279 13.6544Z" fill="#40D9C7"/>
<path fill-rule="evenodd" clip-rule="evenodd" d="M35.8688 23.2384H32.8928C32.4945 23.2384 32.1898 22.9104 32.1898 22.5354V20.8717C31.6977 20.7311 31.2291 20.5436 30.7839 20.3093L29.6356 21.4575C29.3544 21.7387 28.9092 21.7387 28.628 21.4575L26.5191 19.372C26.4019 19.2314 26.3082 19.0439 26.3082 18.8565C26.3082 18.669 26.4019 18.505 26.5191 18.3644L27.6907 17.1927C27.4564 16.7475 27.2455 16.3023 27.1049 15.8102H25.4646C25.0662 15.8102 24.7616 15.5056 24.7616 15.1072V12.1312C24.7616 11.7329 25.0662 11.4282 25.4646 11.4282H27.1049C27.2455 10.9361 27.4564 10.4675 27.6907 10.0223L26.5191 8.87405C26.2379 8.59285 26.2379 8.14763 26.5191 7.86643L28.628 5.75747C28.8858 5.49971 29.3544 5.49971 29.6356 5.75747L30.7839 6.92912C31.2291 6.69479 31.6977 6.50732 32.1898 6.34329V4.70299C32.1898 4.32806 32.4945 4 32.8928 4H35.8688C36.2437 4 36.5718 4.32806 36.5718 4.70299V6.34329C37.0404 6.50732 37.5091 6.69479 37.9543 6.92912L39.126 5.75747C39.4072 5.49971 39.8524 5.49971 40.1102 5.75747L42.2191 7.86643C42.5003 8.14763 42.5003 8.59285 42.2191 8.87405L41.0709 10.0223C41.3052 10.4675 41.4927 10.9361 41.6333 11.4282H43.297C43.672 11.4282 44 11.7329 44 12.1312V15.1072C44 15.5056 43.672 15.8102 43.297 15.8102H41.6333C41.4927 16.3023 41.3052 16.7475 41.0709 17.1927L42.2191 18.3644C42.5003 18.6456 42.5003 19.0908 42.2191 19.372L40.1102 21.4575C39.8524 21.7387 39.4072 21.7387 39.126 21.4575L37.9543 20.3093C37.5091 20.5436 37.0404 20.7311 36.5718 20.8717V22.5354C36.5718 22.9104 36.2437 23.2384 35.8688 23.2384ZM34.3691 17.3568C36.4312 17.3568 38.0949 15.6696 38.0949 13.6075C38.0949 11.5688 36.4312 9.88166 34.3691 9.88166C32.3304 9.88166 30.6433 11.5688 30.6433 13.6075C30.6433 15.6696 32.3304 17.3568 34.3691 17.3568ZM34.3691 10.6784C36.0094 10.6784 37.3216 11.9906 37.3216 13.6075C37.3216 15.2478 36.0094 16.56 34.3691 16.56C32.7522 16.56 31.4165 15.2478 31.4165 13.6075C31.4165 11.9906 32.7522 10.6784 34.3691 10.6784Z" fill="#40D9C7"/>
</svg>
