<svg width="48" height="48" viewBox="0 0 48 48" fill="none" xmlns="http://www.w3.org/2000/svg">
<path fill-rule="evenodd" clip-rule="evenodd" d="M12.6558 22.4163L9.35266 21.7583C8.99799 21.6876 8.65014 21.9199 8.57947 22.2745L6.01267 35.159C5.94199 35.5136 6.1743 35.8616 6.52896 35.9321L9.83212 36.5902C10.1867 36.6609 10.5346 36.4285 10.6052 36.0739L13.172 23.1893C13.2427 22.8348 13.0104 22.4869 12.6558 22.4163ZM22.1368 11.9491L23.9376 7.66544L25.7383 11.9492L30.3689 12.3381L26.8513 15.3745L27.9123 19.8985L23.9376 17.4913L19.9628 19.8984L21.0239 15.3744L17.5063 12.338L22.1368 11.9491ZM23.9376 4C18.5352 4 14.1557 8.37956 14.1557 13.7819C14.1557 17.4555 16.1808 20.6562 19.1755 22.3284H20.8709L22.2612 21.1676C23.6634 19.9969 25.571 20.1262 26.9503 21.2642C27.5097 21.7257 28.0506 22.0994 28.5744 22.3972C31.6378 20.7451 33.7195 17.5066 33.7195 13.7819C33.7196 8.37948 29.34 4 23.9376 4ZM24.3723 26.7119C23.9094 26.5272 23.4945 26.4503 23.149 26.4755C22.4523 26.5266 21.9884 26.9794 21.9114 27.6305C21.6995 29.875 21.707 32.0786 19.2169 33.0003L17.9566 27.2248C17.8531 26.7508 18.0769 26.3494 18.4442 26.0428L23.0929 22.1615C24.0118 21.3944 25.2239 21.5165 26.1289 22.2631C28.584 24.2886 31.0273 25.0376 33.6518 24.5568L35.8822 35.7526L34.9962 36.6386C32.3974 34.002 29.5457 30.8273 26.8554 28.3795C25.9374 27.5431 25.0792 26.9939 24.3723 26.7119ZM14.4087 23.6267H19.316L17.6126 25.0489C16.8835 25.6576 16.4809 26.5463 16.6888 27.4986L18.099 33.9605C18.1787 34.328 18.5417 34.5513 18.9285 34.4419C22.6944 33.4961 22.9148 30.9969 23.154 28.2782C23.1693 28.1041 23.1361 27.7763 23.2404 27.7687C23.9098 27.7197 25.2486 28.632 25.9801 29.3351L34.4583 37.9368C34.5628 38.1717 34.596 38.4328 34.5578 38.6862C34.3928 39.7827 33.055 40.1793 32.3014 39.4257L26.4033 33.5276C26.1498 33.2741 25.7388 33.2741 25.4854 33.5276C25.2319 33.7811 25.2319 34.1921 25.4854 34.4456L31.3835 40.3437C31.6419 40.6021 31.7711 40.9436 31.7711 41.2854C31.7711 42.476 30.3328 43.0599 29.5 42.2272L23.2677 35.9949C23.0142 35.7414 22.6032 35.7414 22.3498 35.9949C22.0963 36.2484 22.0963 36.6593 22.3498 36.9128L27.0493 41.6124C28.3231 42.8956 26.3704 44.7004 25.1704 43.5006L20.1321 38.4623C19.8786 38.2088 19.4676 38.2088 19.2142 38.4623C18.9607 38.7158 18.9607 39.1267 19.2142 39.3802L21.556 41.7221C22.8235 42.9899 20.8768 44.8097 19.6724 43.6055L11.964 35.8973L14.4087 23.6267ZM35.2194 22.4163C34.8648 22.4869 34.6325 22.8348 34.7032 23.1894L37.27 36.074C37.3406 36.4286 37.6885 36.6609 38.0431 36.5903L41.3462 35.9322C41.7009 35.8616 41.9332 35.5136 41.8625 35.1591L39.2957 22.2746C39.2251 21.92 38.8772 21.6877 38.5225 21.7583L35.2194 22.4163Z" fill="#40D9C7"/>
</svg>
