<svg width="48" height="48" viewBox="0 0 48 48" fill="none" xmlns="http://www.w3.org/2000/svg">
<path fill-rule="evenodd" clip-rule="evenodd" d="M22 42V27H26V42H28V30H32V42H36C36.2652 42 36.5196 42.1054 36.7071 42.2929C36.8946 42.4804 37 42.7348 37 43C37 43.2652 36.8946 43.5196 36.7071 43.7071C36.5196 43.8946 36.2652 44 36 44H12C11.7348 44 11.4804 43.8946 11.2929 43.7071C11.1054 43.5196 11 43.2652 11 43C11 42.7348 11.1054 42.4804 11.2929 42.2929C11.4804 42.1054 11.7348 42 12 42H16V35H20V42H22ZM5 25.2C5.02634 28.4101 5.86559 31.5612 7.43943 34.3591C9.01326 37.157 11.2703 39.5105 14 41.2V34C14 33.7348 14.1054 33.4804 14.2929 33.2929C14.4804 33.1054 14.7348 33 15 33H16.25C16.4806 32.1483 16.6379 31.2785 16.72 30.4C16.7769 29.9953 16.7769 29.5847 16.72 29.18C16.72 29.06 16.72 28.94 16.6 28.89C16.0984 28.7345 15.5616 28.7345 15.06 28.89C14.22 29.05 13.37 29.29 12.67 29.36C12.0365 29.4685 11.3852 29.3404 10.84 29C10.5435 28.7638 10.3111 28.4569 10.1644 28.1074C10.0176 27.7579 9.96105 27.3771 10 27C9.98485 26.8151 9.89887 26.6431 9.76 26.52C9.46743 26.2488 9.12878 26.0321 8.76 25.88C7.54763 25.4669 6.28025 25.2377 5 25.2ZM34.25 9C36.0654 10.1743 37.6709 11.6447 39 13.35C37.9235 14.3148 36.9485 15.387 36.09 16.55C35.9141 16.9314 35.8384 17.3512 35.87 17.77C35.9183 18.2752 36.0019 18.7764 36.12 19.27C36.1803 19.5235 36.2237 19.7807 36.25 20.04C36.261 20.1364 36.261 20.2336 36.25 20.33C36.0441 20.4716 35.8134 20.5734 35.57 20.63C35.1 20.79 34.57 20.93 34.09 21.1C33.2643 21.3137 32.5498 21.8316 32.09 22.55C31.51 23.72 32.09 24.99 33.2 26.08C33.8911 26.6928 34.6156 27.267 35.37 27.8C35.603 27.9783 35.8266 28.1686 36.04 28.37C36.0533 28.4896 36.0533 28.6104 36.04 28.73C36.04 29.04 35.93 29.4 35.87 29.73C35.6581 30.6525 35.7565 31.6191 36.15 32.48C37.1104 33.8008 38.21 35.0144 39.43 36.1C37.9659 38.0999 36.1289 39.7977 34.02 41.1V29C34.02 28.7348 33.9146 28.4804 33.7271 28.2929C33.5396 28.1054 33.2852 28 33.02 28H28V26C28 25.7348 27.8946 25.4804 27.7071 25.2929C27.5196 25.1054 27.2652 25 27 25H21C20.7348 25 20.4804 25.1054 20.2929 25.2929C20.1054 25.4804 20 25.7348 20 26V33H18.31C18.5941 31.8959 18.7352 30.76 18.73 29.62C18.7607 29.1254 18.6581 28.6316 18.433 28.1901C18.2078 27.7486 17.8684 27.3756 17.45 27.11C16.8495 26.8359 16.1862 26.7288 15.53 26.8C14.6954 26.9113 13.8675 27.0682 13.05 27.27C12.7193 27.3231 12.3849 27.3498 12.05 27.35C12.02 27.2356 12.0032 27.1182 12 27C11.9744 26.4951 11.8217 26.0048 11.556 25.5748C11.2902 25.1447 10.9201 24.7888 10.48 24.54C9.31 23.75 6.54 23.38 5.08 23.24C5.23972 21.5277 5.63339 19.8454 6.25 18.24C7.13 18.52 9.4 19.24 10.25 19.57C10.4634 19.6562 10.6678 19.7634 10.86 19.89C10.9091 19.9235 10.9558 19.9603 11 20C11.0161 20.522 11.1504 21.0335 11.3929 21.496C11.6354 21.9585 11.9798 22.3599 12.4 22.67C13.4344 23.4735 14.6917 23.9379 16 24C17.076 23.9222 18.0926 23.4774 18.88 22.74C20.8649 23.7854 23.1219 24.1989 25.3484 23.9251C27.575 23.6513 29.6646 22.7033 31.3371 21.2082C33.0095 19.7131 34.1849 17.7424 34.7055 15.5603C35.2262 13.3782 35.0672 11.0892 34.25 9ZM40.15 15C39.3189 15.7413 38.5619 16.5619 37.89 17.45C37.82 17.59 37.89 17.79 37.89 18C37.95 18.44 38.08 18.91 38.15 19.36C38.2642 19.7592 38.2811 20.18 38.1994 20.5871C38.1176 20.9942 37.9395 21.3758 37.68 21.7C36.9342 22.2484 36.083 22.6365 35.18 22.84C34.8366 22.9341 34.502 23.0579 34.18 23.21C34.0531 23.2586 33.9422 23.3418 33.86 23.45C33.77 23.62 33.86 23.79 33.98 23.96C34.2999 24.4076 34.6879 24.8024 35.13 25.13C35.91 25.76 36.76 26.33 37.26 26.77C37.5704 27.036 37.8021 27.3818 37.93 27.77C38.0424 28.404 38.022 29.0544 37.87 29.68C37.7948 30.0697 37.7447 30.4639 37.72 30.86C37.6933 31.0925 37.7314 31.3278 37.83 31.54C38.6178 32.596 39.4979 33.5799 40.46 34.48C42.1715 31.5074 43.0464 28.1269 42.9918 24.6972C42.9373 21.2676 41.9552 17.9166 40.15 15ZM24 4C22.22 4 20.4799 4.52784 18.9999 5.51677C17.5198 6.50571 16.3663 7.91131 15.6851 9.55585C15.0039 11.2004 14.8257 13.01 15.1729 14.7558C15.5202 16.5016 16.3774 18.1053 17.636 19.364C18.8947 20.6226 20.4984 21.4798 22.2442 21.8271C23.99 22.1743 25.7996 21.9961 27.4442 21.3149C29.0887 20.6337 30.4943 19.4802 31.4832 18.0001C32.4722 16.5201 33 14.78 33 13C33 10.6131 32.0518 8.32387 30.364 6.63604C28.6761 4.94821 26.3869 4 24 4ZM13.75 9C13.2502 10.2742 12.9957 11.6313 13 13C13.0004 14.6474 13.3709 16.2736 14.084 17.7587C14.7971 19.2437 15.8346 20.5496 17.12 21.58C16.7961 21.8272 16.4065 21.9733 16 22C15.293 21.966 14.6056 21.7563 14 21.39C13.7258 21.2667 13.489 21.0732 13.3135 20.8292C13.1379 20.5852 13.0298 20.2991 13 20C12.9739 19.5739 12.8327 19.1628 12.5914 18.8106C12.3502 18.4584 12.0179 18.1783 11.63 18C10.1526 17.3382 8.62434 16.7965 7.06 16.38C8.60076 13.3735 10.9087 10.8275 13.75 9ZM23 9.05C22.4353 9.16527 21.9278 9.47209 21.5633 9.91855C21.1989 10.365 20.9999 10.9237 21 11.5C21 12.163 21.2634 12.7989 21.7322 13.2678C22.2011 13.7366 22.837 14 23.5 14H24.5C24.6326 14 24.7598 14.0527 24.8536 14.1464C24.9473 14.2402 25 14.3674 25 14.5C25 14.6326 24.9473 14.7598 24.8536 14.8536C24.7598 14.9473 24.6326 15 24.5 15H22C21.7348 15 21.4804 15.1054 21.2929 15.2929C21.1054 15.4804 21 15.7348 21 16C21 16.2652 21.1054 16.5196 21.2929 16.7071C21.4804 16.8946 21.7348 17 22 17H23V18C23 18.2652 23.1054 18.5196 23.2929 18.7071C23.4804 18.8946 23.7348 19 24 19C24.2652 19 24.5196 18.8946 24.7071 18.7071C24.8946 18.5196 25 18.2652 25 18V17C25.4807 16.9023 25.9222 16.6659 26.27 16.32C26.7378 15.8497 27.0003 15.2133 27.0003 14.55C27.0003 13.8867 26.7378 13.2503 26.27 12.78C26.0412 12.5394 25.767 12.3465 25.4632 12.2127C25.1593 12.0788 24.832 12.0065 24.5 12H23.5C23.3674 12 23.2402 11.9473 23.1464 11.8536C23.0527 11.7598 23 11.6326 23 11.5C23 11.3674 23.0527 11.2402 23.1464 11.1464C23.2402 11.0527 23.3674 11 23.5 11H26C26.2652 11 26.5196 10.8946 26.7071 10.7071C26.8946 10.5196 27 10.2652 27 10C27 9.73478 26.8946 9.48043 26.7071 9.29289C26.5196 9.10536 26.2652 9 26 9H25V8C25 7.73478 24.8946 7.48043 24.7071 7.29289C24.5196 7.10536 24.2652 7 24 7C23.7348 7 23.4804 7.10536 23.2929 7.29289C23.1054 7.48043 23 7.73478 23 8V9.05Z" fill="#40D9C7"/>
</svg>
