<svg width="48" height="48" viewBox="0 0 48 48" fill="none" xmlns="http://www.w3.org/2000/svg">
<path d="M12.3891 17.6295L13.9085 18.547L15.428 17.6295C15.8259 17.3893 16.073 16.9514 16.073 16.4867V13.1875H11.7441V16.4868C11.7441 16.9515 11.9912 17.3894 12.3891 17.6295Z" fill="#40D9C7"/>
<path d="M22.5247 37.9112C22.5247 35.0131 23.9946 32.452 26.228 30.9338H9.37742V28.59H29.7843V26.0835H9.37742V23.7398H29.7843V20.588H34.2108V4H4V44H25.1298C23.5253 42.4641 22.5247 40.3024 22.5247 37.9112ZM17.2448 33.4402V35.784H9.37742V33.4402H17.2448ZM18.4167 16.4868C18.4167 17.7673 17.7357 18.974 16.6395 19.636L13.9085 21.285L11.1776 19.6359C10.0814 18.9741 9.40039 17.7673 9.40039 16.4867V10.8437H18.4167V16.4868ZM28.8334 17.875H20.9962V15.5313H28.8334V17.875ZM28.8334 13.1875H20.9962V10.8437H28.8334V13.1875Z" fill="#40D9C7"/>
<path d="M36.7837 43.9989H43.9987V40.4899H38.9838C38.5494 41.8389 37.7842 43.0407 36.7837 43.9989Z" fill="#40D9C7"/>
<path d="M38.7258 34.6372C39.1518 35.6443 39.4627 36.8795 39.3841 38.1462H43.9986V34.6372H38.7258Z" fill="#40D9C7"/>
<path d="M32.1281 28.7845V29.5616C34.147 29.8437 35.9391 30.843 37.2376 32.2934H43.9987V28.7845H32.1281Z" fill="#40D9C7"/>
<path d="M32.1281 22.9317H43.9986V26.4407H32.1281V22.9317Z" fill="#40D9C7"/>
<path d="M30.9561 43.9989C34.3129 43.9989 37.0438 41.268 37.0438 37.9112C37.0438 34.5545 34.3129 31.8236 30.9561 31.8236C27.5993 31.8236 24.8684 34.5545 24.8684 37.9112C24.8684 41.268 27.5993 43.9989 30.9561 43.9989ZM27.8785 36.7394H34.0337V39.0831H27.8785V36.7394Z" fill="#40D9C7"/>
</svg>
