<svg width="48" height="48" viewBox="0 0 48 48" fill="none" xmlns="http://www.w3.org/2000/svg">
<path fill-rule="evenodd" clip-rule="evenodd" d="M36.3549 35.9559H32.9315C32.3614 35.9554 31.8113 35.7456 31.3855 35.3665C30.9597 34.9874 30.6879 34.4653 30.6215 33.899H38.665C38.5985 34.4653 38.3267 34.9874 37.9009 35.3666C37.4751 35.7457 36.925 35.9554 36.3549 35.9559ZM34.6435 21.0834C34.5188 21.0834 34.3968 21.0465 34.2931 20.9772C34.1894 20.908 34.1085 20.8096 34.0606 20.6944C34.0127 20.5793 34 20.4525 34.0242 20.3301C34.0483 20.2078 34.1081 20.0953 34.1961 20.0069C34.284 19.9185 34.3962 19.8581 34.5185 19.8334C34.6407 19.8087 34.7676 19.8208 34.883 19.8681C34.9984 19.9154 35.0971 19.9959 35.1669 20.0993C35.2366 20.2027 35.2741 20.3244 35.2747 20.4491C35.275 20.6169 35.2087 20.7779 35.0903 20.8969C34.972 21.0158 34.8113 21.0829 34.6435 21.0834ZM38.7592 30.8387C38.7081 31.1212 38.6821 31.4077 38.6816 31.6947V31.8302H30.6048V31.6947C30.6047 31.4076 30.5786 31.1211 30.5267 30.8387H38.7592ZM44 20.7324C44.0003 19.1936 43.6211 17.6785 42.896 16.3213C42.1709 14.9641 41.1222 13.8067 39.8429 12.9516C38.5636 12.0965 37.0931 11.5701 35.5618 11.4191C34.0304 11.2681 32.4855 11.4971 31.0638 12.0858C29.6421 12.6745 28.3875 13.6048 27.4113 14.7942C26.435 15.9836 25.7671 17.3955 25.4669 18.9047C25.1666 20.4139 25.2432 21.9738 25.6899 23.4463C26.1365 24.9189 26.9395 26.2585 28.0276 27.3465C28.288 27.6097 28.5644 27.8565 28.8552 28.0856C29.1123 28.2892 29.3481 28.5182 29.5592 28.7692H33.6083V22.9433C33.0312 22.7039 32.5549 22.2719 32.2605 21.7208C31.9661 21.1697 31.8719 20.5336 31.9939 19.9208C32.1159 19.308 32.4466 18.7565 32.9296 18.3602C33.4127 17.9639 34.0181 17.7472 34.6429 17.7472C35.2677 17.7472 35.8732 17.9639 36.3562 18.3602C36.8393 18.7565 37.1699 19.308 37.292 19.9208C37.414 20.5336 37.3198 21.1697 37.0254 21.7208C36.731 22.2719 36.2547 22.7039 35.6776 22.9433V28.7691H39.7272C39.9387 28.5183 40.1747 28.2893 40.4318 28.0855C40.7225 27.8561 40.999 27.6093 41.2599 27.3465C42.1313 26.48 42.8222 25.4493 43.2926 24.314C43.7629 23.1786 44.0034 21.9613 44 20.7324ZM4 6.10625V41.2275C4.00126 41.7859 4.22365 42.3209 4.61849 42.7157C5.01334 43.1104 5.54848 43.3326 6.10679 43.3337H31.5729C32.1312 43.3325 32.6662 43.1102 33.0609 42.7155C33.4556 42.3208 33.6779 41.7858 33.6791 41.2275V38.0251H32.9315C32.0899 38.0248 31.266 37.7833 30.5574 37.3293C30.5136 37.3293 30.4687 37.3354 30.4232 37.3354H8.83992C8.7033 37.3366 8.5678 37.3107 8.44124 37.2592C8.31468 37.2077 8.19956 37.1317 8.10253 37.0355C8.00551 36.9394 7.92849 36.8249 7.87594 36.6988C7.82338 36.5727 7.79632 36.4374 7.79632 36.3008C7.79632 36.1642 7.82338 36.0289 7.87594 35.9028C7.92849 35.7767 8.00551 35.6622 8.10253 35.566C8.19956 35.4699 8.31468 35.3938 8.44124 35.3424C8.5678 35.2909 8.7033 35.265 8.83992 35.2662H28.8534C28.6432 34.7457 28.5355 34.1895 28.5362 33.6281V32.1747H8.83992C8.56552 32.1747 8.30237 32.0657 8.10834 31.8716C7.91431 31.6776 7.80531 31.4145 7.80531 31.1401C7.80531 30.8657 7.91431 30.6025 8.10834 30.4085C8.30237 30.2145 8.56552 30.1054 8.83992 30.1054H27.9805C27.8603 29.9588 27.7235 29.8265 27.5729 29.7113C27.2193 29.432 26.8827 29.1317 26.5651 28.8122C25.8126 28.0613 25.1682 27.2094 24.6505 26.2809H8.83992C8.56552 26.2809 8.30237 26.1719 8.10834 25.9779C7.91431 25.7839 7.80531 25.5207 7.80531 25.2463C7.80531 24.9719 7.91431 24.7088 8.10834 24.5147C8.30237 24.3207 8.56552 24.2117 8.83992 24.2117H23.7555C23.2331 22.5761 23.0861 20.8438 23.3253 19.1436C23.5646 17.4434 24.1841 15.819 25.1376 14.3912C26.0911 12.9633 27.3542 11.7687 28.833 10.8963C30.3118 10.0238 31.9682 9.49587 33.6791 9.35171V6.10625C33.6779 5.54802 33.4556 5.01299 33.0609 4.61826C32.6662 4.22352 32.1312 4.00122 31.5729 4H6.10679C5.54847 4.00109 5.01332 4.22334 4.61847 4.61808C4.22362 5.01283 4.00124 5.54792 4 6.10625ZM13.3786 20.8433C12.7366 20.6935 12.1352 20.4046 11.617 19.9971C11.0988 19.5895 10.6763 19.0732 10.3794 18.4846C10.2571 18.2405 10.2363 17.9579 10.3214 17.6984C10.4064 17.439 10.5906 17.2236 10.8337 17.0993C11.0769 16.9751 11.3593 16.9519 11.6194 17.0348C11.8796 17.1178 12.0964 17.3002 12.2226 17.5423C12.4718 18.0348 12.879 18.4294 13.3789 18.6632V15.9601L12.6758 15.7137C12.1174 15.5196 11.6261 15.17 11.2597 14.7061C10.8934 14.2422 10.6671 13.6833 10.6076 13.0951C10.5481 12.507 10.6578 11.9141 10.9239 11.3862C11.1899 10.8583 11.6012 10.4174 12.1094 10.1153C12.5042 9.88195 12.9322 9.70969 13.3786 9.60437V8.5757C13.3786 8.3013 13.4876 8.03815 13.6816 7.84412C13.8756 7.65009 14.1388 7.54109 14.4132 7.54109C14.6876 7.54109 14.9507 7.65009 15.1448 7.84412C15.3388 8.03815 15.4478 8.3013 15.4478 8.5757V9.59804C16.0889 9.75006 16.6892 10.0398 17.2071 10.4471C17.725 10.8544 18.1481 11.3695 18.4469 11.9567C18.57 12.2008 18.5914 12.4837 18.5065 12.7436C18.4217 13.0035 18.2374 13.2192 17.994 13.3437C17.7506 13.4682 17.4678 13.4912 17.2074 13.4079C16.9471 13.3246 16.7303 13.1416 16.6044 12.8989C16.3547 12.4068 15.9478 12.0123 15.4481 11.7781V14.4878L16.1512 14.7341C16.7094 14.9284 17.2006 15.278 17.5668 15.7419C17.9331 16.2057 18.1593 16.7645 18.2188 17.3525C18.2783 17.9406 18.1687 18.5333 17.9028 19.0612C17.6369 19.589 17.2258 20.0299 16.7178 20.3321C16.3227 20.5655 15.8946 20.7378 15.448 20.8433V21.8655C15.448 22.1399 15.339 22.4031 15.1449 22.5971C14.9509 22.7911 14.6877 22.9001 14.4134 22.9001C14.139 22.9001 13.8758 22.7911 13.6818 22.5971C13.4877 22.4031 13.3787 22.1399 13.3787 21.8655V20.8433H13.3786ZM13.3558 13.7611C13.1674 13.6997 13.0014 13.5838 12.8788 13.4282C12.7562 13.2726 12.6824 13.0841 12.6667 12.8866C12.6418 12.6903 12.676 12.4911 12.7651 12.3144C12.8542 12.1377 12.994 11.9917 13.1667 11.8951C13.2344 11.8528 13.3052 11.8157 13.3785 11.7843V13.7673L13.3558 13.7611ZM15.4712 16.6863C15.6572 16.7513 15.8207 16.8679 15.9426 17.0225C16.0646 17.1772 16.1399 17.3634 16.1596 17.5593C16.1794 17.7553 16.1429 17.9528 16.0543 18.1287C15.9658 18.3046 15.8289 18.4515 15.6597 18.5523C15.5907 18.5893 15.5198 18.6262 15.4478 18.6632V16.6801L15.4712 16.6863Z" fill="#40D9C7"/>
</svg>
