<svg width="48" height="48" viewBox="0 0 48 48" fill="none" xmlns="http://www.w3.org/2000/svg">
<path d="M19.4533 4H10.8594C10.2122 4 9.6875 4.52469 9.6875 5.17187V28.6094C9.6875 29.2566 10.2122 29.7812 10.8594 29.7812H19.4534C21.3919 29.7812 22.969 31.3584 22.969 33.2969V7.51562C22.9689 5.57398 21.3949 4 19.4533 4ZM18.2813 25.0937H14.3751C13.7279 25.0937 13.2032 24.5691 13.2032 23.9219C13.2032 23.2747 13.7279 22.75 14.3751 22.75H18.2813C18.9285 22.75 19.4532 23.2747 19.4532 23.9219C19.4532 24.5691 18.9285 25.0937 18.2813 25.0937ZM18.2813 20.4062H14.3751C13.7279 20.4062 13.2032 19.8816 13.2032 19.2344C13.2032 18.5872 13.7279 18.0625 14.3751 18.0625H18.2813C18.9285 18.0625 19.4532 18.5872 19.4532 19.2344C19.4532 19.8816 18.9285 20.4062 18.2813 20.4062ZM18.2813 15.7187H14.3751C13.7279 15.7187 13.2032 15.1941 13.2032 14.5469C13.2032 13.8997 13.7279 13.375 14.3751 13.375H18.2813C18.9285 13.375 19.4532 13.8997 19.4532 14.5469C19.4532 15.1941 18.9285 15.7187 18.2813 15.7187ZM18.2813 11.0312H14.3751C13.7279 11.0312 13.2032 10.5066 13.2032 9.85937C13.2032 9.21219 13.7279 8.6875 14.3751 8.6875H18.2813C18.9285 8.6875 19.4532 9.21219 19.4532 9.85937C19.4532 10.5066 18.9285 11.0312 18.2813 11.0312Z" fill="#40D9C7"/>
<path d="M19.4533 32.125H10.8594C8.92086 32.125 7.34375 30.5479 7.34375 28.6094V7.90625H6.17188C5.52469 7.90625 5 8.43094 5 9.07812V33.2969C5 33.9441 5.52469 34.4687 6.17188 34.4687H20.6252V33.2969C20.6252 32.6507 20.0995 32.125 19.4533 32.125Z" fill="#40D9C7"/>
<path d="M42.1095 7.90625H40.9377V28.6094C40.9377 30.5479 39.3605 32.125 37.422 32.125H28.8283C28.1821 32.125 27.6565 32.6507 27.6565 33.2969V34.4687H42.1095C42.7567 34.4687 43.2814 33.9441 43.2814 33.2969V9.07812C43.2814 8.43094 42.7567 7.90625 42.1095 7.90625Z" fill="#40D9C7"/>
<path d="M7.73453 36.9687C6.2268 36.9687 5.00016 38.1954 5.00016 39.7031V41.2656C5.00016 42.7734 6.2268 44 7.73453 44H9.68766V36.9687H7.73453Z" fill="#40D9C7"/>
<path d="M12.0314 36.9687H34.6877V44H12.0314V36.9687Z" fill="#40D9C7"/>
<path d="M42.521 39.3871L37.0314 37.3285V43.6402L42.521 41.5816C42.9784 41.4102 43.2814 40.9729 43.2814 40.4844C43.2814 39.9959 42.9784 39.5586 42.521 39.3871Z" fill="#40D9C7"/>
<path d="M37.422 4H35.4689V12.9844C35.4689 13.4166 35.231 13.8137 34.85 14.0176C34.4689 14.2215 34.0066 14.1992 33.647 13.9594L31.9534 12.8302L30.2596 13.9594C30.0635 14.0901 29.8369 14.1562 29.6095 14.1562C29.4199 14.1562 29.2299 14.1102 29.0566 14.0175C28.6756 13.8136 28.4377 13.4165 28.4377 12.9843V4.02211C26.68 4.21648 25.3127 5.70609 25.3127 7.51562V33.2969C25.3127 31.3584 26.8898 29.7812 28.8283 29.7812H37.422C38.0692 29.7812 38.5939 29.2566 38.5939 28.6094V5.17187C38.5939 4.52469 38.0692 4 37.422 4ZM33.9064 25.0937H30.0002C29.353 25.0937 28.8284 24.5691 28.8284 23.9219C28.8284 23.2747 29.353 22.75 30.0002 22.75H33.9064C34.5536 22.75 35.0783 23.2747 35.0783 23.9219C35.0783 24.5691 34.5536 25.0937 33.9064 25.0937ZM33.9064 20.4062H30.0002C29.353 20.4062 28.8284 19.8816 28.8284 19.2344C28.8284 18.5872 29.353 18.0625 30.0002 18.0625H33.9064C34.5536 18.0625 35.0783 18.5872 35.0783 19.2344C35.0783 19.8816 34.5536 20.4062 33.9064 20.4062Z" fill="#40D9C7"/>
<path d="M32.6034 10.4469L33.1252 10.7947V4H30.7815V10.7947L31.3034 10.4468C31.6969 10.1844 32.2097 10.1844 32.6034 10.4469Z" fill="#40D9C7"/>
</svg>
