<svg width="48" height="48" viewBox="0 0 48 48" fill="none" xmlns="http://www.w3.org/2000/svg">
<path d="M22.8281 21.6563V20.8391L21.0234 23.5457L24.5242 25.2955C24.9213 25.4946 25.1719 25.8997 25.1719 26.3438V27.1609L26.9767 24.4543L23.4759 22.7045C23.0788 22.5054 22.8281 22.1003 22.8281 21.6563Z" fill="#40D9C7"/>
<path d="M24 11.1094C16.8921 11.1094 11.1094 16.8921 11.1094 24C11.1094 31.1079 16.8921 36.8906 24 36.8906C31.1079 36.8906 36.8906 31.1079 36.8906 24C36.8906 16.8921 31.1079 11.1094 24 11.1094ZM29.6625 24.65L24.975 31.6813C24.6821 32.1214 24.1391 32.2994 23.6601 32.1527C23.1657 32.0029 22.8281 31.5473 22.8281 31.0312V27.0681L18.7884 25.0483C18.4873 24.8984 18.2665 24.626 18.1795 24.301C18.0937 23.976 18.1509 23.6292 18.3374 23.35L23.0249 16.3187C23.3122 15.8884 23.8466 15.6973 24.3398 15.8473C24.8343 15.9971 25.1719 16.4527 25.1719 16.9688V20.9319L29.2116 22.9517C29.5127 23.1016 29.7335 23.374 29.8205 23.699C29.9063 24.0241 29.8491 24.3708 29.6625 24.65Z" fill="#40D9C7"/>
<path d="M32.3599 40.824L31.188 38.7938C30.8641 38.2331 31.0564 37.5167 31.6172 37.1928C32.1756 36.8667 32.892 37.0601 33.2182 37.622L34.3901 39.6521C34.714 40.2129 34.5217 40.9293 33.9609 41.2531C33.4064 41.5735 32.6874 41.3893 32.3599 40.824Z" fill="#40D9C7"/>
<path d="M14.7818 10.3781L13.6099 8.34798C13.286 7.7872 13.4783 7.0708 14.0391 6.74697C14.5964 6.42197 15.3139 6.61533 15.6401 7.17611L16.8119 9.20627C17.1359 9.76705 16.9436 10.4835 16.3828 10.8073C15.8283 11.1276 15.1093 10.9435 14.7818 10.3781Z" fill="#40D9C7"/>
<path d="M6.74688 33.9609C6.42297 33.4001 6.61524 32.6837 7.17602 32.3599L9.20618 31.188C9.76235 30.863 10.4822 31.0553 10.8072 31.6172C11.1311 32.178 10.9388 32.8944 10.3781 33.2182L8.34789 34.3901C7.79336 34.7104 7.07438 34.5263 6.74688 33.9609Z" fill="#40D9C7"/>
<path d="M37.1927 16.3828C36.8688 15.8221 37.0611 15.1056 37.6219 14.7818L39.652 13.6099C40.2105 13.2838 40.9281 13.4772 41.2531 14.0391C41.577 14.5999 41.3847 15.3163 40.8239 15.6401L38.7938 16.812C38.2392 17.1323 37.5202 16.9482 37.1927 16.3828Z" fill="#40D9C7"/>
<path d="M39.6521 34.3901L37.6219 33.2182C37.0612 32.8943 36.8689 32.178 37.1928 31.6172C37.5155 31.0553 38.2319 30.863 38.7938 31.188L40.824 32.3599C41.3848 32.6838 41.577 33.4001 41.2531 33.9609C40.9261 34.5255 40.2074 34.7108 39.6521 34.3901Z" fill="#40D9C7"/>
<path d="M9.20624 16.812L7.17608 15.6401C6.6153 15.3162 6.42303 14.5999 6.74694 14.0391C7.06967 13.4772 7.78608 13.2838 8.34796 13.6099L10.3781 14.7818C10.9389 15.1057 11.1312 15.8221 10.8073 16.3828C10.48 16.9478 9.76116 17.1325 9.20624 16.812Z" fill="#40D9C7"/>
<path d="M14.0391 41.2531C13.4783 40.9292 13.286 40.2129 13.6099 39.6521L14.7818 37.622C15.1057 37.0601 15.822 36.8667 16.3828 37.1928C16.9436 37.5167 17.1359 38.2331 16.8119 38.7938L15.6401 40.824C15.3131 41.3885 14.5944 41.5739 14.0391 41.2531Z" fill="#40D9C7"/>
<path d="M31.6172 10.8073C31.0564 10.4834 30.8641 9.76705 31.188 9.20627L32.3599 7.17611C32.6838 6.61533 33.4013 6.42197 33.9609 6.74697C34.5217 7.07088 34.714 7.7872 34.3901 8.34798L33.2182 10.3781C32.8912 10.9426 32.1726 11.1281 31.6172 10.8073Z" fill="#40D9C7"/>
<path d="M24 44C23.3523 44 22.8281 43.4759 22.8281 42.8281V40.4062C22.8281 39.7585 23.3523 39.2344 24 39.2344C24.6477 39.2344 25.1719 39.7585 25.1719 40.4062V42.8281C25.1719 43.4759 24.6477 44 24 44Z" fill="#40D9C7"/>
<path d="M24 8.76562C23.3523 8.76562 22.8281 8.24148 22.8281 7.59375V5.17188C22.8281 4.52414 23.3523 4 24 4C24.6477 4 25.1719 4.52414 25.1719 5.17188V7.59375C25.1719 8.24148 24.6477 8.76562 24 8.76562Z" fill="#40D9C7"/>
<path d="M7.59375 25.1719H5.17188C4.52414 25.1719 4 24.6477 4 24C4 23.3523 4.52414 22.8281 5.17188 22.8281H7.59375C8.24148 22.8281 8.76562 23.3523 8.76562 24C8.76562 24.6477 8.24148 25.1719 7.59375 25.1719Z" fill="#40D9C7"/>
<path d="M42.8281 25.1719H40.4062C39.7585 25.1719 39.2344 24.6477 39.2344 24C39.2344 23.3523 39.7585 22.8281 40.4062 22.8281H42.8281C43.4759 22.8281 44 23.3523 44 24C44 24.6477 43.4759 25.1719 42.8281 25.1719Z" fill="#40D9C7"/>
</svg>
