<svg width="48" height="48" viewBox="0 0 48 48" fill="none" xmlns="http://www.w3.org/2000/svg">
<path d="M8.69141 14.5469C8.69141 15.193 9.21711 15.7188 9.86328 15.7188C10.5095 15.7188 11.0352 15.193 11.0352 14.5469V8.6875H8.69141V14.5469Z" fill="#40D9C7"/>
<path d="M7.39883 4.00197C5.49242 4.06509 4 5.67423 4 7.58173V33.2969C4 33.9441 4.52469 34.4688 5.17187 34.4688H6.34375V7.51564C6.34375 6.86845 6.86844 6.34376 7.51562 6.34376H10.833C10.3361 4.94454 8.97789 3.9497 7.39883 4.00197Z" fill="#40D9C7"/>
<path d="M9.85547 18.0623C9.44602 18.0613 9.05305 17.9897 8.6875 17.8595V42.8281C8.6875 43.4753 9.21219 44 9.85938 44H33.2969C33.9441 44 34.4688 43.4753 34.4688 42.8281V18.0625H9.85938C9.85805 18.0625 9.8568 18.0623 9.85547 18.0623ZM22.75 23.2187H28.6094C29.2566 23.2187 29.7812 23.7434 29.7812 24.3906C29.7812 25.0378 29.2566 25.5625 28.6094 25.5625H22.75C22.1028 25.5625 21.5781 25.0378 21.5781 24.3906C21.5781 23.7434 22.1028 23.2187 22.75 23.2187ZM22.75 29.625H28.6094C29.2566 29.625 29.7812 30.1497 29.7812 30.7969C29.7812 31.4441 29.2566 31.9687 28.6094 31.9687H22.75C22.1028 31.9687 21.5781 31.4441 21.5781 30.7969C21.5781 30.1497 22.1028 29.625 22.75 29.625ZM22.75 36.0312H28.6094C29.2566 36.0312 29.7812 36.5559 29.7812 37.2031C29.7812 37.8503 29.2566 38.375 28.6094 38.375H22.75C22.1028 38.375 21.5781 37.8503 21.5781 37.2031C21.5781 36.5559 22.1028 36.0312 22.75 36.0312ZM13.7183 23.5314C14.1759 23.0737 14.9179 23.0737 15.3755 23.5314L15.7642 23.9201L17.3089 22.3753C17.7666 21.9177 18.5086 21.9177 18.9662 22.3753C19.4238 22.833 19.4238 23.5749 18.9662 24.0326L16.5928 26.406C16.1354 26.8634 15.3931 26.8636 14.9355 26.406L13.7182 25.1887C13.2606 24.731 13.2606 23.9891 13.7183 23.5314ZM13.7183 29.9238C14.1759 29.4662 14.9179 29.4662 15.3755 29.9238L15.7642 30.3125L17.2537 28.823C17.7113 28.3653 18.4534 28.3653 18.9109 28.823C19.3686 29.2806 19.3686 30.0226 18.9109 30.4802L16.5928 32.7984C16.1354 33.2558 15.3931 33.256 14.9355 32.7984L13.7182 31.5811C13.2606 31.1234 13.2606 30.3815 13.7183 29.9238ZM13.7183 36.3439C14.1759 35.8862 14.9179 35.8862 15.3755 36.3439L15.7642 36.7326L17.2537 35.243C17.7113 34.7854 18.4534 34.7854 18.9109 35.243C19.3686 35.7007 19.3686 36.4427 18.9109 36.9003L16.5928 39.2185C16.1354 39.6759 15.3931 39.6761 14.9355 39.2185L13.7182 38.0012C13.2606 37.5435 13.2606 36.8016 13.7183 36.3439Z" fill="#40D9C7"/>
<path d="M33.2969 4H12.2028C12.9408 4.98047 13.3789 6.19875 13.3789 7.51758C13.3146 14.5616 13.5295 14.7259 13.1774 15.7188H35.6406C36.2868 15.7188 36.8125 15.193 36.8125 14.5469V7.51562C36.8125 5.57711 35.2354 4 33.2969 4Z" fill="#40D9C7"/>
<path d="M43.9164 22.4326L41.5765 16.5732C41.1843 15.591 39.7931 15.5905 39.4002 16.5726C36.9411 22.7979 36.9725 22.4668 36.9726 22.8674L36.9754 36.908H44V22.8672C44 22.7184 43.9716 22.5709 43.9164 22.4326Z" fill="#40D9C7"/>
<path d="M36.9763 41.2661C36.9766 42.7736 38.2032 44 39.7107 44H41.2657C42.7734 44 44 42.7734 44 41.2656V39.2517H36.9759L36.9763 41.2661Z" fill="#40D9C7"/>
</svg>
