<svg width="48" height="48" viewBox="0 0 48 48" fill="none" xmlns="http://www.w3.org/2000/svg">
<path fill-rule="evenodd" clip-rule="evenodd" d="M38.8591 24.4858C43.0032 28.8543 46.0332 34.5854 42.3271 39.4389C40.6745 41.6032 38.332 42.7619 35.6089 42.7619H29.8202C27.0972 42.7619 24.7538 41.6024 23.102 39.4381C19.3968 34.5838 22.4267 28.8534 26.5709 24.4858C26.8648 24.6049 27.1862 24.6704 27.5223 24.6704H37.9085C38.2437 24.6704 38.5652 24.6049 38.8591 24.4858ZM27.5215 20.8688H37.9077C38.5968 20.8688 39.1611 21.4324 39.1611 22.1223C39.1611 22.8113 38.5968 23.3757 37.9077 23.3757H27.5215C26.8324 23.3757 26.268 22.8121 26.268 22.1223C26.2688 21.4324 26.8324 20.8688 27.5215 20.8688ZM32.0672 27.5377V28.5368C30.8721 28.7466 29.9733 29.7943 29.9733 31.03C29.9733 32.4235 31.1109 33.5611 32.5045 33.5611H32.9255C34.0073 33.5611 34.5838 34.8826 33.7976 35.6688C33.3636 36.1028 32.9036 36.0324 32.332 36.0324C31.9231 36.0324 31.5644 35.8421 31.3288 35.5166C31.119 35.2275 30.715 35.1628 30.4251 35.3725C30.1352 35.5822 30.0713 35.9862 30.281 36.2761C30.6972 36.8518 31.3522 37.2373 32.0664 37.3142V38.2899C32.0664 38.6478 32.3563 38.9377 32.7142 38.9377C33.0721 38.9377 33.3619 38.6478 33.3619 38.2899V37.2907C34.5579 37.081 35.4559 36.0332 35.4559 34.7976C35.4559 33.4041 34.3182 32.2664 32.9247 32.2664H32.5036C31.4227 32.2664 30.8453 30.9449 31.6316 30.1587C32.0656 29.7247 32.5255 29.7951 33.0972 29.7951C33.5061 29.7951 33.8648 29.9854 34.1004 30.3109C34.3101 30.6 34.7142 30.6648 35.0041 30.4551C35.2931 30.2453 35.3579 29.8413 35.1482 29.5514C34.7312 28.9757 34.0769 28.5903 33.3628 28.5134V27.5377C33.3628 27.1798 33.0729 26.8899 32.715 26.8899C32.3571 26.8899 32.0672 27.1806 32.0672 27.5377ZM27.1919 19.5943C27.0688 19.4089 26.9215 19.196 26.7433 18.9409C25.3271 16.9198 25.6146 16.2348 29.0729 17.5134C30.5247 18.0502 29.9134 15.43 32.715 15.43C35.5166 15.43 34.9053 18.0502 36.3571 17.5134C39.8154 16.2348 40.1028 16.9198 38.6866 18.9409C38.5077 19.196 38.3611 19.4089 38.2381 19.5943C38.1304 19.5806 38.0202 19.5733 37.9085 19.5733H27.5215C27.4097 19.5733 27.2996 19.5806 27.1919 19.5943ZM17.481 5V7.71012C15.6931 8.0664 14.03 8.77004 12.5652 9.74737L10.6486 7.82996L6.82996 11.6486L8.74656 13.5652C7.76923 15.03 7.06559 16.6923 6.70931 18.481H4V23.8818H6.70931C7.06559 25.6696 7.76923 27.3328 8.74656 28.7976L6.82996 30.7142L10.6486 34.5328L12.5652 32.6162C14.03 33.5935 15.6923 34.2972 17.481 34.6534V37.3628H20.5587C19.8672 35.2016 20.0526 32.9036 20.9271 30.6162C18.0737 30.8389 15.396 29.779 13.4899 27.8737C9.79433 24.1781 9.79433 18.1862 13.4899 14.4899C17.1854 10.7943 23.1773 10.7943 26.8737 14.4899C27.2696 14.8858 27.6308 15.3166 27.9514 15.7773C28.3879 15.8907 28.8089 16.0372 29.1749 16.17C29.8429 15.0494 30.6785 14.3692 32.0049 14.1822C31.881 13.9733 31.7514 13.7676 31.617 13.566L33.5336 11.6486L29.715 7.82996L27.7976 9.74737C26.3328 8.77004 24.6704 8.0664 22.8826 7.71012V5H17.481ZM19.5336 15.9417V16.902C18.3668 17.1134 17.4923 18.1385 17.4923 19.3458C17.4923 20.7126 18.6081 21.8292 19.9757 21.8292C20.4567 21.8292 20.8348 21.7895 21.2243 22.179C21.9806 22.9352 21.4251 24.2057 20.3854 24.2057C19.7806 24.2057 19.2583 24.2834 18.8429 23.7093C18.6332 23.4202 18.2292 23.3555 17.9393 23.5652C17.6502 23.7749 17.5854 24.179 17.7951 24.4688C18.2008 25.0292 18.8372 25.4065 19.532 25.4858V26.4219C19.532 26.7798 19.8219 27.0696 20.1798 27.0696C20.5377 27.0696 20.8275 26.7798 20.8275 26.4219V25.4615C21.9943 25.2502 22.8688 24.2251 22.8688 23.0178C22.8688 21.651 21.7522 20.5344 20.3854 20.5344C19.9045 20.5344 19.5263 20.5741 19.1368 20.1846C18.3806 19.4283 18.936 18.1579 19.9749 18.1579C20.5798 18.1579 21.102 18.0802 21.5174 18.6543C21.7271 18.9433 22.1312 19.0081 22.4211 18.7984C22.7101 18.5887 22.7749 18.1846 22.5652 17.8947C22.1595 17.3344 21.5231 16.9571 20.8283 16.8777V15.9417C20.8283 15.5838 20.5385 15.2939 20.1806 15.2939C19.8235 15.2939 19.5336 15.5838 19.5336 15.9417ZM25.9571 15.4057C22.7676 12.2162 17.5951 12.2162 14.4057 15.4057C11.2162 18.5951 11.2162 23.7676 14.4057 26.9571C16.2372 28.7887 18.8688 29.6826 21.5352 29.2381C22.5344 27.2348 23.9684 25.3587 25.5255 23.7036C24.6389 22.5879 24.8421 20.9692 25.9717 20.1004C25.5474 19.4785 25.0664 18.8526 24.8041 18.1231C24.3684 16.9117 24.8988 15.8041 26.1547 15.6097C26.0899 15.5409 26.0243 15.4729 25.9571 15.4057Z" fill="#40D9C7"/>
</svg>
