<svg width="48" height="48" viewBox="0 0 48 48" fill="none" xmlns="http://www.w3.org/2000/svg">
<path d="M39.1641 32.5299L33.3222 35.8171C33.2519 34.3421 32.6436 33.2198 30.059 33.0267H24.0633L19.4126 31.5617C19.3493 31.5416 19.2832 31.5314 19.2167 31.5315H13.4511V30.4378C13.4512 30.353 13.4344 30.269 13.4018 30.1907C13.3692 30.1124 13.3214 30.0412 13.2611 29.9812C13.2009 29.9213 13.1293 29.8738 13.0505 29.8413C12.9718 29.8089 12.8874 29.7923 12.8021 29.7923H4.649C4.56376 29.7922 4.47934 29.8089 4.40058 29.8413C4.32182 29.8738 4.25025 29.9213 4.18998 29.9812C4.1297 30.0412 4.0819 30.1124 4.0493 30.1907C4.0167 30.269 3.99995 30.353 4 30.4378V42.8709C3.99995 42.9557 4.0167 43.0397 4.0493 43.118C4.0819 43.1963 4.1297 43.2675 4.18998 43.3275C4.25025 43.3874 4.32182 43.435 4.40058 43.4674C4.47934 43.4998 4.56376 43.5165 4.649 43.5164H12.8021C12.8874 43.5165 12.9718 43.4998 13.0505 43.4674C13.1293 43.435 13.2009 43.3874 13.2611 43.3275C13.3214 43.2675 13.3692 43.1963 13.4018 43.118C13.4344 43.0397 13.4512 42.9557 13.4511 42.8709V42.0374C14.1498 41.5828 15.0309 41.1717 15.7385 41.4022L24.3498 43.6198C25.487 43.9851 26.6927 44.089 27.876 43.9236C29.0594 43.7581 30.1896 43.3277 31.1814 42.6648L43.6823 35.2701C43.828 35.184 43.934 35.0448 43.9779 34.882C44.0217 34.7192 43.9998 34.5459 43.9168 34.3989C42.2766 31.4974 40.2491 31.9746 39.1641 32.5299ZM30.5077 41.5617C29.6699 42.1321 28.7111 42.5027 27.7059 42.6448C26.7007 42.7868 25.6761 42.6963 24.7117 42.3805L16.1048 40.1648C15.6594 40.0479 15.195 40.0214 14.7391 40.0867C14.2832 40.152 13.8452 40.3079 13.4511 40.5451V32.8224H19.1166L23.7673 34.2874C23.8306 34.3075 23.8967 34.3177 23.9632 34.3176L30.0102 34.3157C31.814 34.4513 32.0808 34.9537 32.0358 36.2913H24.1825C24.0104 36.2913 23.8453 36.3593 23.7236 36.4803C23.6019 36.6014 23.5335 36.7656 23.5335 36.9368C23.5335 37.108 23.6019 37.2721 23.7236 37.3932C23.8453 37.5142 24.0104 37.5822 24.1825 37.5822H32.6499C32.7595 37.5675 32.8668 37.5393 32.9694 37.4984L39.7795 33.6658C40.5064 33.2952 41.4463 33.0821 42.449 34.4979L30.5077 41.5617Z" fill="white"/>
<path d="M12.4136 28.4761H15.3449C15.4302 28.4762 15.5146 28.4595 15.5933 28.4271C15.6721 28.3947 15.7437 28.3471 15.8039 28.2872C15.8642 28.2272 15.912 28.156 15.9446 28.0777C15.9772 27.9994 15.994 27.9154 15.9939 27.8306V25.3477H16.8722C17.4619 26.9915 18.6261 28.3698 20.1524 29.2311C21.6788 30.0924 23.4655 30.3793 25.1868 30.0396C26.9081 29.6998 28.4493 28.756 29.5292 27.3803C30.6092 26.0046 31.1559 24.2886 31.0698 22.5453C30.9836 20.8021 30.2703 19.1477 29.0599 17.8839C27.8495 16.6201 26.2227 15.8312 24.4762 15.661C22.7297 15.4908 20.9799 15.9506 19.5458 16.9566C18.1118 17.9626 17.0891 19.4478 16.6643 21.1413H15.9939V18.6583C15.994 18.5735 15.9772 18.4896 15.9446 18.4112C15.912 18.3329 15.8642 18.2617 15.8039 18.2018C15.7437 18.1418 15.6721 18.0943 15.5933 18.0619C15.5146 18.0294 15.4302 18.0128 15.3449 18.0128H12.4136C12.3284 18.0128 12.244 18.0294 12.1652 18.0619C12.0864 18.0943 12.0149 18.1418 11.9546 18.2018C11.8943 18.2617 11.8465 18.3329 11.8139 18.4112C11.7813 18.4896 11.7646 18.5735 11.7646 18.6583V21.1413H9.26808C9.18284 21.1412 9.09842 21.1579 9.01966 21.1903C8.9409 21.2227 8.86933 21.2703 8.80906 21.3302C8.74878 21.3902 8.70098 21.4614 8.66838 21.5397C8.63578 21.618 8.61903 21.702 8.61908 21.7868V24.7022C8.61903 24.787 8.63578 24.8709 8.66838 24.9492C8.70098 25.0276 8.74878 25.0988 8.80906 25.1587C8.86933 25.2187 8.9409 25.2662 9.01966 25.2986C9.09842 25.331 9.18284 25.3477 9.26808 25.3477H11.7646V27.8306C11.7645 27.9154 11.7813 27.9994 11.8139 28.0777C11.8465 28.156 11.8943 28.2272 11.9546 28.2872C12.0148 28.3471 12.0864 28.3947 12.1652 28.4271C12.2439 28.4595 12.3284 28.4762 12.4136 28.4761ZM23.7566 16.9173C24.8387 16.9167 25.901 17.2065 26.8314 17.7561C27.7619 18.3057 28.526 19.0947 29.0433 20.0401C29.5607 20.9854 29.812 22.052 29.7709 23.1276C29.7298 24.2031 29.3978 25.2476 28.8098 26.1512C28.2218 27.0547 27.3996 27.7838 26.4299 28.2615C25.4602 28.7393 24.3789 28.948 23.2999 28.8658C22.2209 28.7835 21.1842 28.4133 20.299 27.7941C19.4138 27.175 18.713 26.3298 18.2703 25.3477H18.4898C18.575 25.3477 18.6594 25.331 18.7382 25.2986C18.8169 25.2662 18.8885 25.2187 18.9488 25.1587C19.0091 25.0988 19.0569 25.0276 19.0895 24.9492C19.1221 24.8709 19.1388 24.787 19.1388 24.7022V21.7868C19.1388 21.702 19.1221 21.618 19.0895 21.5397C19.0569 21.4614 19.0091 21.3902 18.9488 21.3302C18.8885 21.2703 18.8169 21.2227 18.7382 21.1903C18.6594 21.1579 18.575 21.1412 18.4898 21.1413H18.0088C18.386 19.918 19.148 18.8474 20.1827 18.0871C21.2174 17.3267 22.4701 16.9166 23.7566 16.9173Z" fill="white"/>
<path d="M4.649 14.8447H6.70059V16.8851C6.70054 16.9699 6.71729 17.0539 6.74989 17.1322C6.78249 17.2105 6.83029 17.2817 6.89057 17.3417C6.95084 17.4016 7.02241 17.4491 7.10117 17.4816C7.17993 17.514 7.26435 17.5307 7.34959 17.5306H9.86638C9.95162 17.5307 10.036 17.514 10.1148 17.4816C10.1936 17.4491 10.2651 17.4016 10.3254 17.3417C10.3857 17.2817 10.4335 17.2105 10.4661 17.1322C10.4987 17.0539 10.5154 16.9699 10.5154 16.8851V14.8447H12.567C12.6522 14.8447 12.7366 14.828 12.8154 14.7956C12.8941 14.7632 12.9657 14.7157 13.026 14.6557C13.0863 14.5958 13.1341 14.5246 13.1667 14.4462C13.1993 14.3679 13.216 14.284 13.216 14.1992V11.6954C13.216 11.6106 13.1993 11.5267 13.1667 11.4483C13.1341 11.37 13.0863 11.2988 13.026 11.2389C12.9657 11.1789 12.8941 11.1314 12.8154 11.0989C12.7366 11.0665 12.6522 11.0499 12.567 11.0499H10.5154V9.01008C10.5154 8.9253 10.4987 8.84134 10.4661 8.763C10.4335 8.68466 10.3857 8.61349 10.3254 8.55354C10.2651 8.49359 10.1936 8.44605 10.1148 8.41362C10.036 8.3812 9.95162 8.36454 9.86638 8.36459H7.34959C7.26435 8.36454 7.17993 8.3812 7.10117 8.41362C7.02241 8.44605 6.95084 8.49359 6.89057 8.55354C6.83029 8.61349 6.78249 8.68466 6.74989 8.763C6.71729 8.84134 6.70054 8.9253 6.70059 9.01008V11.0499H4.649C4.56376 11.0499 4.47934 11.0665 4.40058 11.0989C4.32182 11.1314 4.25025 11.1789 4.18998 11.2389C4.1297 11.2988 4.0819 11.37 4.0493 11.4483C4.0167 11.5267 3.99995 11.6106 4 11.6954V14.1992C3.99995 14.284 4.0167 14.3679 4.0493 14.4462C4.0819 14.5246 4.1297 14.5958 4.18998 14.6557C4.25025 14.7157 4.32182 14.7632 4.40058 14.7956C4.47934 14.828 4.56376 14.8447 4.649 14.8447Z" fill="white"/>
<path d="M15.9324 14.365H16.8958V15.3231C16.8958 15.4943 16.9641 15.6585 17.0859 15.7795C17.2076 15.9006 17.3726 15.9686 17.5448 15.9686C17.7169 15.9686 17.882 15.9006 18.0037 15.7795C18.1254 15.6585 18.1938 15.4943 18.1938 15.3231V14.365H19.1572C19.3293 14.365 19.4944 14.2969 19.6161 14.1759C19.7378 14.0548 19.8062 13.8907 19.8062 13.7195C19.8062 13.5483 19.7378 13.3841 19.6161 13.263C19.4944 13.142 19.3293 13.074 19.1572 13.074H18.1938V12.1165C18.1938 11.9453 18.1254 11.7811 18.0037 11.66C17.882 11.539 17.7169 11.471 17.5448 11.471C17.3726 11.471 17.2076 11.539 17.0859 11.66C16.9641 11.7811 16.8958 11.9453 16.8958 12.1165V13.074H15.9324C15.7603 13.074 15.5952 13.142 15.4735 13.263C15.3518 13.3841 15.2834 13.5483 15.2834 13.7195C15.2834 13.8907 15.3518 14.0548 15.4735 14.1759C15.5952 14.2969 15.7603 14.365 15.9324 14.365Z" fill="white"/>
<path d="M32.5124 20.5828C32.5663 20.69 32.6491 20.7802 32.7517 20.8433C32.8542 20.9063 32.9724 20.9396 33.093 20.9396H35.6345L35.625 30.3161C35.6249 30.4009 35.6417 30.4849 35.6742 30.5633C35.7068 30.6417 35.7546 30.7129 35.8149 30.7729C35.8752 30.8329 35.9467 30.8805 36.0255 30.913C36.1043 30.9455 36.1887 30.9622 36.274 30.9623H40.1578C40.2431 30.9623 40.3275 30.9456 40.4063 30.9132C40.485 30.8808 40.5566 30.8333 40.6169 30.7733C40.6771 30.7134 40.725 30.6422 40.7575 30.5639C40.7901 30.4855 40.8069 30.4016 40.8069 30.3168V20.9396H43.3509C43.4715 20.9396 43.5897 20.9062 43.6922 20.8431C43.7948 20.7801 43.8777 20.6899 43.9315 20.5826C43.9854 20.4753 44.0082 20.3552 43.9974 20.2358C43.9865 20.1164 43.9424 20.0023 43.87 19.9064L38.7407 13.1156C38.6776 13.0395 38.5983 12.9781 38.5086 12.936C38.4188 12.894 38.3208 12.8721 38.2216 12.8721C38.1224 12.8721 38.0244 12.894 37.9347 12.936C37.8449 12.9781 37.7656 13.0395 37.7025 13.1156L32.5739 19.9064C32.5016 20.0024 32.4575 20.1165 32.4466 20.2359C32.4358 20.3554 32.4586 20.4755 32.5124 20.5828Z" fill="white"/>
<path d="M21.1802 12.3434H23.8548L23.8618 13.9332C23.8624 14.1039 23.9311 14.2675 24.0527 14.388C24.1744 14.5085 24.3391 14.5761 24.5108 14.5761H28.4885C28.6584 14.5761 28.8215 14.5098 28.9429 14.3915C29.0642 14.2731 29.1341 14.1122 29.1375 13.9432L29.1685 12.3434H31.8552C31.9757 12.3434 32.0939 12.31 32.1965 12.247C32.299 12.1839 32.3819 12.0937 32.4358 11.9864C32.4897 11.8791 32.5125 11.7591 32.5016 11.6396C32.4908 11.5202 32.4466 11.4061 32.3742 11.3102L27.0364 4.24395C26.9734 4.16767 26.8942 4.10624 26.8044 4.06406C26.7147 4.02188 26.6166 4 26.5174 4C26.4181 4 26.3201 4.02188 26.2303 4.06406C26.1406 4.10624 26.0613 4.16767 25.9983 4.24395L20.6611 11.3102C20.5887 11.4061 20.5446 11.5202 20.5337 11.6396C20.5229 11.7591 20.5457 11.8791 20.5995 11.9864C20.6534 12.0937 20.7363 12.1839 20.8389 12.247C20.9414 12.31 21.0596 12.3434 21.1802 12.3434Z" fill="white"/>
<path d="M23.7319 23.5455C24.9544 23.5455 25.0635 23.698 25.0635 24.1342C25.0635 24.9945 23.0032 24.9088 22.6804 24.4916C22.5752 24.356 22.4201 24.2676 22.2493 24.2457C22.0785 24.2238 21.9059 24.2704 21.7696 24.375C21.6333 24.4797 21.5444 24.6339 21.5224 24.8038C21.5004 24.9737 21.5471 25.1453 21.6524 25.2808C22.0469 25.7056 22.5842 25.9721 23.1627 26.0301V26.5409C23.1627 26.7121 23.2311 26.8763 23.3528 26.9973C23.4745 27.1184 23.6396 27.1864 23.8117 27.1864C23.9838 27.1864 24.1489 27.1184 24.2706 26.9973C24.3923 26.8763 24.4607 26.7121 24.4607 26.5409V26.0327C25.5671 25.8563 26.3614 25.1903 26.3614 24.1342C26.3614 22.2545 24.519 22.2545 23.7318 22.2545C22.5568 22.2545 22.5568 21.9948 22.5568 21.6657C22.5568 20.7958 24.5665 20.9295 24.9164 21.2787C25.0307 21.4067 25.1914 21.4843 25.3632 21.4944C25.5351 21.5045 25.7039 21.4463 25.8325 21.3326C25.9612 21.2189 26.0392 21.0591 26.0494 20.8882C26.0595 20.7173 26.001 20.5494 25.8867 20.4214C25.4931 20.0609 24.993 19.8364 24.4607 19.7814V19.2597C24.4607 19.0885 24.3923 18.9243 24.2706 18.8032C24.1489 18.6822 23.9838 18.6142 23.8117 18.6142C23.6396 18.6142 23.4745 18.6822 23.3528 18.8032C23.2311 18.9243 23.1627 19.0885 23.1627 19.2597V19.7733C21.8628 19.9697 21.2588 20.755 21.2588 21.6657C21.2588 23.5455 23.1202 23.5455 23.7319 23.5455Z" fill="white"/>
</svg>
