<svg width="48" height="48" viewBox="0 0 48 48" fill="none" xmlns="http://www.w3.org/2000/svg">
<path d="M35.9655 43.0248L39.1283 39.8621H35.9655V43.0248Z" fill="white"/>
<path d="M35.9655 6.75862H19.4138V8.13793H35.9655V6.75862Z" fill="white"/>
<path d="M14.7545 32.0379C14.6895 31.963 14.6414 31.8749 14.6136 31.7797C14.5857 31.6845 14.5787 31.5844 14.5931 31.4862L14.8745 29.5172L12.4607 32.9655H13.8966C13.9967 32.9655 14.0957 32.9874 14.1866 33.0296C14.2775 33.0717 14.3581 33.1332 14.4228 33.2096C14.4875 33.2861 14.5348 33.3758 14.5613 33.4723C14.5879 33.5689 14.5931 33.6702 14.5766 33.769L14.3352 35.2172L16.6241 32.2759H15.2759C15.177 32.2759 15.0792 32.2547 14.9893 32.2136C14.8993 32.1726 14.8193 32.1126 14.7545 32.0379Z" fill="white"/>
<path d="M22.1724 32.2759C22.1724 30.7755 21.7275 29.3087 20.8939 28.0612C20.0603 26.8136 18.8755 25.8413 17.4893 25.2671C16.1031 24.6929 14.5778 24.5427 13.1062 24.8354C11.6346 25.1281 10.2829 25.8507 9.22195 26.9116C8.161 27.9726 7.43849 29.3243 7.14577 30.7959C6.85305 32.2674 7.00329 33.7928 7.57747 35.179C8.15165 36.5652 9.12399 37.75 10.3715 38.5836C11.6191 39.4171 13.0858 39.8621 14.5862 39.8621C16.5975 39.8597 18.5257 39.0597 19.9478 37.6375C21.37 36.2153 22.17 34.2871 22.1724 32.2759ZM18.5786 32.0097L13.751 38.2166C13.6567 38.3375 13.5248 38.4235 13.3761 38.4611C13.2274 38.4986 13.0705 38.4856 12.9301 38.4239C12.7896 38.3623 12.6738 38.2556 12.6007 38.1208C12.5277 37.9859 12.5017 37.8306 12.5269 37.6793L13.0786 34.3448H11.1379C11.0118 34.3448 10.8882 34.3101 10.7804 34.2447C10.6726 34.1792 10.5848 34.0855 10.5266 33.9737C10.4684 33.8618 10.4419 33.7362 10.4501 33.6103C10.4583 33.4845 10.5009 33.3633 10.5731 33.26L15.4007 26.3634C15.4896 26.2365 15.6188 26.1432 15.7672 26.0986C15.9157 26.054 16.0749 26.0608 16.219 26.1178C16.3632 26.1748 16.484 26.2786 16.5618 26.4127C16.6397 26.5467 16.6702 26.7031 16.6483 26.8566L16.071 30.8966H18.0345C18.1636 30.8966 18.2901 30.9329 18.3996 31.0012C18.5091 31.0696 18.5972 31.1673 18.6539 31.2833C18.7106 31.3993 18.7336 31.5289 18.7203 31.6573C18.707 31.7857 18.6579 31.9078 18.5786 32.0097Z" fill="white"/>
<path d="M15.2759 4V23.3455C16.7215 23.4549 18.1185 23.9164 19.3448 24.6897H38.7241V26.069H21.0407C21.4476 26.4921 21.8121 26.9541 22.129 27.4483H38.7241V28.8276H22.8621C23.0462 29.2747 23.1938 29.736 23.3035 30.2069H38.7241V31.5862H23.5166C23.5345 31.8145 23.5517 32.0428 23.5517 32.2759C23.5517 32.509 23.5345 32.7372 23.5166 32.9655H38.7241V34.3448H23.3014C23.1924 34.8157 23.0455 35.277 22.8621 35.7241H38.7241V37.1034H22.129C21.3818 38.2707 20.374 39.2487 19.1848 39.9606C17.9957 40.6725 16.6576 41.0989 15.2759 41.2062V44H34.5862V39.1724C34.5862 38.9895 34.6589 38.8141 34.7882 38.6848C34.9175 38.5554 35.093 38.4828 35.2759 38.4828H40.1035V4H15.2759ZM18.0345 8.82759V6.06897C18.0345 5.88606 18.1071 5.71064 18.2365 5.58131C18.3658 5.45197 18.5412 5.37931 18.7241 5.37931H36.6552C36.8381 5.37931 37.0135 5.45197 37.1428 5.58131C37.2722 5.71064 37.3448 5.88606 37.3448 6.06897V8.82759C37.3448 9.01049 37.2722 9.18591 37.1428 9.31525C37.0135 9.44458 36.8381 9.51724 36.6552 9.51724H18.7241C18.5412 9.51724 18.3658 9.44458 18.2365 9.31525C18.1071 9.18591 18.0345 9.01049 18.0345 8.82759ZM21.4828 16.4138C22.1533 16.413 22.8011 16.6569 23.3046 17.0998C23.8081 17.5427 24.1326 18.1541 24.2173 18.8193C24.3019 19.4845 24.1409 20.1578 23.7644 20.7127C23.3879 21.2676 22.8218 21.666 22.1724 21.8331V23.3103H20.7931V21.8331C20.2027 21.6807 19.6794 21.3369 19.305 20.8555C18.9307 20.3741 18.7264 19.7822 18.7241 19.1724H20.1035C20.1035 19.4452 20.1843 19.7119 20.3359 19.9387C20.4875 20.1655 20.7029 20.3423 20.9549 20.4467C21.207 20.5511 21.4843 20.5784 21.7519 20.5252C22.0194 20.472 22.2652 20.3406 22.4581 20.1477C22.651 19.9548 22.7823 19.7091 22.8356 19.4415C22.8888 19.1739 22.8615 18.8966 22.7571 18.6446C22.6527 18.3925 22.4759 18.1771 22.2491 18.0256C22.0222 17.874 21.7556 17.7931 21.4828 17.7931C20.8122 17.7939 20.1644 17.55 19.6609 17.1071C19.1574 16.6642 18.8329 16.0528 18.7483 15.3876C18.6636 14.7224 18.8246 14.0491 19.2011 13.4942C19.5776 12.9393 20.1437 12.5409 20.7931 12.3738V10.8966H22.1724V12.3738C22.7629 12.5262 23.2862 12.87 23.6605 13.3514C24.0348 13.8328 24.2391 14.4247 24.2414 15.0345H22.8621C22.8621 14.7617 22.7812 14.495 22.6296 14.2682C22.4781 14.0414 22.2626 13.8646 22.0106 13.7602C21.7586 13.6558 21.4812 13.6285 21.2137 13.6817C20.9461 13.7349 20.7003 13.8663 20.5074 14.0592C20.3145 14.2521 20.1832 14.4978 20.13 14.7654C20.0767 15.033 20.104 15.3103 20.2084 15.5623C20.3128 15.8144 20.4896 16.0298 20.7165 16.1813C20.9433 16.3329 21.21 16.4138 21.4828 16.4138ZM38.7241 21.931H26.3103V20.5517H38.7241V21.931ZM38.7241 19.1724H26.3103V17.7931H38.7241V19.1724ZM38.7241 16.4138H26.3103V15.0345H38.7241V16.4138ZM38.7241 13.6552H26.3103V12.2759H38.7241V13.6552Z" fill="white"/>
</svg>
