<svg width="48" height="48" viewBox="0 0 48 48" fill="none" xmlns="http://www.w3.org/2000/svg">
<path d="M15.082 24.5973V23.5692H14.0539C13.7262 23.5692 13.4605 23.3035 13.4605 22.9759C13.4605 22.6482 13.7262 22.3826 14.0539 22.3826H15.082V21.3544C15.082 21.0267 15.3477 20.7611 15.6754 20.7611C16.0031 20.7611 16.2688 21.0268 16.2688 21.3544V22.3826H17.2969C17.6246 22.3826 17.8903 22.6482 17.8903 22.9759C17.8903 23.3035 17.6246 23.5692 17.2969 23.5692H16.2688V24.5973C16.2688 24.925 16.0031 25.1906 15.6754 25.1906C15.3477 25.1906 15.082 24.9249 15.082 24.5973ZM5.50197 21.0756H6.5301V22.1038C6.5301 22.4315 6.79578 22.6971 7.12349 22.6971C7.4512 22.6971 7.71688 22.4314 7.71688 22.1038V21.0756H8.74501C9.07272 21.0756 9.3384 20.8099 9.3384 20.4823C9.3384 20.1547 9.07272 19.889 8.74501 19.889H7.71688V18.8608C7.71688 18.5331 7.4512 18.2675 7.12349 18.2675C6.79578 18.2675 6.5301 18.5332 6.5301 18.8608V19.889H5.50197C5.17426 19.889 4.90859 20.1547 4.90859 20.4823C4.90859 20.8099 5.17426 21.0756 5.50197 21.0756ZM6.90485 12.4468H7.93298V13.4749C7.93298 13.8026 8.19866 14.0682 8.52637 14.0682C8.85408 14.0682 9.11976 13.8025 9.11976 13.4749V12.4468H10.1503C10.478 12.4468 10.7437 12.1811 10.7437 11.8535C10.7437 11.5258 10.478 11.2601 10.1503 11.2601H9.11976V10.2296C9.11976 9.90185 8.85408 9.63626 8.52637 9.63626C8.19866 9.63626 7.93298 9.90193 7.93298 10.2296V11.2601H6.90485C6.57714 11.2601 6.31146 11.5258 6.31146 11.8535C6.31146 12.1811 6.57714 12.4468 6.90485 12.4468ZM11.9399 16.3504H12.968V17.3785C12.968 17.7062 13.2337 17.9718 13.5614 17.9718C13.8891 17.9718 14.1548 17.7061 14.1548 17.3785V16.3504H15.183C15.5107 16.3504 15.7763 16.0847 15.7763 15.7571C15.7763 15.4295 15.5107 15.1638 15.183 15.1638H14.1548V14.1356C14.1548 13.8079 13.8891 13.5423 13.5614 13.5423C13.2337 13.5423 12.968 13.808 12.968 14.1356V15.1638H11.9399C11.6122 15.1638 11.3465 15.4295 11.3465 15.7571C11.3465 16.0847 11.6122 16.3504 11.9399 16.3504ZM15.0244 7.80804H16.0549V8.83863C16.0549 9.16634 16.3206 9.43193 16.6483 9.43193C16.976 9.43193 17.2417 9.16626 17.2417 8.83863V7.80804H18.2698C18.5975 7.80804 18.8632 7.54236 18.8632 7.21474C18.8632 6.88711 18.5975 6.62144 18.2698 6.62144H17.2417V5.5933C17.2417 5.26559 16.976 5 16.6483 5C16.3206 5 16.0549 5.26568 16.0549 5.5933V6.62144H15.0244C14.6967 6.62144 14.431 6.88711 14.431 7.21474C14.431 7.54236 14.6967 7.80804 15.0244 7.80804ZM14.1989 41.2701C14.4552 41.7157 14.3019 42.2879 13.8575 42.5455L11.6527 43.8184C11.2069 44.075 10.636 43.9222 10.3798 43.4771L4.1241 32.6425C4.0002 32.4288 3.96774 32.1779 4.03274 31.936C4.09774 31.6941 4.25164 31.4923 4.46621 31.368L6.67163 30.097C6.88536 29.9731 7.13561 29.9403 7.3762 30.0046C7.61773 30.0692 7.81925 30.2234 7.94358 30.4389L14.1989 41.2701ZM7.21112 32.8998L6.75714 32.1143C6.66324 31.9519 6.45527 31.8961 6.29282 31.9902C6.13028 32.0841 6.07468 32.292 6.16858 32.4546L6.62256 33.2401C6.68553 33.3491 6.79977 33.4099 6.91722 33.4099C6.97493 33.4099 7.03341 33.3952 7.08697 33.3642C7.24951 33.2703 7.30502 33.0624 7.21112 32.8998ZM25.9474 19.3097C24.9973 18.3608 24.4741 17.0991 24.4742 15.7571C24.4742 14.4151 24.9973 13.1534 25.9475 12.2044C26.8964 11.2555 28.1582 10.7329 29.5003 10.7329C30.8424 10.7329 32.1042 11.2555 33.0531 12.2044C34.002 13.1533 34.5246 14.415 34.5246 15.7571C34.5246 17.0992 34.002 18.361 33.0531 19.3099L33.0529 19.31C32.104 20.26 30.8423 20.7832 29.5003 20.7832C28.1583 20.7832 26.8966 20.26 25.9474 19.3097ZM27.8667 14.6457C27.8661 15.0429 28.0424 15.4139 28.3636 15.6907C28.7591 16.0301 29.1517 16.067 29.4671 16.0967C29.7426 16.1227 29.9601 16.1431 30.1918 16.3419C30.3593 16.4854 30.4515 16.6722 30.4515 16.8681C30.4515 17.0639 30.3592 17.2508 30.1918 17.3944C29.8162 17.7164 29.1817 17.7163 28.8061 17.3944C28.6394 17.2515 28.5477 17.0642 28.5477 16.8669C28.5477 16.6792 28.3955 16.527 28.2077 16.527C28.02 16.527 27.8678 16.6792 27.8678 16.8669C27.8678 17.2659 28.0438 17.6365 28.3637 17.9105C28.5934 18.1075 28.8704 18.2322 29.1602 18.2871V18.9761C29.1602 19.1638 29.3124 19.3161 29.5001 19.3161C29.6878 19.3161 29.84 19.1638 29.84 18.9761V18.2866C30.1289 18.2316 30.405 18.107 30.6342 17.9106C30.9547 17.6359 31.1312 17.2656 31.1312 16.8682C31.1312 16.4707 30.9547 16.1006 30.6343 15.826C30.2388 15.4866 29.8462 15.4497 29.5308 15.42C29.2554 15.394 29.0378 15.3736 28.8068 15.1754C28.6387 15.0305 28.5462 14.8427 28.5465 14.6467C28.5468 14.4518 28.639 14.2656 28.8069 14.1217C29.182 13.7983 29.8159 13.7983 30.1918 14.1223C30.3585 14.2651 30.4503 14.4516 30.4503 14.6473C30.4503 14.8351 30.6025 14.9873 30.7902 14.9873C30.9779 14.9873 31.1301 14.8351 31.1301 14.6473C31.1301 14.25 30.9541 13.8801 30.635 13.6068C30.4057 13.409 30.1293 13.2837 29.8401 13.2284V12.5407C29.8401 12.3529 29.6879 12.2007 29.5002 12.2007C29.3125 12.2007 29.1603 12.3529 29.1603 12.5407V13.2278C28.8704 13.2828 28.5934 13.4082 28.3638 13.6062C28.0438 13.8804 27.8672 14.2497 27.8667 14.6459V14.6457ZM43.6985 29.2977C43.0767 28.2216 41.6955 27.8518 40.6197 28.4733L30.3404 34.4092C29.2832 35.0191 28.8899 35.156 28.1379 34.9576L27.012 34.6603C27.0109 34.6601 27.0097 34.66 27.0085 34.6596L19.7322 32.733C19.5507 32.685 19.4425 32.4989 19.4906 32.3174C19.5385 32.136 19.7249 32.0277 19.9061 32.0758L27.1538 33.9949C27.1545 33.9951 27.1552 33.9951 27.1558 33.9952L27.1593 33.9962C28.196 34.2692 29.2198 33.6871 29.4912 32.67C29.7677 31.6394 29.1535 30.5762 28.122 30.2993L18.4796 27.7145C18.4731 27.7128 18.4668 27.7109 18.4603 27.7088C17.8611 27.5098 17.0939 27.5863 16.5513 27.8992L9.58535 31.9224L13.7344 39.1067L14.9579 38.4014C15.7284 37.9546 16.2167 38.0314 16.9498 38.1934C16.9547 38.1945 16.9595 38.1957 16.9644 38.197L26.5782 40.7722C27.3511 40.9795 28.1615 40.872 28.8596 40.4697L42.874 32.3791C43.9499 31.7574 44.3198 30.375 43.6985 29.2975V29.2977ZM19.99 14.8493C19.7915 14.5311 19.8647 14.1174 20.1607 13.8869L22.105 12.3679C22.4034 12.133 22.5802 11.8248 22.6301 11.454L22.9737 9.01338C23.0248 8.651 23.3322 8.38507 23.6945 8.38507C23.7033 8.38507 23.7119 8.38524 23.7206 8.38558L26.1882 8.47211C26.5643 8.48397 26.8983 8.36338 27.1789 8.11118L29.0117 6.46084C29.2903 6.21008 29.7089 6.20991 29.9856 6.46016L31.8217 8.11126C32.1021 8.36321 32.4346 8.4849 32.8128 8.47202L35.2774 8.3855C35.6486 8.37117 35.9722 8.64236 36.0244 9.01321L36.368 11.4546C36.4216 11.8298 36.5995 12.1374 36.8964 12.3686L38.8394 13.8866C39.135 14.1181 39.2079 14.5315 39.0081 14.849L37.7013 16.9415C37.5037 17.2581 37.4403 17.6174 37.5179 17.9802L38.0317 20.391C38.1086 20.7578 37.8987 21.1218 37.5436 21.2374L35.1958 21.9992C34.8415 22.1152 34.5623 22.3505 34.3889 22.679L33.2308 24.8559C33.0555 25.1868 32.661 25.3303 32.3133 25.19L30.0266 24.2652C29.6766 24.1233 29.3216 24.1232 28.9716 24.2652L26.6844 25.1902C26.3385 25.3305 25.9439 25.1864 25.767 24.8554L24.6096 22.6799C24.4325 22.3446 24.1606 22.1154 23.8014 21.9988L21.4551 21.2377C21.0994 21.1212 20.8901 20.7578 20.9685 20.3917L21.4801 17.9804C21.5596 17.6084 21.4975 17.2583 21.2967 16.9414L19.99 14.8492V14.8493ZM23.7944 15.757C23.7944 17.2808 24.3883 18.7133 25.4666 19.7904C26.5439 20.869 27.9765 21.4629 29.5003 21.4629C31.0241 21.4629 32.4565 20.8689 33.5337 19.7905C34.6111 18.7133 35.2044 17.2807 35.2044 15.757C35.2044 14.2333 34.6111 12.8008 33.5337 11.7235C32.4565 10.6463 31.024 10.0529 29.5003 10.0529C27.9766 10.0529 26.5441 10.6463 25.4669 11.7235C24.3883 12.8007 23.7944 14.2333 23.7944 15.757Z" fill="white"/>
</svg>
