<svg width="48" height="48" viewBox="0 0 48 48" fill="none" xmlns="http://www.w3.org/2000/svg">
<path d="M24 26.5C25.3807 26.5 26.5 25.3807 26.5 24C26.5 22.6193 25.3807 21.5 24 21.5C22.6193 21.5 21.5 22.6193 21.5 24C21.5 25.3807 22.6193 26.5 24 26.5Z" fill="white"/>
<path d="M31.2375 22.075L28.9875 24.325C28.9252 25.2841 28.5877 26.2049 28.0155 26.9771C27.4433 27.7493 26.6607 28.3402 25.7613 28.679C24.8618 29.0178 23.8838 29.0902 22.9444 28.8874C22.0049 28.6847 21.1438 28.2154 20.4642 27.5358C19.7846 26.8562 19.3153 25.9951 19.1125 25.0556C18.9097 24.1161 18.9821 23.1381 19.3209 22.2387C19.6597 21.3393 20.2506 20.5566 21.0229 19.9844C21.7951 19.4122 22.7159 19.0748 23.675 19.0125L25.925 16.7625C25.2986 16.5861 24.6507 16.4978 24 16.5C22.5166 16.5 21.0666 16.9398 19.8332 17.764C18.5998 18.5881 17.6385 19.7594 17.0709 21.1298C16.5032 22.5003 16.3547 24.0083 16.6441 25.4631C16.9335 26.918 17.6478 28.2544 18.6967 29.3033C19.7456 30.3521 21.0819 31.0665 22.5368 31.3558C23.9916 31.6452 25.4996 31.4967 26.8701 30.929C28.2405 30.3614 29.4119 29.4001 30.236 28.1667C31.0601 26.9334 31.5 25.4833 31.5 24C31.5021 23.3492 31.4138 22.7014 31.2375 22.075Z" fill="white"/>
<path d="M36.4374 22.7C35.6375 23.0216 34.7528 23.0657 33.9249 22.825C33.9752 23.2146 34.0003 23.6071 33.9999 24C33.9999 25.9778 33.4135 27.9112 32.3146 29.5557C31.2158 31.2001 29.6541 32.4819 27.8268 33.2387C25.9995 33.9956 23.9889 34.1937 22.0491 33.8078C20.1093 33.422 18.3274 32.4695 16.9289 31.071C15.5304 29.6725 14.578 27.8907 14.1921 25.9509C13.8063 24.0111 14.0043 22.0004 14.7612 20.1731C15.5181 18.3459 16.7998 16.7841 18.4443 15.6853C20.0888 14.5865 22.0222 14 24 14C24.3928 13.9997 24.7853 14.0247 25.175 14.075C24.917 13.2502 24.9568 12.361 25.2875 11.5625C24.8625 11.525 24.4375 11.5 24 11.5C21.5277 11.5 19.111 12.2331 17.0553 13.6066C14.9997 14.9801 13.3976 16.9324 12.4515 19.2164C11.5054 21.5005 11.2579 24.0138 11.7402 26.4386C12.2225 28.8633 13.413 31.0906 15.1611 32.8388C16.9093 34.5869 19.1366 35.7774 21.5613 36.2598C23.9861 36.7421 26.4994 36.4945 28.7835 35.5484C31.0676 34.6023 33.0198 33.0002 34.3933 30.9446C35.7668 28.889 36.4999 26.4722 36.4999 24C36.4999 23.5625 36.4749 23.125 36.4374 22.7Z" fill="white"/>
<path d="M42.6749 16.875L38.6749 20.875C39.344 24.0342 38.9742 27.3249 37.6206 30.2567C36.2671 33.1886 34.0023 35.6045 31.1638 37.1443C28.3254 38.684 25.0653 39.2653 21.8696 38.8013C18.6739 38.3374 15.7137 36.8531 13.4303 34.5697C11.1469 32.2863 9.66263 29.3261 9.19867 26.1304C8.73471 22.9347 9.31596 19.6746 10.8557 16.8362C12.3955 13.9977 14.8114 11.7329 17.7433 10.3794C20.6751 9.02581 23.9658 8.656 27.125 9.32505L31.125 5.32506C28.8533 4.44336 26.4368 3.99398 24 4.00006C20.0444 4.00006 16.1776 5.17304 12.8886 7.37066C9.59961 9.56829 7.03617 12.6919 5.52242 16.3464C4.00867 20.0009 3.6126 24.0222 4.3843 27.9018C5.15601 31.7814 7.06082 35.3451 9.85786 38.1421C12.6549 40.9392 16.2186 42.844 20.0982 43.6157C23.9778 44.3874 27.9991 43.9913 31.6536 42.4776C35.3081 40.9638 38.4317 38.4004 40.6293 35.1114C42.827 31.8224 43.9999 27.9556 43.9999 24C44.006 21.5632 43.5566 19.1467 42.6749 16.875Z" fill="white"/>
<path d="M43.2968 11.9937C43.2663 11.7991 43.1901 11.6144 43.0746 11.4548C42.9591 11.2952 42.8075 11.1651 42.6322 11.0752L40.0271 9.74049L41.1337 8.63374C41.2531 8.51843 41.3483 8.3805 41.4138 8.228C41.4793 8.07549 41.5138 7.91147 41.5153 7.7455C41.5167 7.57952 41.4851 7.41492 41.4222 7.2613C41.3594 7.10768 41.2665 6.96812 41.1492 6.85075C41.0318 6.73339 40.8922 6.64057 40.7386 6.57772C40.585 6.51487 40.4204 6.48324 40.2544 6.48468C40.0885 6.48612 39.9244 6.52061 39.7719 6.58612C39.6194 6.65163 39.4815 6.74686 39.3662 6.86625L38.2594 7.97287L36.9249 5.36775C36.8351 5.19237 36.705 5.04072 36.5454 4.92518C36.3858 4.80963 36.2011 4.73346 36.0064 4.70288C35.8118 4.67231 35.6126 4.68819 35.4253 4.74923C35.2379 4.81027 35.0676 4.91474 34.9283 5.05412L27.8738 12.1085C27.6868 12.2955 27.5638 12.537 27.5227 12.7982C27.4816 13.0595 27.5244 13.3271 27.645 13.5625L29.3473 16.8851L24.3662 21.8662C24.2468 21.9815 24.1516 22.1195 24.0861 22.272C24.0206 22.4245 23.9861 22.5885 23.9847 22.7545C23.9832 22.9204 24.0148 23.085 24.0777 23.2387C24.1405 23.3923 24.2334 23.5318 24.3507 23.6492C24.4681 23.7666 24.6077 23.8594 24.7613 23.9222C24.9149 23.9851 25.0795 24.0167 25.2455 24.0153C25.4114 24.0138 25.5755 23.9794 25.728 23.9138C25.8805 23.8483 26.0184 23.7531 26.1337 23.6337L31.115 18.6526L34.4374 20.355C34.6729 20.4754 34.9404 20.5181 35.2016 20.477C35.4628 20.4359 35.7043 20.313 35.8913 20.1261L42.9457 13.0716C43.0851 12.9324 43.1896 12.7621 43.2506 12.5748C43.3116 12.3875 43.3275 12.1884 43.2968 11.9937Z" fill="white"/>
</svg>
