<svg width="48" height="48" viewBox="0 0 48 48" fill="none" xmlns="http://www.w3.org/2000/svg">
<path fill-rule="evenodd" clip-rule="evenodd" d="M28 43.81C26.3982 42.9735 25.025 41.7583 24 40.27C23.445 40.7497 22.7335 41.0094 22 41H14C13.2044 41 12.4413 40.6839 11.8787 40.1213C11.3161 39.5587 11 38.7956 11 38V34C11 33.2043 11.3161 32.4413 11.8787 31.8787C12.4413 31.3161 13.2044 31 14 31H22C22.1365 30.9901 22.2735 30.9901 22.41 31C22.9215 29.1919 23.8877 27.545 25.2164 26.2164C26.5451 24.8877 28.1919 23.9215 30 23.41C30 17.78 30 13 30 13C30 12.2043 29.6839 11.4413 29.1213 10.8787C28.5587 10.3161 27.7957 9.99999 27 9.99999H26C26 9.20434 25.6839 8.44128 25.1213 7.87867C24.5587 7.31606 23.7957 6.99999 23 6.99999H21V6.49999C21.0013 6.17131 20.9376 5.84563 20.8124 5.54172C20.6872 5.23781 20.5031 4.96168 20.2707 4.72927C20.0383 4.49686 19.7622 4.31277 19.4583 4.1876C19.1544 4.06243 18.8287 3.99867 18.5 3.99999H17.5C17.1713 3.99867 16.8456 4.06243 16.5417 4.1876C16.2378 4.31277 15.9617 4.49686 15.7293 4.72927C15.4969 4.96168 15.3128 5.23781 15.1876 5.54172C15.0624 5.84563 14.9987 6.17131 15 6.49999V6.99999H13C12.2044 6.99999 11.4413 7.31606 10.8787 7.87867C10.3161 8.44128 10 9.20434 10 9.99999H9C8.20435 9.99999 7.44129 10.3161 6.87868 10.8787C6.31607 11.4413 6 12.2043 6 13V41C6 41.7956 6.31607 42.5587 6.87868 43.1213C7.44129 43.6839 8.20435 44 9 44H27C27.3415 43.9922 27.6794 43.928 28 43.81ZM33 25C34.78 25 36.5201 25.5278 38.0001 26.5168C39.4802 27.5057 40.6337 28.9113 41.3149 30.5558C41.9961 32.2004 42.1743 34.01 41.8271 35.7558C41.4798 37.5016 40.6226 39.1053 39.364 40.3639C38.1053 41.6226 36.5016 42.4798 34.7558 42.8271C33.01 43.1743 31.2004 42.9961 29.5559 42.3149C27.9113 41.6337 26.5057 40.4802 25.5168 39.0001C24.5278 37.5201 24 35.78 24 34C24 31.613 24.9482 29.3239 26.636 27.636C28.3239 25.9482 30.6131 25 33 25ZM34.75 38.33C35.7286 37.8253 36.5495 37.0611 37.1228 36.1209C37.696 35.1808 37.9995 34.1011 38 33C38 32.7348 37.8946 32.4804 37.7071 32.2929C37.5196 32.1053 37.2652 32 37 32C36.7348 32 36.4804 32.1053 36.2929 32.2929C36.1054 32.4804 36 32.7348 36 33C35.9997 33.7328 35.7981 34.4515 35.4172 35.0775C35.0363 35.7035 34.4907 36.2129 33.84 36.55V36.45C33.9109 36.3322 33.9567 36.201 33.9746 36.0646C33.9926 35.9283 33.9821 35.7897 33.9441 35.6576C33.906 35.5254 33.8411 35.4026 33.7534 35.2967C33.6657 35.1907 33.5571 35.104 33.4344 35.042C33.3117 34.9799 33.1775 34.9439 33.0402 34.936C32.9029 34.9282 32.7655 34.9488 32.6365 34.9964C32.5075 35.0441 32.3897 35.1179 32.2905 35.2131C32.1913 35.3084 32.1129 35.423 32.06 35.55L31.06 37.55C30.9414 37.7862 30.9211 38.0597 31.0035 38.3108C31.086 38.5619 31.2645 38.7701 31.5 38.89L33.5 39.89C33.7362 40.0086 34.0097 40.0289 34.2608 39.9465C34.5119 39.864 34.7201 39.6855 34.84 39.45C34.9322 39.2709 34.9681 39.0682 34.9431 38.8683C34.9181 38.6685 34.8334 38.4809 34.7 38.33H34.75ZM22.41 37H13V38C13 38.2652 13.1054 38.5196 13.2929 38.7071C13.4804 38.8946 13.7348 39 14 39H22C22.1952 39.0007 22.3863 38.9442 22.5498 38.8376C22.7132 38.731 22.8419 38.5789 22.92 38.4C22.7189 37.9453 22.5485 37.4775 22.41 37ZM32.16 31.45V31.55C32.0891 31.6678 32.0433 31.799 32.0254 31.9353C32.0075 32.0717 32.0179 32.2103 32.0559 32.3424C32.094 32.4745 32.1589 32.5974 32.2466 32.7033C32.3343 32.8092 32.4429 32.8959 32.5656 32.958C32.6883 33.02 32.8225 33.0561 32.9598 33.0639C33.0971 33.0718 33.2346 33.0512 33.3635 33.0035C33.4925 32.9559 33.6103 32.8821 33.7095 32.7869C33.8087 32.6916 33.8871 32.5769 33.94 32.45L34.94 30.45C35.0586 30.2138 35.0789 29.9403 34.9965 29.6892C34.914 29.4381 34.7355 29.2299 34.5 29.11L32.5 28.11C32.2638 27.9914 31.9903 27.9711 31.7392 28.0535C31.4881 28.136 31.2799 28.3145 31.16 28.55C31.0678 28.7291 31.0319 28.9318 31.0569 29.1316C31.0819 29.3315 31.1666 29.5191 31.3 29.67C30.312 30.1678 29.4809 30.9291 28.8985 31.8697C28.3162 32.8104 28.0052 33.8937 28 35C28 35.2652 28.1054 35.5196 28.2929 35.7071C28.4804 35.8946 28.7348 36 29 36C29.2652 36 29.5196 35.8946 29.7071 35.7071C29.8946 35.5196 30 35.2652 30 35C30.0003 34.2672 30.2019 33.5485 30.5828 32.9225C30.9637 32.2965 31.5093 31.7871 32.16 31.45ZM22 33H14C13.7348 33 13.4804 33.1053 13.2929 33.2929C13.1054 33.4804 13 33.7348 13 34V35H22C22 34.67 22 34.34 22 34C22 33.66 22 33.33 22 33ZM18.32 29.93C19.5126 29.4537 20.6281 28.8033 21.63 28C22.6497 27.2448 23.4834 26.2666 24.0674 25.1401C24.6515 24.0136 24.9704 22.7686 25 21.5C24.9704 20.2314 24.6515 18.9864 24.0674 17.8599C23.4834 16.7334 22.6497 15.7552 21.63 15C20.6353 14.2045 19.5261 13.564 18.34 13.1C18.1203 13.0206 17.8797 13.0206 17.66 13.1C16.4739 13.564 15.3647 14.2045 14.37 15C13.3503 15.7552 12.5166 16.7334 11.9326 17.8599C11.3485 18.9864 11.0296 20.2314 11 21.5C11.0296 22.7686 11.3485 24.0136 11.9326 25.1401C12.5166 26.2666 13.3503 27.2448 14.37 28C15.3622 28.7858 16.4638 29.4225 17.64 29.89C17.7514 29.9506 17.8738 29.988 18 30C18.1167 29.998 18.232 29.9742 18.34 29.93H18.32ZM17 27.41C16.5193 27.1369 16.0612 26.8259 15.63 26.48C14.8366 25.905 14.1865 25.1547 13.7304 24.2875C13.2742 23.4203 13.0243 22.4595 13 21.48C13.0243 20.5004 13.2742 19.5397 13.7304 18.6725C14.1865 17.8053 14.8366 17.055 15.63 16.48C16.3554 15.9117 17.1522 15.441 18 15.08C18.85 15.4535 19.6469 15.9377 20.37 16.52C21.1634 17.095 21.8135 17.8453 22.2696 18.7125C22.7258 19.5797 22.9757 20.5404 23 21.52C22.9757 22.4995 22.7258 23.4603 22.2696 24.3275C21.8135 25.1947 21.1634 25.945 20.37 26.52C19.9388 26.8659 19.4807 27.1769 19 27.45V25.45L20.71 23.75C20.8983 23.5617 21.0041 23.3063 21.0041 23.04C21.0041 22.7737 20.8983 22.5183 20.71 22.33C20.5217 22.1417 20.2663 22.0359 20 22.0359C19.7337 22.0359 19.4783 22.1417 19.29 22.33L19 22.63V21.41L20.71 19.71C20.8983 19.5217 21.0041 19.2663 21.0041 19C21.0041 18.7337 20.8983 18.4783 20.71 18.29C20.5217 18.1017 20.2663 17.9959 20 17.9959C19.7337 17.9959 19.4783 18.1017 19.29 18.29L19 18.59V18C19 17.7348 18.8946 17.4804 18.7071 17.2929C18.5196 17.1053 18.2652 17 18 17C17.7348 17 17.4804 17.1053 17.2929 17.2929C17.1054 17.4804 17 17.7348 17 18V18.59L16.71 18.29C16.5217 18.1017 16.2663 17.9959 16 17.9959C15.7337 17.9959 15.4783 18.1017 15.29 18.29C15.1017 18.4783 14.9959 18.7337 14.9959 19C14.9959 19.2663 15.1017 19.5217 15.29 19.71L17 21.41V22.59L16.71 22.29C16.5217 22.1017 16.2663 21.9959 16 21.9959C15.7337 21.9959 15.4783 22.1017 15.29 22.29C15.1017 22.4783 14.9959 22.7337 14.9959 23C14.9959 23.2663 15.1017 23.5217 15.29 23.71L17 25.41V27.41Z" fill="white"/>
</svg>
