<svg width="48" height="48" viewBox="0 0 48 48" fill="none" xmlns="http://www.w3.org/2000/svg">
<path d="M12.6875 6.34375H27.9219C28.8603 6.34375 29.7438 6.70996 30.4075 7.37372L37.4388 14.405C38.1025 15.0687 38.4687 15.9522 38.4687 16.8906V41.6562H39.6406C40.2882 41.6562 40.8125 41.132 40.8125 40.4844V5.17187C40.8125 4.52429 40.2882 4 39.6406 4H13.8594C13.2118 4 12.6875 4.52429 12.6875 5.17187V6.34375Z" fill="white"/>
<path d="M29.0937 15.7187H35.4384L29.0937 9.37415V15.7187Z" fill="white"/>
<path d="M8 9.85937V42.8281C8 43.4757 8.52429 44 9.17187 44H34.9531C35.6007 44 36.125 43.4757 36.125 42.8281V18.0625H27.9219C27.2743 18.0625 26.75 17.5382 26.75 16.8906V8.6875H9.17187C8.52429 8.6875 8 9.21179 8 9.85937ZM30.2656 39.3125H23.2344C22.5868 39.3125 22.0625 38.7882 22.0625 38.1406C22.0625 37.493 22.5868 36.9687 23.2344 36.9687H30.2656C30.9132 36.9687 31.4375 37.493 31.4375 38.1406C31.4375 38.7882 30.9132 39.3125 30.2656 39.3125ZM30.2656 34.625H25.5781C24.9305 34.625 24.4062 34.1007 24.4062 33.4531C24.4062 32.8055 24.9305 32.2812 25.5781 32.2812H30.2656C30.9132 32.2812 31.4375 32.8055 31.4375 33.4531C31.4375 34.1007 30.9132 34.625 30.2656 34.625ZM25.5781 22.8281H30.2656C30.9132 22.8281 31.4375 23.3524 31.4375 24C31.4375 24.6476 30.9132 25.1719 30.2656 25.1719H25.5781C24.9305 25.1719 24.4062 24.6476 24.4062 24C24.4062 23.3524 24.9305 22.8281 25.5781 22.8281ZM23.2344 27.5156H30.2656C30.9132 27.5156 31.4375 28.0399 31.4375 28.6875C31.4375 29.3351 30.9132 29.8594 30.2656 29.8594H23.2344C22.5868 29.8594 22.0625 29.3351 22.0625 28.6875C22.0625 28.0399 22.5868 27.5156 23.2344 27.5156ZM13.0308 16.0621C13.4886 15.6043 14.2302 15.6043 14.6879 16.0621L16.2031 17.5773L20.0621 13.7183C20.5198 13.2606 21.2614 13.2606 21.7192 13.7183C22.1769 14.1761 22.1769 14.9177 21.7192 15.3754L17.0317 20.0629C16.8028 20.2918 16.5031 20.4062 16.2031 20.4062C15.9034 20.4062 15.6035 20.2918 15.3746 20.0629L13.0308 17.7192C12.5731 17.2614 12.5731 16.5198 13.0308 16.0621ZM13.0308 25.5152C13.4886 25.0574 14.2302 25.0574 14.6879 25.5152L16.2031 27.0304L20.0621 23.1714C20.5198 22.7137 21.2614 22.7137 21.7192 23.1714C22.1769 23.6292 22.1769 24.3708 21.7192 24.8286L17.0317 29.5161C16.8028 29.7449 16.5031 29.8594 16.2031 29.8594C15.9034 29.8594 15.6035 29.7449 15.3746 29.5161L13.0308 27.1723C12.5731 26.7145 12.5731 25.973 13.0308 25.5152ZM13.0308 34.9683C13.4886 34.5106 14.2302 34.5106 14.6879 34.9683L16.2031 36.4835L20.0621 32.6246C20.5198 32.1668 21.2614 32.1668 21.7192 32.6246C22.1769 33.0823 22.1769 33.8239 21.7192 34.2817L17.0317 38.9692C16.8028 39.1981 16.5031 39.3125 16.2031 39.3125C15.9034 39.3125 15.6035 39.1981 15.3746 38.9692L13.0308 36.6254C12.5731 36.1677 12.5731 35.4261 13.0308 34.9683Z" fill="white"/>
</svg>
