<svg width="48" height="48" viewBox="0 0 48 48" fill="none" xmlns="http://www.w3.org/2000/svg">
<path d="M29.7167 38.9586H5V41.1929C5 42.345 5.93571 43.2807 7.08784 43.2807H30.4806C29.9841 42.676 29.7167 41.9249 29.7167 41.1228V38.9586Z" fill="white"/>
<path d="M42.1801 7.11267C42.1801 6.45703 41.9192 5.83323 41.4545 5.35582C40.9834 4.89115 40.3596 4.63654 39.704 4.63654C38.3355 4.63654 37.2215 5.75048 37.2215 7.11267V10.8937H42.1801V7.11267Z" fill="white"/>
<path d="M40.3342 44L42.9758 38.3857H37.6926L40.3342 44Z" fill="white"/>
<path d="M40.3342 17.5137C38.8765 17.5137 37.6926 18.6976 37.6926 20.1553V22.4214H42.9758V20.1617C42.9758 18.6976 41.7919 17.5137 40.3342 17.5137Z" fill="white"/>
<path d="M37.6926 23.6881H42.9758V37.1127H37.6926V23.6881Z" fill="white"/>
<path d="M13.0331 33.0452C13.1604 33.1725 13.3195 33.2298 13.485 33.2298C13.6505 33.2298 13.8097 33.1661 13.937 33.0452L15.8466 31.1356C16.0948 30.8873 16.0948 30.4863 15.8466 30.2381C15.5983 29.9898 15.1973 29.9898 14.9491 30.2381L13.4914 31.6957L13.3068 31.5111C13.0586 31.2629 12.6575 31.2629 12.4093 31.5111C12.161 31.7594 12.161 32.1604 12.4093 32.4087L13.0331 33.0452Z" fill="white"/>
<path d="M13.0331 12.676C13.1604 12.8033 13.3195 12.8606 13.485 12.8606C13.6505 12.8606 13.8097 12.7969 13.937 12.676L15.8466 10.7664C16.0948 10.5181 16.0948 10.1171 15.8466 9.86887C15.5983 9.62062 15.1973 9.62062 14.9491 9.86887L13.4914 11.3265L13.3068 11.1419C13.0586 10.8937 12.6575 10.8937 12.4093 11.1419C12.161 11.3902 12.161 11.7912 12.4093 12.0395L13.0331 12.676Z" fill="white"/>
<path d="M13.0331 22.8606C13.1604 22.9879 13.3195 23.0452 13.485 23.0452C13.6505 23.0452 13.8097 22.9815 13.937 22.8606L15.8466 20.951C16.0948 20.7027 16.0948 20.3017 15.8466 20.0535C15.5983 19.8052 15.1973 19.8052 14.9491 20.0535L13.4914 21.5111L13.3068 21.3265C13.0586 21.0783 12.6575 21.0783 12.4093 21.3265C12.161 21.5748 12.161 21.9758 12.4093 22.2241L13.0331 22.8606Z" fill="white"/>
<path d="M37.6098 4H10.8243C9.29027 4 8.04902 5.24125 8.04902 6.7753V37.6856H30.3533C30.7034 37.6856 30.9898 37.972 30.9898 38.3221V41.1229C30.9898 41.7021 31.2126 42.2432 31.62 42.6442C31.9255 42.9561 32.3075 43.1598 32.7212 43.2425H32.7403C32.874 43.268 33.0076 43.2807 33.1477 43.2807C34.6945 43.2807 35.9421 42.0267 35.9421 40.4863V13.4462V7.11267C35.9484 5.8205 36.6104 4.67473 37.6098 4ZM17.3043 34.8211H10.9389V28.4558H17.3043V34.8211ZM17.3043 24.6365H10.9389V18.2712H17.3043V24.6365ZM17.3043 14.4519H10.9389V8.08657H17.3043V14.4519ZM28.7619 33.5481H19.8504C19.5003 33.5481 19.2139 33.2616 19.2139 32.9115C19.2139 32.5614 19.5003 32.275 19.8504 32.275H28.7619C29.112 32.275 29.3985 32.5614 29.3985 32.9115C29.3985 33.2616 29.112 33.5481 28.7619 33.5481ZM32.5812 31.0019H19.8504C19.5003 31.0019 19.2139 30.7155 19.2139 30.3654C19.2139 30.0153 19.5003 29.7288 19.8504 29.7288H32.5812C32.9313 29.7288 33.2177 30.0153 33.2177 30.3654C33.2177 30.7155 32.9313 31.0019 32.5812 31.0019ZM19.2139 22.7269C19.2139 22.3768 19.5003 22.0904 19.8504 22.0904H28.7619C29.112 22.0904 29.3985 22.3768 29.3985 22.7269C29.3985 23.077 29.112 23.3635 28.7619 23.3635H19.8504C19.5003 23.3635 19.2139 23.077 19.2139 22.7269ZM32.5812 20.8173H19.8504C19.5003 20.8173 19.2139 20.5309 19.2139 20.1808C19.2139 19.8307 19.5003 19.5442 19.8504 19.5442H32.5812C32.9313 19.5442 33.2177 19.8307 33.2177 20.1808C33.2177 20.5309 32.9313 20.8173 32.5812 20.8173ZM19.2139 12.5423C19.2139 12.1922 19.5003 11.9058 19.8504 11.9058H28.7619C29.112 11.9058 29.3985 12.1922 29.3985 12.5423C29.3985 12.8924 29.112 13.1789 28.7619 13.1789H19.8504C19.5003 13.1789 19.2139 12.8924 19.2139 12.5423ZM32.5812 10.6327H19.8504C19.5003 10.6327 19.2139 10.3463 19.2139 9.99618C19.2139 9.64609 19.5003 9.35964 19.8504 9.35964H32.5812C32.9313 9.35964 33.2177 9.64609 33.2177 9.99618C33.2177 10.3463 32.9313 10.6327 32.5812 10.6327Z" fill="white"/>
</svg>
