<svg width="48" height="48" viewBox="0 0 48 48" fill="none" xmlns="http://www.w3.org/2000/svg">
<path d="M24 20.5937C27.7538 20.5937 30.7969 17.5507 30.7969 13.7969C30.7969 10.0431 27.7538 7 24 7C20.2462 7 17.2031 10.0431 17.2031 13.7969C17.2031 17.5507 20.2462 20.5937 24 20.5937Z" fill="white"/>
<path d="M37.75 20.5937C40.1231 20.5937 42.0469 18.6699 42.0469 16.2968C42.0469 13.9237 40.1231 11.9999 37.75 11.9999C35.3769 11.9999 33.4531 13.9237 33.4531 16.2968C33.4531 18.6699 35.3769 20.5937 37.75 20.5937Z" fill="white"/>
<path d="M10.25 20.5937C12.6231 20.5937 14.5469 18.6699 14.5469 16.2968C14.5469 13.9237 12.6231 11.9999 10.25 11.9999C7.8769 11.9999 5.95312 13.9237 5.95312 16.2968C5.95312 18.6699 7.8769 20.5937 10.25 20.5937Z" fill="white"/>
<path d="M14.4836 24.4524C12.7922 23.0666 11.2604 23.25 9.30469 23.25C6.37969 23.25 4 25.6156 4 28.5227V37.0547C4 38.3172 5.03047 39.3438 6.29766 39.3438C11.7684 39.3438 11.1094 39.4427 11.1094 39.1078C11.1094 33.062 10.3933 28.6284 14.4836 24.4524Z" fill="white"/>
<path d="M25.8602 23.2812C22.4442 22.9963 19.4751 23.2845 16.9141 25.3984C12.6284 28.8312 13.4531 33.4533 13.4531 39.1077C13.4531 40.6038 14.6703 41.8437 16.1891 41.8437C32.6798 41.8437 33.3362 42.3756 34.3141 40.2101C34.6348 39.4777 34.5469 39.7105 34.5469 32.7046C34.5469 27.1401 29.7287 23.2812 25.8602 23.2812Z" fill="white"/>
<path d="M38.6953 23.2499C36.7289 23.2499 35.2055 23.0683 33.5164 24.4523C37.5762 28.5973 36.8906 32.7284 36.8906 39.1077C36.8906 39.4448 36.3435 39.3437 41.6203 39.3437C42.9328 39.3437 44 38.2804 44 36.9733V28.5226C44 25.6155 41.6203 23.2499 38.6953 23.2499Z" fill="white"/>
</svg>
