<svg width="48" height="48" viewBox="0 0 48 48" fill="none" xmlns="http://www.w3.org/2000/svg">
<path d="M9.85937 4C6.62758 4 4 6.78492 4 10.0156V44H29.2495C27.7295 42.7839 26.5419 41.1703 25.868 39.3125H8.6875V36.9688H25.3192C25.2756 36.5841 25.25 36.1937 25.25 35.7969C25.25 35.3977 25.3002 35.0123 25.3438 34.625H8.6875V32.2812H25.8762C26.1767 31.4445 26.5816 30.6603 27.0742 29.9375H13.5312V27.5938H27.5937V29.2524C28.812 27.7459 30.4181 26.5622 32.2812 25.8979C32.2812 25.5067 32.2812 6.49711 32.2812 7.51562C32.2812 6.19156 32.7393 4.98234 33.4827 4H9.85937ZM11.0312 29.9375H8.6875V27.5938H11.0312V29.9375ZM18.2187 15.875C20.1573 15.875 21.7344 17.452 21.7344 19.3906C21.7344 20.9164 20.7517 22.205 19.3906 22.6904V25.25H17.0469V22.6904C15.6858 22.205 14.7031 20.9164 14.7031 19.3906H17.0469C17.0469 20.0372 17.5733 20.5625 18.2187 20.5625C18.8642 20.5625 19.3906 20.0372 19.3906 19.3906C19.3906 18.7441 18.8642 18.2188 18.2187 18.2188C16.2802 18.2188 14.7031 16.6417 14.7031 14.7031C14.7031 13.1773 15.6858 11.8888 17.0469 11.4034V8.6875H19.3906V11.4034C20.7517 11.8888 21.7344 13.1773 21.7344 14.7031H19.3906C19.3906 14.0566 18.8642 13.5312 18.2187 13.5312C17.5733 13.5312 17.0469 14.0566 17.0469 14.7031C17.0469 15.3497 17.5733 15.875 18.2187 15.875Z" fill="white"/>
<path d="M34.625 13.5312V7.51562C34.625 5.57703 36.202 4 38.1406 4C40.0792 4 41.6562 5.57703 41.6562 7.51562V13.5312H34.625Z" fill="white"/>
<path d="M35.7969 27.5938C31.2664 27.5938 27.5938 31.2664 27.5938 35.7969C27.5938 40.3273 31.2664 44 35.7969 44C40.3273 44 44 40.3273 44 35.7969C44 31.2664 40.3273 27.5938 35.7969 27.5938ZM39.3125 36.9688H34.625V32.2812H36.9688V34.625H39.3125V36.9688Z" fill="white"/>
</svg>
